<svg width="72" height="96" viewBox="0 0 72 96" fill="none" xmlns="http://www.w3.org/2000/svg">
<path d="M65.86 72.1222H6.14001C3.08422 72.1222 0.5 69.6717 0.5 66.4423V6.43333C0.5 3.37494 2.93332 0.772461 6.14001 0.772461H65.86C68.9158 0.772461 71.5 3.22297 71.5 6.45232V66.5943C71.5 69.6527 68.9158 72.1222 65.86 72.1222Z" fill="#F16522"/>
<path d="M5.06482 82.0953C3.98964 82.0953 3.08422 82.3992 2.48061 82.8551C2.1788 83.159 1.87699 83.463 1.72609 83.7669V78.543H0.5V92.3532H1.57519V90.8145C1.87699 91.2704 2.0279 91.5744 2.48061 91.7263C3.23512 92.3342 4.0085 92.6381 5.06482 92.6381C6.44182 92.6381 7.49814 92.1822 8.27152 91.0995C9.02604 90.1876 9.49761 88.8009 9.49761 87.2622C9.49761 85.7235 9.02604 84.5458 8.42242 83.615C7.49814 82.7031 6.44182 82.0953 5.06482 82.0953ZM5.06482 91.5934C3.98964 91.5934 3.08422 91.2894 2.48061 90.3586C1.87699 89.5988 1.57519 88.516 1.57519 87.2812C1.57519 85.8945 1.87699 84.8307 2.48061 84.0519C3.08422 83.292 4.0085 82.9691 5.06482 82.9691C6.12115 82.9691 6.89453 83.425 7.49814 84.2038C8.10175 85.1157 8.40356 86.0465 8.40356 87.2812C8.40356 88.516 8.10175 89.5798 7.49814 90.3586C6.89453 91.2894 6.14001 91.5934 5.06482 91.5934ZM17.7218 91.2894V91.1375V85.1536C17.7218 84.0709 17.42 83.311 16.6467 82.8551C16.043 82.3992 15.2697 82.2472 14.2133 82.2472C12.9872 82.2472 12.0818 82.5512 11.3273 83.159C10.5728 83.7669 10.2521 84.6977 10.2521 85.6096V85.9135H11.3273V85.6096C11.3273 84.8497 11.6291 84.2228 12.0818 83.7669C12.5345 83.311 13.3079 83.159 14.2133 83.159C15.2885 83.159 15.8921 83.311 16.1939 83.7669C16.4957 84.2228 16.6467 84.6787 16.6467 85.4576C16.6467 86.2174 16.3448 86.3694 16.043 86.3694C15.5903 86.5214 14.666 86.6733 13.3079 86.6733C12.2327 86.6733 11.4782 86.8253 10.8746 87.2812C10.1201 87.7371 9.79942 88.516 9.79942 89.7317C9.79942 90.6435 10.1012 91.4224 10.7048 91.8783C11.3084 92.3342 12.2327 92.6381 13.1382 92.6381C14.0436 92.6381 14.9679 92.3342 15.7224 91.8783C16.0242 91.7263 16.326 91.4224 16.6278 91.1185C16.6278 91.5744 16.7787 91.8783 16.9296 92.0303C17.2314 92.1822 17.5332 92.3342 18.1557 92.3342H18.7593V91.4224H18.0048C17.8727 91.4414 17.8727 91.4414 17.7218 91.2894ZM11.4782 88.0791C11.9309 87.7751 12.5534 87.6232 13.4588 87.6232C14.6849 87.6232 15.5903 87.6232 16.1939 87.4712C16.4957 87.4712 16.6467 87.3192 16.7976 87.3192V88.231C16.7976 89.1428 16.4957 89.9217 15.8921 90.5296C15.2885 91.1374 14.3642 91.4414 13.3079 91.4414C12.4025 91.4414 11.78 91.2894 11.4782 90.8335C11.1764 90.5296 10.8746 90.0737 10.8746 89.4468C10.7048 88.9909 11.0066 88.383 11.4782 88.0791ZM23.1921 82.0953C22.2867 82.0953 21.3624 82.3992 20.7588 82.8551C20.457 83.0071 20.3061 83.311 20.1552 83.463V82.2282H19.08V92.3532H20.1552V86.6733C20.1552 85.5906 20.457 84.6787 20.9097 84.0709C21.5133 83.463 22.1358 82.9881 23.1921 82.9881C23.9466 82.9881 24.5691 83.14 25.1727 83.7479C25.6254 84.2038 25.9272 84.8307 25.9272 85.7425V92.3342H26.8326V85.7425C26.8326 84.5078 26.5308 83.596 25.7574 82.9881C25.1727 82.3992 24.2673 82.0953 23.1921 82.0953ZM35.3964 83.7669C35.2455 83.463 34.9437 83.159 34.6419 83.0071C33.8874 82.3992 33.114 82.2472 32.2086 82.2472C30.8316 82.2472 29.7752 82.7031 29.0019 83.634C28.2473 84.5458 27.9267 85.7805 27.9267 87.1672C27.9267 88.554 28.2285 89.6178 29.0019 90.5486C29.7564 91.4604 30.8316 91.9353 32.2086 91.9353C33.114 91.9353 34.0383 91.6313 34.7928 91.1754C35.0946 90.8715 35.3964 90.7195 35.6982 90.4156V91.8023C35.6982 92.8851 35.3964 93.6449 34.9437 94.1009C34.3401 94.5568 33.5667 94.8607 32.5104 94.8607C31.6049 94.8607 30.9825 94.7087 30.3788 94.2528C29.9261 93.9489 29.6243 93.341 29.6243 92.5622V92.2582H28.5491V92.5622C28.5491 93.6449 29.0019 94.5568 29.6243 95.0127C30.3788 95.4686 31.3031 95.7725 32.3595 95.7725C33.7364 95.7725 34.7928 95.4686 35.4152 94.6897C36.1698 93.9299 36.4904 92.9991 36.4904 91.6124V82.0953H35.4152V83.7669H35.3964ZM29.6055 89.9217C29.0019 89.1618 28.7001 88.231 28.7001 87.1672C28.7001 86.0845 29.0019 85.0207 29.6055 84.4128C30.2091 83.6529 30.9825 83.33 32.0388 83.33C33.114 83.33 33.8685 83.6339 34.4721 84.4128C35.0757 85.1726 35.3775 86.1035 35.3775 87.1672C35.3775 88.25 35.0757 89.1618 34.4721 89.9217C33.8685 90.6815 33.0951 91.0045 32.0388 91.0045C30.9636 90.8335 30.2091 90.5296 29.6055 89.9217ZM37.6788 78.7139H38.754V92.5242H37.6788V78.7139ZM47.4309 91.2894V91.1375V85.1536C47.4309 84.0709 47.1291 83.311 46.3557 82.8551C45.7521 82.3992 44.9787 82.2472 43.9224 82.2472C42.6963 82.2472 41.7909 82.5512 41.0364 83.159C40.2819 83.7669 39.9612 84.6977 39.9612 85.6096V85.9135H41.0364V85.6096C41.0364 84.8497 41.3382 84.2228 41.7909 83.7669C42.2436 83.311 43.017 83.159 43.9224 83.159C44.9976 83.159 45.6012 83.311 45.903 83.7669C46.2048 84.2228 46.3557 84.6787 46.3557 85.4576C46.3557 86.2174 46.0539 86.3694 45.7521 86.3694C45.2994 86.5214 44.3751 86.6733 43.017 86.6733C41.9418 86.6733 41.1873 86.8253 40.5837 87.2812C39.8292 87.7371 39.5085 88.6679 39.5085 89.7317C39.5085 90.6435 39.8103 91.4224 40.4139 91.8783C41.0175 92.3342 41.9418 92.6381 42.8472 92.6381C43.7527 92.6381 44.6769 92.3342 45.4315 91.8783C45.7333 91.7263 46.0351 91.4224 46.3369 91.1185C46.3369 91.5744 46.4878 91.8783 46.6387 92.0303C46.9405 92.1822 47.2423 92.3342 47.8648 92.3342H48.4684V91.4224H47.7139C47.7327 91.4414 47.5818 91.4414 47.4309 91.2894ZM41.1873 88.0791C41.64 87.7751 42.2625 87.6232 43.1679 87.6232C44.394 87.6232 45.2994 87.6232 45.903 87.4712C46.2048 87.4712 46.3557 87.3192 46.5066 87.3192V88.231C46.5066 89.1428 46.2048 89.9217 45.6012 90.5296C44.9976 91.1374 44.0733 91.4414 43.017 91.4414C42.1116 91.4414 41.4891 91.2894 41.1873 90.8335C40.7346 90.6815 40.5837 90.3776 40.5837 89.7507C40.5648 88.9909 40.7157 88.383 41.1873 88.0791ZM48.9588 78.7139H50.034V92.5242H48.9588V78.7139ZM51.2412 78.7139H52.3164V81.1644H51.2412V78.7139ZM51.2412 82.3992H52.3164V92.5242H51.2412V82.3992ZM57.7867 82.0953C56.8812 82.0953 55.957 82.3992 55.3533 82.8551C55.0515 83.0071 54.9006 83.311 54.7497 83.463V82.2282H53.6745V92.3532H54.7497V86.6733C54.7497 85.5906 55.0515 84.6787 55.5042 84.0709C56.1079 83.463 56.7303 82.9881 57.7867 82.9881C58.5412 82.9881 59.1637 83.14 59.7673 83.7479C60.22 84.2038 60.5218 84.8307 60.5218 85.7425V92.3342H61.597V85.7425C61.597 84.5078 61.2952 83.596 60.5218 82.9881C59.7673 82.3992 58.8619 82.0953 57.7867 82.0953ZM66.6334 86.2364L71.3491 82.3992L69.8212 82.2472L63.7285 87.3002V78.7139H62.8231V92.3722H63.7285V88.6869L65.86 86.9963L70.123 92.3722H71.5L66.6334 86.2364Z" fill="black"/>
<path d="M45.903 68.4369C55.6551 57.0772 61.1442 43.8938 63.8793 29.3047C64.1811 27.4621 63.5775 25.6195 63.4266 23.6248C63.1248 23.6248 62.823 23.4729 62.5212 23.4729C61.9176 24.2327 61.2951 25.0116 60.6915 25.7714C60.3897 26.0754 60.3897 26.5313 60.2388 26.8542C57.8054 34.9846 54.2969 42.3551 48.6569 49.0988C44.8466 53.5439 42.5642 59.3757 39.98 64.7516C37.9994 68.5888 37.9994 68.8928 33.2837 68.2849C34.6607 65.2075 35.8679 62.1491 37.5467 59.3947C41.8097 52.4991 46.5443 45.8884 50.9582 38.9928C52.9388 35.7634 54.3158 32.2491 56.1455 29.0198C57.6734 26.4173 59.8049 24.2707 61.1819 21.6492C62.5589 19.1987 63.6152 16.4253 64.5395 13.8228C65.294 11.5243 65.7656 9.07376 66.2183 6.60426C66.5201 6.60426 66.8219 6.75623 67.2935 6.75623C66.8408 9.3587 66.2183 11.9802 65.9165 14.7346C65.4638 17.641 65.3129 20.7184 65.0111 23.6248C64.8602 25.1635 64.4075 27.0062 66.9917 27.766C67.4444 27.918 67.7462 30.0646 67.5953 30.9954C65.9165 37.2831 64.3886 43.7228 62.1062 49.8776C60.7292 53.5629 58.2959 56.9442 56.3153 60.4585C55.5608 61.6932 54.7874 62.757 54.1838 64.1437C51.6939 69.1967 51.543 69.3487 45.903 68.4369ZM42.5454 4.43869C43.7714 7.19314 42.3945 8.57986 41.3193 10.1186C37.6599 15.1905 33.6986 20.0916 30.6617 25.6195C27.9266 30.5205 25.7951 35.7444 23.9654 41.1203C22.2866 46.3443 19.7024 51.0933 16.4957 55.5385C13.9115 59.0718 11.4593 62.757 8.87506 66.2713C8.27145 67.1831 7.49807 67.962 6.89445 68.7218C6.59265 68.5699 6.44174 68.5699 6.13994 68.4179C6.13994 67.3351 5.98903 66.2713 6.29084 65.3405C7.66783 61.9592 8.87506 58.4449 10.5539 55.2155C13.1381 50.4665 14.0624 45.5465 13.289 40.1705C12.2138 32.952 13.1381 25.9044 14.8169 18.9898C15.2696 16.8432 15.4205 14.5447 15.7223 11.9232C10.5539 13.8038 8.42235 18.2489 4.46114 21.6302C4.00843 18.7238 3.55572 16.7292 5.98903 14.7346C9.49754 11.8092 12.5345 8.42789 16.043 5.52147C16.9484 4.76162 18.3254 4.60965 20.306 3.83081C19.7024 6.12935 19.4006 7.51607 19.0799 8.9028C17.8538 14.7346 16.6466 20.7184 15.7223 26.5503C15.2696 29.3047 15.4205 32.0782 15.5714 34.8326C15.7223 38.8218 16.175 42.811 16.6466 47.1041C19.3817 46.8002 20.6078 44.9576 21.3623 42.659C23.4938 37.2831 25.4744 31.7552 27.7568 26.3983C30.6429 19.6546 33.6986 13.044 39.4896 8.14295C40.7157 7.51607 41.3381 6.12935 42.5454 4.43869ZM13.4587 68.1329C14.2133 66.5942 14.8357 65.2265 15.5903 63.8398C18.9479 58.6158 23.06 53.8668 25.7951 48.3389C30.209 39.7526 36.3017 32.5341 42.0926 25.0116C42.8472 23.9288 43.6205 22.713 43.7714 21.4783C44.526 17.1851 46.6575 13.6518 49.7133 10.4225C51.2412 8.75083 52.5993 7.06016 54.7497 5.52147C53.9951 6.9082 53.3727 8.59886 52.3163 9.51067C48.6569 12.74 46.9781 16.7292 45.7709 21.3263C44.6957 25.1635 42.4133 28.5449 40.7345 32.2301C38.9048 36.0674 37.0751 39.9046 35.3963 43.7418C31.4351 52.3281 26.3987 60.1545 19.2497 66.4423C17.7218 67.962 16.1939 69.1967 13.4587 68.1329ZM30.9635 61.0664C33.2459 57.5331 36.7544 54.1707 37.9805 50.1625C39.8102 44.1787 43.0169 38.6508 44.2242 32.971C45.903 24.5367 50.4678 18.4009 55.5042 12.0942C56.8812 10.4035 57.9375 8.4089 59.0127 6.26232C59.7672 4.57166 60.9933 4.26772 62.3703 4.8756C62.6721 5.02757 62.5212 7.02217 62.0685 7.63005C59.7672 11.2013 57.0321 14.5637 54.7497 18.2489C52.6181 21.4783 50.9393 24.9926 49.1096 28.5259C47.4308 31.6033 45.752 34.5097 44.3939 37.739C42.7151 41.2723 41.0363 44.8056 39.98 48.6428C38.5841 54.3227 35.2454 58.1599 30.9635 61.0664ZM30.5108 4.91359C27.1532 9.05477 25.3235 13.3479 24.4181 18.2679C23.3429 23.6438 21.2114 28.6968 19.7024 33.9208C19.4006 33.9208 19.2497 33.7688 18.9479 33.7688C19.2497 32.0782 19.5515 30.5395 19.8533 28.8678C21.3812 22.4281 22.7393 15.8174 24.4181 9.52967C25.4933 5.21753 26.5496 4.59066 30.5108 4.91359ZM67.3878 50.3335C68.9157 60.7624 66.1617 68.2849 60.5406 68.4369C62.823 62.3011 65.1054 56.3173 67.3878 50.3335ZM10.403 21.0224C9.95024 21.7822 9.49754 22.713 8.87506 23.4729C6.13994 27.0062 5.51746 30.9954 5.51746 35.4405C5.51746 38.6698 5.36656 42.0322 5.21566 45.2615C5.21566 45.7174 4.91385 46.1733 4.46114 46.6482C4.76295 37.5871 2.02782 28.089 9.64844 20.7184C9.95025 20.8704 10.1011 20.8704 10.403 21.0224ZM47.7327 5.06556C45.1484 11.6572 43.7714 18.8758 38.4332 23.7768C41.1684 17.641 44.0732 11.0494 46.9593 4.59066C47.129 4.76162 47.4308 4.91359 47.7327 5.06556ZM4.61204 9.96658C4.15933 5.97738 4.91385 5.06556 7.96964 4.8946C6.89445 6.43329 5.83813 7.97198 4.61204 9.96658Z" fill="black"/>
</svg>
