<svg xmlns="http://www.w3.org/2000/svg" width="98" height="94" viewBox="0 0 98 94" fill="none">
  <path fill-rule="evenodd" clip-rule="evenodd" d="M42.4135 3.96865C41.2958 2.29949 39.7542 1.23669 37.7886 0.780297C26.9742 0.699082 16.159 0.652343 5.34452 0.64015C5.1336 0.675327 4.92338 0.710364 4.71386 0.745261C4.66691 0.745261 4.64378 0.721926 4.64378 0.675187C4.82177 0.596424 5.00887 0.537983 5.20437 0.500003C16.0188 0.499582 26.834 0.546251 37.6485 0.64015C39.6666 1.03614 41.2671 2.07554 42.4485 3.75843C42.5004 3.84595 42.4885 3.91602 42.4135 3.96865Z" fill="#E5D469"/>
  <path fill-rule="evenodd" clip-rule="evenodd" d="M42.4135 3.96876C42.4135 3.99209 42.4135 4.0155 42.4135 4.03883C42.066 5.19806 41.6925 6.34257 41.2924 7.47244C40.7177 6.92818 40.0408 6.56611 39.2602 6.3863C28.6321 6.33956 18.0048 6.33956 7.3767 6.3863C6.29266 6.51243 5.62696 7.10806 5.3796 8.17318C5.33266 8.52355 5.33266 8.87391 5.3796 9.22428C6.21979 12.5154 7.04946 15.8089 7.86722 19.1047C8.64714 22.0145 9.39482 24.9342 10.1096 27.8639C10.5328 29.5108 10.9764 31.1459 11.441 32.769C11.9728 35.155 12.5804 37.5141 13.2629 39.8465C13.5957 41.4119 13.9931 42.9535 14.4541 44.4713C14.986 46.8573 15.5935 49.2167 16.2761 51.5488C16.9705 54.4891 17.7175 57.409 18.5184 60.308C18.6964 61.1355 18.9066 61.9533 19.1491 62.7606C19.6746 64.8144 20.2002 66.8704 20.7257 68.927C20.9233 69.4624 21.1917 69.9529 21.5316 70.3986C21.0901 71.7447 20.6697 73.0999 20.2703 74.4629C20.2471 74.4629 20.2233 74.4629 20.2002 74.4629C14.3715 51.5698 8.52031 28.6788 2.64673 5.79067C2.26904 4.32417 2.50238 2.96937 3.34747 1.7264C3.73778 1.30028 4.19326 0.973249 4.71391 0.745369C4.92343 0.710473 5.13365 0.675436 5.34457 0.640259C16.159 0.652452 26.9742 0.699191 37.7887 0.780406C39.7542 1.2368 41.2959 2.2996 42.4135 3.96876Z" fill="#30330D"/>
  <path fill-rule="evenodd" clip-rule="evenodd" d="M2.82181 1.93652C2.60738 2.4119 2.4322 2.90242 2.29625 3.40807C2.2402 4.22807 2.26332 5.04555 2.36633 5.86065C8.26583 28.8062 14.1639 51.7435 20.0599 74.673C20.3115 76.3092 20.7901 77.8746 21.4964 79.3679C22.4824 80.9614 23.8719 82.0237 25.6658 82.5563C26.0477 82.6242 26.4331 82.6593 26.822 82.6614C30.0349 82.3916 33.2464 82.1113 36.4572 81.8205C36.5272 81.8205 36.5973 81.8205 36.6674 81.8205C36.6856 82.1078 36.6625 82.3881 36.5973 82.6614C32.9072 82.9977 29.2164 83.3369 25.5257 83.6774C23.9182 83.8659 22.4936 83.4455 21.2512 82.4161C19.9842 81.3188 19.1546 79.9523 18.7636 78.3168C12.7015 54.559 6.62821 30.8042 0.544413 7.0519C0.0644081 5.29193 0.472937 3.78535 1.7707 2.53215C2.12317 2.33279 2.47354 2.1342 2.82181 1.93652Z" fill="#202E07"/>
  <path fill-rule="evenodd" clip-rule="evenodd" d="M19.6394 3.8988C21.5313 3.8871 23.4233 3.8988 25.3153 3.93384C25.8402 4.23908 25.9341 4.63618 25.5956 5.12509C23.7268 5.17183 21.8586 5.17183 19.9897 5.12509C19.5104 4.94899 19.3352 4.61033 19.4642 4.10902C19.5132 4.02556 19.5714 3.95549 19.6394 3.8988Z" fill="#727270"/>
  <path fill-rule="evenodd" clip-rule="evenodd" d="M42.4134 4.03882C42.7771 4.57944 43.0693 5.16336 43.2893 5.79066C44.5142 9.99024 45.7167 14.1947 46.8981 18.4039C46.3971 18.4849 45.8827 18.4966 45.3565 18.439C45.2163 18.4155 45.0993 18.3571 45.0061 18.2638C44.175 15.2458 43.3229 12.2326 42.4484 9.22427C42.1667 8.56621 41.7813 7.98228 41.2922 7.47243C41.6923 6.34256 42.0658 5.19805 42.4134 4.03882Z" fill="#32391F"/>
  <path fill-rule="evenodd" clip-rule="evenodd" d="M41.2922 7.47227C41.7813 7.98213 42.1668 8.56605 42.4484 9.22411C43.323 12.2324 44.1751 15.2456 45.0061 18.2636C44.9732 18.3472 44.9031 18.3939 44.7959 18.4038C44.4946 18.3479 44.1912 18.3246 43.885 18.3337C42.761 18.3016 41.6398 18.2199 40.5214 18.0884C39.1466 17.8353 37.7689 17.6018 36.3871 17.3877C35.8748 17.3217 35.3612 17.2866 34.8455 17.2826C31.8785 16.8417 28.8885 16.7132 25.876 16.8972C25.3007 16.9455 24.7401 17.0273 24.1943 17.1424C21.9274 17.4871 19.6619 17.8375 17.3971 18.1935C16.4848 18.3056 15.5738 18.434 14.6642 18.5789C12.3911 18.7061 10.1249 18.8812 7.8671 19.1045C7.04934 15.8087 6.21967 12.5153 5.37949 9.22411C5.33254 8.87374 5.33254 8.52338 5.37949 8.17301C5.62685 7.10789 6.29255 6.51226 7.37659 6.38613C18.0047 6.33939 28.632 6.33939 39.2601 6.38613C40.0407 6.56594 40.7176 6.92801 41.2922 7.47227Z" fill="#FEFEFE"/>
  <path fill-rule="evenodd" clip-rule="evenodd" d="M77.4502 23.5191C77.7886 24.0808 78.1979 24.5947 78.6765 25.0607C78.715 25.7432 78.4459 26.2687 77.8706 26.6374C77.755 26.68 77.638 26.715 77.5203 26.7425C77.2659 26.5232 77.0206 26.2896 76.7845 26.0417C76.0802 24.9623 75.4965 23.8177 75.0326 22.6081C74.5134 20.8377 74.7355 19.1793 75.6983 17.6329C76.2022 17.0913 76.7866 16.6826 77.4502 16.4066C76.0242 18.0063 75.7089 19.8165 76.5042 21.8373C76.7319 22.4568 77.0473 23.0174 77.4502 23.5191Z" fill="#DCCD92"/>
  <path fill-rule="evenodd" clip-rule="evenodd" d="M34.8454 17.2825C34.72 17.2626 34.6037 17.2859 34.495 17.3526C33.7235 18.3815 32.6956 19.0005 31.4118 19.2096C30.3782 19.6122 29.6424 20.3246 29.2045 21.3468C28.9824 21.5687 28.7609 21.7906 28.5388 22.0125C28.1029 22.3229 27.6362 22.3929 27.1373 22.2227C26.7274 21.8349 26.5053 21.356 26.4716 20.7862C26.4737 20.1385 26.3805 19.5078 26.1913 18.8942C26.0715 18.7359 25.9426 18.5841 25.8059 18.4388C25.3974 18.1526 24.9769 17.8841 24.5446 17.6329C24.415 17.4711 24.2979 17.3076 24.1942 17.1424C24.7401 17.0273 25.3007 16.9455 25.876 16.8971C28.8885 16.7132 31.8785 16.8417 34.8454 17.2825Z" fill="#E3E1DE"/>
  <path fill-rule="evenodd" clip-rule="evenodd" d="M24.1943 17.1423C24.298 17.3076 24.4151 17.471 24.5447 17.6328C24.9771 17.884 25.3975 18.1526 25.806 18.4387C25.9427 18.584 26.0716 18.7359 26.1914 18.8942C26.3806 19.5077 26.4738 20.1384 26.4717 20.7862C26.5054 21.3559 26.7275 21.8348 27.1374 22.2227C27.6363 22.3929 28.103 22.3228 28.5389 22.0125C28.761 21.7905 28.9825 21.5687 29.2046 21.3468C29.6426 20.3245 30.3783 19.6122 31.4119 19.2095C32.6957 19.0004 33.7236 18.3814 34.4952 17.3526C34.6038 17.2858 34.7201 17.2625 34.8455 17.2825C35.3613 17.2865 35.8749 17.3216 36.3871 17.3876C37.769 17.6017 39.1466 17.8352 40.5215 18.0883C41.6399 18.2198 42.761 18.3015 43.885 18.3336C44.145 18.4643 44.3552 18.6629 44.5157 18.9292C45.0181 19.2389 45.5086 19.5658 45.9872 19.9102C46.1652 20.0648 46.3173 20.2399 46.4427 20.4358C46.4897 20.5526 46.4897 20.6694 46.4427 20.7862C46.3124 21.0934 46.1834 21.397 46.0573 21.6971C46.4224 22.754 46.072 23.4431 45.0062 23.7643C44.7897 23.9056 44.6727 24.1041 44.6558 24.3599C44.7553 25.1485 45.1989 25.604 45.9872 25.7264C46.9185 25.8648 47.7244 25.6195 48.4048 24.9906C48.5856 24.6593 48.7257 24.309 48.8252 23.9395C48.8911 23.1231 48.938 22.3056 48.9654 21.4869C49.2267 20.1034 50.0564 19.4611 51.453 19.5599C51.6205 19.4763 51.7837 19.3945 51.9435 19.3146C52.1026 19.372 52.2665 19.4187 52.434 19.4548C54.5236 20.0617 56.5319 20.8675 58.4603 21.8723C59.4603 22.1153 60.3944 22.5124 61.2633 23.0636C61.8113 23.2823 62.3719 23.4574 62.9451 23.5891C63.4902 26.49 65.0781 28.6039 67.7101 29.9308C67.9385 30.0336 68.1718 30.1153 68.4108 30.176C68.4108 30.1994 68.4108 30.2228 68.4108 30.2461C68.326 31.3636 68.3379 32.4848 68.4458 33.6096C68.5853 34.8443 68.6792 36.0823 68.7261 37.3235C68.8418 38.9047 69.1452 40.446 69.6371 41.9484C70.1017 43.1453 70.5572 44.3365 71.0035 45.5222C71.0035 45.5691 71.0035 45.6154 71.0035 45.6623C70.848 45.7114 70.7197 45.8053 70.6181 45.9426C69.642 47.1058 68.614 48.227 67.5349 49.3061C66.8482 50.236 66.2876 51.2402 65.8531 52.3193C64.3991 54.1763 63.3711 56.2553 62.7699 58.5559C62.2878 59.511 61.9024 60.5032 61.6137 61.534C61.6186 61.5872 61.6417 61.6223 61.6837 61.6391C61.1673 62.2256 60.6067 62.7624 60.002 63.2508C59.6088 63.0973 59.2003 63.0273 58.7757 63.0406C58.1338 63.1015 57.4912 63.1128 56.8486 63.0756C56.2117 62.8885 56.0134 62.4793 56.253 61.8493C56.3932 61.5221 56.5333 61.1955 56.6735 60.8683C56.7204 60.588 56.7204 60.3077 56.6735 60.0274C56.3806 59.7737 56.0421 59.5986 55.6574 59.5019C55.3855 59.3729 55.1872 59.1739 55.0618 58.9062C55.0078 58.4353 55.0309 57.9679 55.1318 57.5048C55.2103 57.3121 55.3154 57.1369 55.4472 56.9792C55.8802 56.7508 56.3238 56.5405 56.7786 56.3485C57.1177 56.0676 57.3048 55.7053 57.3392 55.2624C57.3455 55.0935 57.2754 54.9653 57.1289 54.877C56.7078 54.8679 56.2874 54.8679 55.8676 54.877C55.6343 54.7369 55.4472 54.5498 55.307 54.3164C54.9798 54.1763 54.6532 54.1763 54.326 54.3164C54.0436 54.6226 53.7395 54.9029 53.415 55.1573C53.0549 55.207 52.7045 55.172 52.3639 55.0522C51.8482 55.1117 51.5097 55.392 51.3479 55.8931C51.3528 56.5476 51.3878 57.2013 51.453 57.8551C51.4299 57.8551 51.406 57.8551 51.3829 57.8551C51.3941 57.6435 51.3829 57.4333 51.3479 57.2245C51.1187 58.3611 50.8265 59.4822 50.4719 60.588C50.4488 60.6349 50.425 60.6812 50.4019 60.7281C49.9401 60.9503 49.4496 61.0785 48.9303 61.1136C48.5765 61.2341 48.3081 61.4555 48.1245 61.7793C47.9044 62.302 47.5891 62.7575 47.1785 63.1457C47.0327 63.2067 46.8807 63.2417 46.723 63.2508C46.2206 63.1723 45.7182 63.1022 45.2164 63.0406C44.4113 62.9936 44.0959 63.3671 44.2704 64.1618C44.4232 64.5254 44.6572 64.8289 44.9712 65.0727C44.995 65.318 44.9831 65.5632 44.9361 65.8085C44.9123 66.2058 45.0994 66.4392 45.4967 66.5092C45.9578 66.5541 46.4133 66.519 46.8632 66.4041C47.0404 66.4202 47.2156 66.4434 47.3887 66.4742C47.3887 66.5211 47.3887 66.5674 47.3887 66.6143C47.004 67.547 46.5716 68.458 46.0923 69.3472C46.0335 69.5112 45.9753 69.6745 45.9172 69.8377C45.92 69.9022 45.9438 69.9484 45.9872 69.9779C45.8548 70.378 45.8085 70.7984 45.8471 71.2392C45.7784 70.9967 45.7553 70.7396 45.777 70.4684C45.1828 70.4326 44.5984 70.4908 44.0252 70.6436C42.6482 71.153 41.2699 71.6554 39.8908 72.1502C39.799 71.839 39.7402 71.5118 39.7156 71.1691C39.7297 69.8524 39.6365 68.5449 39.4353 67.245C39.2041 66.4146 39.0177 65.5737 38.8748 64.7223C38.7886 64.4624 38.6603 64.229 38.4894 64.0216C37.8426 62.4933 37.6324 60.9047 37.8587 59.2566C37.6394 57.9357 37.6982 56.6274 38.0339 55.3325C38.207 54.8455 38.4522 54.4019 38.7696 54.0011C38.7577 53.978 38.7465 53.9541 38.7346 53.931C38.6772 54.0235 38.5959 54.0704 38.4894 54.0712C38.5973 53.2975 38.387 52.6318 37.8587 52.0741C37.3612 51.8183 36.8475 51.772 36.3171 51.9339C35.9324 52.3649 35.6871 52.8666 35.5813 53.4405C35.4664 53.6143 35.3374 53.7775 35.1959 53.931C34.6535 54.1251 34.1168 54.1132 33.5842 53.896C33.6641 53.5162 33.676 53.1308 33.6192 52.7397C33.3999 52.1806 32.9914 51.9823 32.3929 52.1441C32.0391 52.3116 31.7237 52.5337 31.447 52.8098C29.7729 55.2309 27.5887 57.0416 24.8951 58.2405C23.8524 58.6596 22.7781 58.7759 21.6717 58.5909C21.1833 58.4669 20.6927 58.3498 20.2001 58.2405C19.8435 58.1824 19.4931 58.2062 19.149 58.3106C18.9738 58.3926 18.8456 58.5208 18.7636 58.696C18.7405 59.1396 18.7167 59.5838 18.6935 60.0274C18.6578 60.0996 18.6228 60.1697 18.5884 60.2376C17.8393 57.3352 17.0685 54.439 16.276 51.5485C15.7217 49.1688 15.1149 46.8094 14.4541 44.4711C14.1212 42.9056 13.7239 41.364 13.2628 39.8462C12.7086 37.4663 12.1017 35.1071 11.4409 32.7688C11.0436 31.087 10.647 29.4052 10.2497 27.7235C11.0786 27.1611 11.8375 26.5071 12.5271 25.7614C12.9328 25.1923 13.3644 24.6434 13.8234 24.1147C14.6699 23.5019 15.4758 22.8362 16.241 22.1176C16.6775 21.5011 16.9809 20.8237 17.1519 20.0854C17.25 19.4562 17.332 18.8255 17.3972 18.1934C19.662 17.8374 21.9274 17.487 24.1943 17.1423Z" fill="#7A573F"/>
  <path fill-rule="evenodd" clip-rule="evenodd" d="M89.5731 19.0343C90.1946 21.0746 89.9263 22.99 88.7672 24.7804C88.4841 25.1688 88.1457 25.4957 87.7512 25.7614C87.6173 25.7211 87.5003 25.651 87.4008 25.5512C87.1205 25.3409 86.8402 25.1307 86.5599 24.9205C87.5431 23.9135 88.22 22.7222 88.5921 21.3467C88.9389 19.7896 88.5647 18.4348 87.4709 17.2825C88.3055 17.6602 89.0062 18.2442 89.5731 19.0343Z" fill="#B1A575"/>
  <path fill-rule="evenodd" clip-rule="evenodd" d="M75.6984 17.6332C74.7355 19.1796 74.5134 20.838 75.0327 22.6084C75.4965 23.818 76.0803 24.9625 76.7845 26.042C77.0206 26.2899 77.2659 26.5235 77.5203 26.7428C77.1748 26.8414 76.8244 26.8297 76.4692 26.7077C75.9569 26.1342 75.4895 25.5385 75.0677 24.9208C74.8897 24.4478 74.6914 23.9807 74.4721 23.5194C73.6151 21.2745 74.0243 19.3124 75.6984 17.6332Z" fill="#B2A676"/>
  <path fill-rule="evenodd" clip-rule="evenodd" d="M17.3971 18.1938C17.3319 18.8259 17.2499 19.4566 17.1518 20.0858C16.9808 20.8241 16.6774 21.5015 16.2408 22.118C15.4756 22.8366 14.6698 23.5023 13.8233 24.1151C13.3643 24.6438 12.9327 25.1927 12.5269 25.7618C11.8374 26.5075 11.0785 27.1615 10.2495 27.7239C10.2026 27.7706 10.1563 27.8173 10.1094 27.864C9.39464 24.9343 8.64695 22.0146 7.86703 19.1048C10.1248 18.8816 12.391 18.7064 14.6642 18.5793C15.5737 18.4343 16.4847 18.3059 17.3971 18.1938Z" fill="#E3E0DE"/>
  <path fill-rule="evenodd" clip-rule="evenodd" d="M45.0061 18.2637C45.0993 18.357 45.2163 18.4154 45.3564 18.4389C45.8827 18.4965 46.397 18.4848 46.8981 18.4038C47.472 18.5234 48.0564 18.5935 48.6499 18.614C48.9519 18.6683 49.256 18.715 49.5609 18.7542C50.373 18.8976 51.1669 19.0845 51.9434 19.3148C51.7836 19.3947 51.6203 19.4764 51.4529 19.56C50.0563 19.4612 49.2266 20.1036 48.9652 21.4871C48.9379 22.3057 48.891 23.1232 48.8251 23.9396C48.7256 24.3091 48.5854 24.6595 48.4046 24.9907C47.7242 25.6197 46.9184 25.8649 45.9871 25.7265C45.1988 25.6042 44.7552 25.1487 44.6557 24.3601C44.6725 24.1042 44.7895 23.9057 45.0061 23.7645C46.0719 23.4433 46.4223 22.7542 46.0572 21.6973C46.1833 21.3972 46.3122 21.0935 46.4426 20.7863C46.4895 20.6695 46.4895 20.5528 46.4426 20.436C46.3172 20.2401 46.1651 20.0649 45.9871 19.9104C45.5085 19.566 45.018 19.239 44.5156 18.9294C44.3551 18.663 44.1449 18.4644 43.8849 18.3337C44.1911 18.3246 44.4945 18.348 44.7959 18.4038C44.9031 18.394 44.9731 18.3473 45.0061 18.2637Z" fill="#E2E0DE"/>
  <path fill-rule="evenodd" clip-rule="evenodd" d="M89.573 19.0345C90.0228 19.5609 90.3269 20.1682 90.4839 20.8565C90.6079 21.6624 90.561 22.4566 90.3438 23.239C90.2947 23.445 90.2246 23.6435 90.1335 23.8346C90.1749 23.8671 90.2218 23.8788 90.2737 23.8696C90.2239 23.933 90.1539 23.9563 90.0635 23.9397C89.7341 24.9277 89.1974 25.7686 88.4518 26.4624C88.1967 26.254 87.9634 26.0205 87.751 25.7616C88.1456 25.496 88.484 25.169 88.7671 24.7806C89.9261 22.9902 90.1945 21.0749 89.573 19.0345Z" fill="#978C64"/>
  <path fill-rule="evenodd" clip-rule="evenodd" d="M83.4765 22.2578C84.2501 22.8555 84.974 23.5212 85.6488 24.2549C85.9298 24.5118 86.2332 24.7337 86.5598 24.9206C86.8401 25.1309 87.1204 25.3411 87.4007 25.5513C87.4252 26.1397 87.4953 26.7237 87.6109 27.3031C87.5408 27.7691 87.5289 28.2362 87.5758 28.7046C87.9367 29.7292 88.2759 30.7569 88.5919 31.7879C88.629 32.1733 88.4658 32.3251 88.1014 32.2433C87.9732 32.1616 87.8442 32.0799 87.716 31.9981C87.3341 31.2423 86.8436 30.5649 86.2444 29.9659C85.3853 28.3824 84.1121 27.2729 82.4254 26.6374C81.8445 26.0896 81.19 25.6458 80.4634 25.306C80.2882 25.1309 80.113 24.9557 79.9378 24.7805C79.6877 24.0503 79.4424 23.3261 79.202 22.6082C80.1186 22.1933 81.0877 21.9597 82.1101 21.9075C82.5873 21.9461 83.0428 22.0628 83.4765 22.2578Z" fill="#E3E0DE"/>
  <path fill-rule="evenodd" clip-rule="evenodd" d="M72.5451 25.7615C72.5038 25.8072 72.4568 25.8539 72.405 25.9017C72.8205 26.5218 73.1821 27.1759 73.4911 27.8638C73.5451 28.3173 73.51 28.7611 73.386 29.1952C72.5745 27.9275 71.5935 26.7946 70.4429 25.7966C69.602 25.1074 68.6441 24.6636 67.5699 24.4652C67.1025 24.4184 66.6358 24.4184 66.1684 24.4652C65.8797 24.5094 65.6464 24.6378 65.4677 24.8506C66.5671 27.6788 68.553 29.5708 71.4239 30.5266C71.1163 30.5025 70.8122 30.4558 70.513 30.3864C69.8424 30.1955 69.1879 29.9619 68.5509 29.6857C66.1705 28.5717 64.816 26.7031 64.4866 24.0798C64.3962 24.0964 64.3262 24.0731 64.2764 24.0097C64.3934 23.7919 64.4635 23.5467 64.4866 23.2739C67.7114 22.0402 70.3042 22.8461 72.2648 25.6915C72.3482 25.7566 72.4414 25.7799 72.5451 25.7615Z" fill="#A9744D"/>
  <path fill-rule="evenodd" clip-rule="evenodd" d="M79.2022 22.6084C79.4425 23.3263 79.6878 24.0504 79.938 24.7807C80.1132 24.9559 80.2883 25.131 80.4635 25.3062C81.1902 25.646 81.8447 26.0898 82.4256 26.6376C84.1123 27.2731 85.3855 28.3826 86.2446 29.9661C86.8437 30.5651 87.3342 31.2425 87.7161 31.9983C87.8444 32.08 87.9733 32.1617 88.1015 32.2435C88.4659 32.3253 88.6292 32.1735 88.5921 31.788C88.276 30.7571 87.9369 29.7294 87.576 28.7048C87.529 28.2364 87.541 27.7693 87.611 27.3033C87.4954 26.7239 87.4253 26.1399 87.4008 25.5515C87.5003 25.6513 87.6173 25.7214 87.7512 25.7617C87.9635 26.0206 88.1968 26.2541 88.4519 26.4624C88.5907 26.5772 88.7308 26.694 88.8724 26.8128C89.4063 27.4757 89.9557 28.1298 90.5191 28.7749C90.7615 29.1437 90.9837 29.5174 91.1848 29.8961C91.6424 30.9227 91.7944 31.9971 91.6403 33.1194C91.2689 34.549 91.3509 35.9505 91.8855 37.3239C91.9157 37.5101 91.9857 37.6736 92.0957 37.8144C92.1105 38.0065 92.1805 38.1699 92.306 38.3049C92.4903 38.8606 92.7474 39.3744 93.0768 39.8465C93.2358 40.1892 93.4461 40.4933 93.7074 40.7575C94.6275 42.0643 95.6436 43.3018 96.7556 44.4714C96.9505 44.6781 97.1025 44.9114 97.2111 45.1721C97.1572 45.2177 97.0871 45.2408 97.0009 45.2422C95.4985 45.17 94.0508 44.8547 92.6563 44.2962C91.9072 44.1981 91.1596 44.2212 90.414 44.3663C89.6929 44.5968 89.1674 45.0523 88.8373 45.7327C88.7343 46.0649 88.6173 46.3921 88.487 46.7137C88.405 46.7957 88.3237 46.877 88.2417 46.959C87.8689 47.0991 87.4947 47.2393 87.1205 47.3794C86.9923 47.5077 86.8633 47.6366 86.7351 47.7648C86.6798 48.3226 86.5515 48.8594 86.3497 49.3765C85.4549 48.9694 84.5208 48.6891 83.5468 48.5356C81.3997 47.5672 79.3437 46.4341 77.3803 45.1371C76.4182 44.5246 75.3671 44.1855 74.227 44.121C73.7498 44.1308 73.2824 44.2009 72.8255 44.3312C72.8024 44.3312 72.7785 44.3312 72.7554 44.3312C72.4667 43.5702 72.1976 42.7994 71.9496 42.0188C71.5046 40.0007 71.1304 37.9683 70.8284 35.9224C70.7156 34.1949 70.6105 32.4665 70.5131 30.7369C70.5131 30.6201 70.5131 30.5034 70.5131 30.3866C70.8123 30.4559 71.1164 30.5026 71.424 30.5267C71.7884 30.6496 72.1626 30.6847 72.5452 30.6318C73.0133 30.2674 73.2936 29.7885 73.3861 29.1953C73.5101 28.7612 73.5451 28.3174 73.4912 27.8639C73.1822 27.1761 72.8206 26.522 72.4051 25.9019C72.4569 25.8541 72.5039 25.8073 72.5452 25.7617C73.4274 25.6078 74.2683 25.3275 75.0678 24.9208C75.4897 25.5385 75.9571 26.1342 76.4693 26.7077C76.8246 26.8297 77.175 26.8414 77.5204 26.7427C77.6382 26.7153 77.7552 26.6802 77.8708 26.6376C78.4461 26.269 78.7152 25.7434 78.6766 25.061C78.198 24.5949 77.7888 24.0811 77.4504 23.5194C78.0004 23.1623 78.5848 22.8587 79.2022 22.6084Z" fill="#7A573F"/>
  <path fill-rule="evenodd" clip-rule="evenodd" d="M88.592 21.3468C88.2199 22.7223 87.543 23.9135 86.5599 24.9206C86.2333 24.7336 85.9299 24.5117 85.6489 24.2549C84.9741 23.5211 84.2502 22.8554 83.4766 22.2578C84.2706 22.2578 85.0652 22.2578 85.8591 22.2578C85.8591 22.0943 85.8591 21.9307 85.8591 21.7672C86.3265 21.7672 86.7932 21.7672 87.2606 21.7672C87.2606 21.6271 87.2606 21.4869 87.2606 21.3468C87.7042 21.3468 88.1484 21.3468 88.592 21.3468Z" fill="#E5F0E8"/>
  <path fill-rule="evenodd" clip-rule="evenodd" d="M62.945 23.5892C63.3878 23.7291 63.8321 23.8692 64.2764 24.0097C64.3261 24.073 64.3962 24.0964 64.4866 24.0797C64.8159 26.7031 66.1705 28.5717 68.5509 29.6856C68.5074 29.6934 68.4724 29.7168 68.4457 29.7557C68.4107 29.894 68.3995 30.0341 68.4107 30.1762C68.1718 30.1154 67.9384 30.0337 67.71 29.9309C65.078 28.6041 63.4901 26.4901 62.945 23.5892Z" fill="#875D3E"/>
  <path fill-rule="evenodd" clip-rule="evenodd" d="M91.5351 23.7997C92.7187 24.0297 93.5834 24.6837 94.1279 25.7617C94.1328 25.7924 94.1208 25.8158 94.0928 25.8318C93.5589 25.1805 92.8932 24.725 92.0957 24.4654C91.3775 24.3587 90.7468 24.5456 90.2037 25.026C89.6817 25.5701 89.2381 26.1657 88.8723 26.8128C88.7308 26.694 88.5906 26.5772 88.4519 26.4625C89.1975 25.7688 89.7342 24.9279 90.0636 23.9398C90.154 23.9564 90.2241 23.9331 90.2738 23.8698C90.69 23.8058 91.1105 23.7824 91.5351 23.7997Z" fill="#916443"/>
  <path fill-rule="evenodd" clip-rule="evenodd" d="M73.3861 29.1953C73.2936 29.7885 73.0133 30.2674 72.5452 30.6318C72.1626 30.6847 71.7884 30.6496 71.424 30.5267C68.5531 29.571 66.5672 27.679 65.4678 24.8508C65.6464 24.638 65.8798 24.5096 66.1685 24.4654C66.6359 24.4186 67.1026 24.4186 67.57 24.4654C68.6442 24.6638 69.6021 25.1076 70.443 25.7968C71.5936 26.7947 72.5746 27.9276 73.3861 29.1953Z" fill="#C5A187"/>
  <path fill-rule="evenodd" clip-rule="evenodd" d="M94.1278 25.7616C94.214 25.8623 94.2841 25.9791 94.338 26.112C93.7116 27.7459 92.6605 29.0072 91.1847 29.8959C90.9836 29.5173 90.7615 29.1435 90.519 28.7748C89.9556 28.1297 89.4062 27.4756 88.8723 26.8127C89.2381 26.1656 89.6816 25.5699 90.2037 25.0258C90.7467 24.5455 91.3774 24.3586 92.0957 24.4652C92.8931 24.7248 93.5588 25.1803 94.0928 25.8317C94.1208 25.8157 94.1327 25.7923 94.1278 25.7616Z" fill="#B19179"/>
  <path fill-rule="evenodd" clip-rule="evenodd" d="M4.64377 0.674927C4.64377 0.721666 4.66689 0.745 4.71384 0.745C4.19319 0.97288 3.73771 1.29991 3.3474 1.72603C2.50231 2.969 2.26897 4.3238 2.64667 5.7903C8.52024 28.6784 14.3714 51.5694 20.2001 74.4625C20.2169 74.5529 20.1931 74.623 20.13 74.6727C14.2775 51.7299 8.40322 28.7924 2.50652 5.86038C2.13513 4.44958 2.31031 3.11819 3.03207 1.86618C3.46863 1.3367 4.0061 0.939595 4.64377 0.674927Z" fill="#E9D66A"/>
  <path fill-rule="evenodd" clip-rule="evenodd" d="M79.132 26.0417C79.1271 26.6485 78.8938 27.1741 78.4313 27.6184C77.7235 27.916 77.0698 27.8226 76.4692 27.3381C77.336 27.5408 78.0956 27.3423 78.7466 26.7425C78.9302 26.5389 79.0585 26.3053 79.132 26.0417Z" fill="#865C3E"/>
  <path fill-rule="evenodd" clip-rule="evenodd" d="M55.3069 26.1121C57.4547 27.8302 58.8912 30.0259 59.6164 32.699C60.4636 36.1521 60.5799 39.6328 59.9668 43.14C60.0747 39.131 59.491 35.2303 58.215 31.4377C57.5156 29.5014 56.5465 27.7262 55.3069 26.1121Z" fill="#865C3E"/>
  <path fill-rule="evenodd" clip-rule="evenodd" d="M29.5199 28.144C30.5619 28.1071 31.5898 28.2122 32.6031 28.4594C35.4901 29.3431 38.387 30.184 41.2922 30.982C44.8604 32.2213 45.9234 34.5921 44.4806 38.0945C44.3229 38.2927 44.1828 38.5029 44.0602 38.7252C43.0287 39.3889 42.6552 40.3228 42.939 41.5281C43.4757 43.7726 42.81 45.5594 40.9419 46.8887C39.5888 47.5664 38.1873 47.7065 36.7375 47.3092C35.9793 46.9469 35.5007 46.3513 35.3009 45.5223C35.1019 44.584 34.7747 43.6962 34.3199 42.8595C33.7796 42.1427 33.067 41.8504 32.1827 41.9836C31.5429 42.1378 30.9122 42.3248 30.2907 42.5442C29.3825 42.877 28.6937 42.6318 28.2235 41.8084C28.0869 41.4692 27.9937 41.1189 27.9432 40.7573C27.9026 39.9858 27.9138 39.2151 27.9783 38.4449C28.0322 37.4207 27.6587 36.5915 26.8571 35.9573C26.1598 35.4976 25.4941 34.9954 24.86 34.4507C24.2524 33.7916 24.1123 33.0442 24.4395 32.2083C25.4857 30.0236 27.1794 28.6689 29.5199 28.144Z" fill="#E3E1DF"/>
  <path fill-rule="evenodd" clip-rule="evenodd" d="M10.2496 27.7234C10.6469 29.4052 11.0435 31.0869 11.4409 32.7687C10.9763 31.1456 10.5327 29.5105 10.1095 27.8635C10.1564 27.8168 10.2027 27.7701 10.2496 27.7234Z" fill="#BCB3A6"/>
  <path fill-rule="evenodd" clip-rule="evenodd" d="M81.4445 28.4946C82.2006 28.5166 82.7492 28.8669 83.0912 29.5457C83.677 30.6261 84.0512 31.7706 84.2124 32.9793C83.9139 31.7626 83.3182 30.7232 82.4255 29.8611C81.6953 29.4208 80.9946 29.4675 80.3233 30.0012C79.7704 30.4844 79.2911 31.0333 78.8868 31.6479C79.2778 30.6239 79.8734 29.7246 80.6737 28.9501C80.9259 28.7777 81.1824 28.6259 81.4445 28.4946Z" fill="#865C3E"/>
  <path fill-rule="evenodd" clip-rule="evenodd" d="M68.551 29.6855C69.1879 29.9618 69.8424 30.1954 70.513 30.3863C70.513 30.5031 70.513 30.6198 70.513 30.7367C69.7934 30.6442 69.0926 30.4807 68.4108 30.2461C68.4108 30.2228 68.4108 30.1994 68.4108 30.1761C68.3996 30.034 68.4108 29.8939 68.4459 29.7556C68.4725 29.7167 68.5075 29.6933 68.551 29.6855Z" fill="#3E6081"/>
  <path fill-rule="evenodd" clip-rule="evenodd" d="M68.4108 30.2462C69.0926 30.4808 69.7933 30.6443 70.513 30.7367C70.6104 32.4663 70.7155 34.1947 70.8283 35.9222C71.1303 37.9681 71.5045 40.0005 71.9495 42.0186C72.1976 42.7992 72.4667 43.57 72.7554 44.331C72.1156 44.64 71.5319 45.0367 71.0035 45.5223C70.5571 44.3366 70.1017 43.1454 69.6371 41.9485C69.1452 40.4461 68.8417 38.9048 68.7261 37.3237C68.6792 36.0824 68.5853 34.8444 68.4458 33.6098C68.3379 32.4849 68.326 31.3637 68.4108 30.2462Z" fill="#4D7EAC"/>
  <path fill-rule="evenodd" clip-rule="evenodd" d="M80.4635 32.2084C81.6113 32.1164 82.4753 32.5602 83.0562 33.5398C82.387 33.8444 81.6863 33.9496 80.954 33.8551C80.268 33.712 79.8475 33.3033 79.6927 32.6288C79.9232 32.432 80.1797 32.2918 80.4635 32.2084Z" fill="#2C180F"/>
  <path fill-rule="evenodd" clip-rule="evenodd" d="M78.4313 32.9791C78.9393 33.7369 79.3948 34.531 79.7977 35.3616C80.0451 35.6327 80.3142 35.878 80.6036 36.0974C81.0107 36.2515 81.408 36.2281 81.7948 36.0273C82.5944 35.5549 83.2601 34.9359 83.7919 34.1704C83.8137 34.5259 83.7205 34.8529 83.5116 35.1514C83.1515 35.766 82.6729 36.2682 82.0751 36.658C80.6716 37.3274 79.6555 36.9653 79.0269 35.5719C78.7207 34.734 78.5217 33.8698 78.4313 32.9791Z" fill="#865C3E"/>
  <path fill-rule="evenodd" clip-rule="evenodd" d="M11.441 32.769C12.1018 35.1074 12.7086 37.4666 13.2629 39.8465C12.5804 37.5141 11.9728 35.155 11.441 32.769Z" fill="#BEB5A9"/>
  <path fill-rule="evenodd" clip-rule="evenodd" d="M56.288 35.8521C57.8969 38.6709 58.7848 41.7074 58.9508 44.9616C59.0069 47.3792 58.3181 49.5515 56.8837 51.4785C56.6734 51.6887 56.4632 51.8989 56.253 52.1091C57.4099 49.946 57.9817 47.6216 57.9698 45.1368C57.8745 41.9569 57.3139 38.8618 56.288 35.8521Z" fill="#865C3E"/>
  <path fill-rule="evenodd" clip-rule="evenodd" d="M3.03214 1.86652C2.31038 3.11853 2.1352 4.44993 2.50659 5.86072C8.40329 28.7927 14.2776 51.7302 20.1301 74.673C20.107 74.673 20.0832 74.673 20.06 74.673C14.164 51.7435 8.26594 28.8063 2.36644 5.86072C2.26343 5.04562 2.24031 4.22814 2.29637 3.40814C2.43231 2.90249 2.60749 2.41197 2.82192 1.93659C2.87237 1.80472 2.94245 1.78138 3.03214 1.86652Z" fill="#ECEBDC"/>
  <path fill-rule="evenodd" clip-rule="evenodd" d="M13.2629 39.8466C13.724 41.3644 14.1213 42.906 14.4541 44.4714C13.993 42.9536 13.5957 41.412 13.2629 39.8466Z" fill="#C0B7AC"/>
  <path fill-rule="evenodd" clip-rule="evenodd" d="M83.5467 48.5355C82.9398 48.4941 82.333 48.4591 81.7248 48.4304C81.2062 48.3512 80.7157 48.1872 80.2532 47.9399C79.4586 47.3786 78.6177 46.8881 77.7306 46.4683C76.3782 45.9757 75.0236 45.9638 73.6663 46.4333C73.3475 45.7487 73.0672 45.0479 72.8254 44.3311C73.2823 44.2007 73.7497 44.1307 74.2269 44.1208C75.367 44.1853 76.4181 44.5245 77.3802 45.1369C79.3437 46.434 81.3996 47.5671 83.5467 48.5355Z" fill="#875D3F"/>
  <path fill-rule="evenodd" clip-rule="evenodd" d="M97.2111 45.1719C97.6056 45.7135 97.7346 46.3211 97.5965 46.9938C97.1018 48.2887 96.413 49.4562 95.5293 50.4975C94.8882 50.4947 94.2575 50.4134 93.6374 50.2522C92.2422 49.7484 90.8407 49.2579 89.4329 48.7807C88.9088 48.5417 88.3951 48.3084 87.8913 48.0799C88.625 48.7393 89.442 49.2761 90.3439 49.6916C91.1252 49.8668 91.896 50.077 92.6563 50.3223C93.3381 50.6628 94.0151 51.002 94.6885 51.3383C94.2035 51.6614 93.6661 51.7665 93.0768 51.6537C92.3921 51.4168 91.7152 51.1597 91.0446 50.8829C90.1743 50.7476 89.3103 50.5844 88.4519 50.3924C87.7189 50.1079 87.0182 49.7687 86.3497 49.3763C86.5515 48.8591 86.6797 48.3224 86.7351 47.7646C86.8633 47.6364 86.9923 47.5074 87.1205 47.3792C87.4947 47.239 87.8689 47.0989 88.2417 46.9587C88.3237 46.8768 88.405 46.7955 88.4869 46.7135C88.6173 46.3918 88.7343 46.0646 88.8373 45.7325C89.1674 45.052 89.6929 44.5966 90.414 44.366C91.1595 44.221 91.9072 44.1978 92.6563 44.2959C94.0508 44.8544 95.4985 45.1698 97.0009 45.2419C97.0871 45.2405 97.1572 45.2174 97.2111 45.1719Z" fill="#B48765"/>
  <path fill-rule="evenodd" clip-rule="evenodd" d="M72.7553 44.3309C72.7784 44.3309 72.8023 44.3309 72.8254 44.3309C73.0671 45.0478 73.3474 45.7485 73.6663 46.4331C72.9929 46.7464 72.3384 47.0967 71.7042 47.4842C71.4842 46.8711 71.2508 46.2643 71.0035 45.6623C71.0035 45.6154 71.0035 45.5691 71.0035 45.5222C71.5318 45.0366 72.1155 44.64 72.7553 44.3309Z" fill="#3B5F83"/>
  <path fill-rule="evenodd" clip-rule="evenodd" d="M63.0151 44.6113C63.7712 47.5509 63.4558 50.377 62.0691 53.0902C61.1532 54.6017 59.9269 55.793 58.3902 56.664C60.8337 54.3467 62.294 51.4736 62.7698 48.0449C62.9534 46.9076 63.0354 45.7633 63.0151 44.6113Z" fill="#865C3E"/>
  <path fill-rule="evenodd" clip-rule="evenodd" d="M71.0035 45.6625C71.2509 46.2644 71.4842 46.8712 71.7042 47.4844C69.2811 49.3841 67.4711 51.7666 66.2735 54.6319C65.4383 56.0453 64.6205 57.4699 63.821 58.9064C63.198 59.8909 62.4861 60.8019 61.6837 61.6393C61.6417 61.6225 61.6185 61.5874 61.6136 61.5342C61.9023 60.5034 62.2877 59.5111 62.7699 58.556C63.3711 56.2555 64.3991 54.1764 65.8531 52.3195C66.2876 51.2403 66.8481 50.2362 67.5349 49.3063C68.614 48.2272 69.642 47.106 70.6181 45.9428C70.7197 45.8054 70.8479 45.7115 71.0035 45.6625Z" fill="#875D3E"/>
  <path fill-rule="evenodd" clip-rule="evenodd" d="M92.3761 46.0129C93.0292 45.9155 93.5428 46.1369 93.9177 46.6786C94.205 46.72 94.4734 46.8019 94.7235 46.9239C94.9218 47.4263 94.8167 47.8587 94.4082 48.2202C94.2996 48.3106 94.1826 48.3576 94.0578 48.3604C94.3949 47.9357 94.3248 47.6085 93.8476 47.3793C93.404 47.3324 92.9598 47.3324 92.5162 47.3793C91.9108 47.6751 91.8176 48.0717 92.2359 48.5706C91.8736 48.661 91.5583 48.5797 91.2899 48.3253C91.0986 47.9007 91.2037 47.5622 91.6053 47.3093C92.0853 47.1089 92.2836 46.7473 92.2009 46.2231C92.2738 46.1622 92.3326 46.0921 92.3761 46.0129Z" fill="#442516"/>
  <path fill-rule="evenodd" clip-rule="evenodd" d="M14.454 44.4712C15.1148 46.8095 15.7216 49.1689 16.2759 51.5486C15.5934 49.2166 14.9858 46.8572 14.454 44.4712Z" fill="#BEB5A9"/>
  <path fill-rule="evenodd" clip-rule="evenodd" d="M95.5293 50.4977C95.319 50.8481 95.0387 51.1284 94.6884 51.3386C94.015 51.0023 93.3381 50.6631 92.6562 50.3226C91.8959 50.0773 91.1251 49.8671 90.3438 49.6919C89.442 49.2764 88.6249 48.7396 87.8912 48.0802C88.3951 48.3086 88.9087 48.542 89.4329 48.7809C90.8406 49.2581 92.2421 49.7487 93.6373 50.2525C94.2574 50.4137 94.8881 50.4949 95.5293 50.4977Z" fill="#462617"/>
  <path fill-rule="evenodd" clip-rule="evenodd" d="M38.4893 54.0712C38.1642 54.6906 37.8488 55.3213 37.5433 55.9632C37.1992 56.9905 37.0941 58.0416 37.228 59.1165C36.6534 60.4192 36.5132 61.7737 36.8075 63.1808C35.7116 62.6678 34.5904 62.2123 33.444 61.8143C32.2948 61.5249 31.1267 61.361 29.9403 61.3238C27.6615 61.1991 25.396 61.3161 23.1432 61.6742C21.8132 62.0477 20.4818 62.4093 19.149 62.7603C18.9065 61.9531 18.6963 61.1353 18.5183 60.3077C18.5653 60.3077 18.5884 60.2846 18.5884 60.2377C18.6227 60.1697 18.6577 60.0996 18.6935 60.0274C18.7166 59.5839 18.7404 59.1396 18.7636 58.696C18.8455 58.5209 18.9738 58.3926 19.149 58.3106C19.493 58.2062 19.8434 58.1824 20.2001 58.2406C20.6927 58.3499 21.1832 58.4669 21.6716 58.5909C22.7781 58.7759 23.8523 58.6596 24.895 58.2406C27.5886 57.0416 29.7728 55.2309 31.4469 52.8099C31.7237 52.5338 32.039 52.3116 32.3929 52.1442C32.9913 51.9823 33.3998 52.1806 33.6192 52.7398C33.6759 53.1308 33.664 53.5162 33.5841 53.896C34.1167 54.1132 34.6535 54.1251 35.1958 53.931C35.3374 53.7776 35.4663 53.6143 35.5812 53.4405C35.687 52.8666 35.9323 52.3649 36.317 51.9339C36.8475 51.7721 37.3611 51.8183 37.8586 52.0741C38.387 52.6319 38.5972 53.2976 38.4893 54.0712Z" fill="#E3E1DF"/>
  <path fill-rule="evenodd" clip-rule="evenodd" d="M60.002 63.2512C59.9593 63.3135 59.9362 63.3836 59.932 63.4614C59.8416 63.3913 59.7484 63.4032 59.6517 63.4964C59.2551 63.8118 58.8346 64.0921 58.3903 64.3373C58.3378 64.3843 58.314 64.4424 58.3203 64.5125C57.5985 64.8264 56.8747 65.1418 56.148 65.4585C53.6751 66.3176 51.1293 66.6799 48.51 66.5446C48.6873 66.4977 48.8736 66.4514 49.0706 66.4045C50.5372 63.9897 51.355 61.3732 51.5231 58.5562C51.5203 58.3166 51.4972 58.0832 51.4531 57.8555C51.3879 57.2017 51.3529 56.5479 51.3479 55.8934C51.5098 55.3924 51.8483 55.1121 52.364 55.0526C52.7046 55.1724 53.0549 55.2074 53.4151 55.1577C53.7396 54.9033 54.0437 54.623 54.3261 54.3168C54.6533 54.1766 54.9799 54.1766 55.3071 54.3168C55.4473 54.5501 55.6344 54.7372 55.8677 54.8774C56.2874 54.8683 56.7079 54.8683 57.129 54.8774C57.2755 54.9657 57.3456 55.0939 57.3392 55.2628C57.3049 55.7056 57.1178 56.0679 56.7787 56.3489C56.3239 56.5409 55.8803 56.7511 55.4473 56.9796C55.3155 57.1372 55.2104 57.3124 55.1319 57.5051C55.031 57.9683 55.0079 58.4357 55.0619 58.9066C55.1873 59.1743 55.3856 59.3733 55.6575 59.5022C56.0422 59.5989 56.3806 59.7741 56.6735 60.0278C56.7205 60.3081 56.7205 60.5884 56.6735 60.8687C56.5334 61.1959 56.3932 61.5225 56.2531 61.8497C56.0135 62.4797 56.2118 62.8889 56.8487 63.076C57.4913 63.1131 58.1339 63.1019 58.7758 63.041C59.2004 63.0276 59.6089 63.0977 60.002 63.2512Z" fill="#E3E1DE"/>
  <path fill-rule="evenodd" clip-rule="evenodd" d="M38.4895 64.022C38.2323 63.823 37.952 63.6597 37.6486 63.5315C37.3473 63.4509 37.067 63.3339 36.8077 63.1811C36.5134 61.774 36.6535 60.4195 37.2281 59.1168C37.0943 58.0419 37.1994 56.9908 37.5435 55.9635C37.849 55.3217 38.1643 54.691 38.4895 54.0715C38.596 54.0708 38.6773 54.0239 38.7347 53.9314C38.7466 53.9545 38.7579 53.9783 38.7698 54.0015C38.4523 54.4023 38.2071 54.8459 38.034 55.3329C37.6983 56.6278 37.6395 57.9361 37.8588 59.257C37.6325 60.9051 37.8427 62.4937 38.4895 64.022Z" fill="#553F31"/>
  <path fill-rule="evenodd" clip-rule="evenodd" d="M51.383 57.8552C51.3213 58.5075 51.205 59.1501 51.0326 59.7822C50.9051 60.0968 50.718 60.3659 50.472 60.588C50.8266 59.4823 51.1188 58.3611 51.348 57.2245C51.383 57.4333 51.3942 57.6435 51.383 57.8552Z" fill="#564032"/>
  <path fill-rule="evenodd" clip-rule="evenodd" d="M51.3829 57.8551C51.406 57.8551 51.4299 57.8551 51.453 57.8551C51.4971 58.0828 51.5203 58.3162 51.5231 58.5558C51.3549 61.3728 50.5371 63.9894 49.0705 66.4041C48.8736 66.451 48.6872 66.4973 48.5099 66.5442C48.1294 66.5246 47.7559 66.5477 47.3887 66.6143C47.3887 66.5674 47.3887 66.5211 47.3887 66.4742C48.7089 64.7391 49.7131 62.8233 50.4019 60.7281C50.425 60.6812 50.4488 60.6349 50.472 60.588C50.7179 60.3658 50.905 60.0968 51.0326 59.7821C51.2049 59.1501 51.3213 58.5075 51.3829 57.8551Z" fill="#949290"/>
  <path fill-rule="evenodd" clip-rule="evenodd" d="M16.2759 51.5487C17.0684 54.4392 17.8392 57.3354 18.5883 60.2378C18.5883 60.2848 18.5652 60.3079 18.5182 60.3079C17.7173 57.409 16.9703 54.489 16.2759 51.5487Z" fill="#BCB3A7"/>
  <path fill-rule="evenodd" clip-rule="evenodd" d="M50.4019 60.7285C49.7131 62.8237 48.7089 64.7395 47.3887 66.4746C47.2157 66.4437 47.0405 66.4206 46.8632 66.4045C46.4133 66.5194 45.9578 66.5544 45.4967 66.5096C45.0994 66.4395 44.9123 66.2062 44.9362 65.8089C44.9831 65.5636 44.995 65.3183 44.9712 65.0731C44.6573 64.8292 44.4232 64.5258 44.2705 64.1621C44.096 63.3675 44.4113 62.994 45.2164 63.0409C45.7182 63.1026 46.2206 63.1727 46.723 63.2512C46.8807 63.2421 47.0328 63.207 47.1785 63.1461C47.5891 62.7578 47.9045 62.3024 48.1245 61.7796C48.3081 61.4559 48.5765 61.2344 48.9304 61.1139C49.4496 61.0789 49.9401 60.9506 50.4019 60.7285Z" fill="#E3E0DE"/>
  <path fill-rule="evenodd" clip-rule="evenodd" d="M36.8074 63.181C37.0667 63.3337 37.347 63.4508 37.6483 63.5314C37.8081 65.8886 37.9244 68.2473 37.9987 70.6088C37.8417 70.5885 37.7016 70.6116 37.5783 70.6789C33.1272 71.0019 28.6775 71.3523 24.2292 71.73C23.6946 71.7244 23.1928 71.5961 22.7226 71.3446C22.2735 71.0944 21.8768 70.7791 21.5314 70.3986C21.1915 69.9529 20.9231 69.4624 20.7255 68.927C20.2 66.8704 19.6744 64.8144 19.1489 62.7605C20.4817 62.4095 21.8131 62.0479 23.1431 61.6744C25.3959 61.3163 27.6614 61.1993 29.9402 61.324C31.1266 61.3612 32.2947 61.5251 33.4439 61.8145C34.5903 62.2126 35.7115 62.668 36.8074 63.181Z" fill="#FEFEFE"/>
  <path fill-rule="evenodd" clip-rule="evenodd" d="M59.932 63.4611C61.0434 67.2051 62.1064 70.9653 63.1204 74.743C63.3537 76.7345 62.5948 78.1941 60.843 79.1226C60.5017 79.2487 60.1514 79.3426 59.7919 79.4029C54.6527 79.8815 49.5142 80.3608 44.3757 80.8394C44.3757 80.372 44.3757 79.9053 44.3757 79.4379C44.3715 78.8878 44.4528 78.3504 44.6209 77.8262C44.9096 77.0624 45.2362 76.3147 45.602 75.5839C45.8675 74.813 45.9965 74.0191 45.9874 73.2014C45.9593 72.5455 45.9124 71.8917 45.8472 71.2393C45.8087 70.7985 45.8549 70.3781 45.9874 69.978C49.1407 69.7355 52.294 69.4902 55.4473 69.2422C56.1095 69.1987 56.7633 69.1055 57.4094 68.9619C58.4878 68.3579 58.9433 67.4357 58.7758 66.194C58.6237 65.632 58.4717 65.0714 58.3203 64.5122C58.314 64.4421 58.3378 64.384 58.3904 64.337C58.8347 64.0918 59.2551 63.8115 59.6517 63.4961C59.7484 63.403 59.8416 63.391 59.932 63.4611Z" fill="#31381E"/>
  <path fill-rule="evenodd" clip-rule="evenodd" d="M37.6484 63.5312C37.9519 63.6595 38.2322 63.8228 38.4893 64.0218C38.6603 64.2292 38.7885 64.4625 38.8747 64.7225C39.0177 65.5739 39.2041 66.4148 39.4353 67.2452C39.6364 68.545 39.7296 69.8526 39.7156 71.1693C39.7401 71.5119 39.799 71.8392 39.8908 72.1503C40.1094 72.959 40.3785 73.7529 40.6966 74.5328C40.8011 74.9498 40.883 75.3702 40.9419 75.7941C40.7072 76.757 40.4381 77.7142 40.1361 78.6672C39.8284 79.4155 39.408 79.4856 38.8747 78.8774C38.4816 78.3392 38.1901 77.7555 37.9988 77.1255C38.174 74.9771 38.174 72.8286 37.9988 70.6788C37.8587 70.6788 37.7185 70.6788 37.5784 70.6788C37.7017 70.6115 37.8418 70.5884 37.9988 70.6087C37.9245 68.2472 37.8082 65.8885 37.6484 63.5312Z" fill="#875D3E"/>
  <path fill-rule="evenodd" clip-rule="evenodd" d="M58.3201 64.5125C58.4715 65.0716 58.6235 65.6322 58.7756 66.1942C58.9431 67.4359 58.4876 68.3581 57.4091 68.9621C56.7631 69.1058 56.1093 69.199 55.4471 69.2424C52.2938 69.4905 49.1405 69.7357 45.9871 69.9782C45.9437 69.9488 45.9199 69.9025 45.9171 69.838C45.9752 69.6748 46.0334 69.5115 46.0923 69.3475C46.5716 68.4583 47.0039 67.5473 47.3886 66.6147C47.7558 66.5481 48.1293 66.525 48.5098 66.5446C51.1291 66.6798 53.6749 66.3175 56.1478 65.4584C56.8745 65.1417 57.5983 64.8264 58.3201 64.5125Z" fill="#FEFEFD"/>
  <path fill-rule="evenodd" clip-rule="evenodd" d="M21.5314 70.3987C21.8769 70.7792 22.2735 71.0945 22.7227 71.3447C23.1928 71.5962 23.6946 71.7245 24.2292 71.7301C28.6775 71.3524 33.1272 71.002 37.5783 70.679C37.7184 70.679 37.8586 70.679 37.9987 70.679C38.1739 72.8288 38.1739 74.9773 37.9987 77.1258C37.7156 78.3142 37.3533 79.4816 36.9126 80.6294C36.8208 80.9272 36.7619 81.2314 36.7374 81.5404C33.3745 81.8438 30.011 82.1479 26.6468 82.4513C23.8424 82.019 21.9855 80.4535 21.0759 77.7564C20.7739 76.6661 20.5055 75.568 20.2701 74.463C20.6695 73.1 21.0899 71.7448 21.5314 70.3987Z" fill="#31381E"/>
  <path fill-rule="evenodd" clip-rule="evenodd" d="M45.8471 71.2391C45.9123 71.8915 45.9592 72.5453 45.9873 73.2012C45.9964 74.019 45.8675 74.8129 45.6019 75.5837C45.2361 76.3146 44.9095 77.0623 44.6208 77.8261C44.4527 78.3502 44.3714 78.8877 44.3756 79.4378C44.2824 80.1154 44.2824 80.7923 44.3756 81.4699C44.3756 81.61 44.3756 81.7502 44.3756 81.8903C44.4779 82.5897 44.5718 83.2904 44.6559 83.9925C43.4772 83.2743 42.3322 82.5035 41.2223 81.6801C41.176 80.0691 41.141 78.4574 41.1172 76.845C41.1045 76.4771 41.0457 76.1268 40.942 75.7939C40.8831 75.37 40.8011 74.9495 40.6967 74.5326C40.3786 73.7527 40.1095 72.9587 39.8909 72.1501C41.2699 71.6554 42.6483 71.1529 44.0252 70.6435C44.5984 70.4907 45.1828 70.4326 45.7771 70.4683C45.7553 70.7395 45.7785 70.9967 45.8471 71.2391Z" fill="#E3E1DF"/>
  <path fill-rule="evenodd" clip-rule="evenodd" d="M20.2002 74.4626C20.2233 74.4626 20.2472 74.4626 20.2703 74.4626C20.5057 75.5677 20.7741 76.6658 21.0761 77.7561C21.9857 80.4532 23.8426 82.0187 26.647 82.451C30.0112 82.1476 33.3748 81.8435 36.7376 81.5401C36.7376 81.6102 36.7376 81.6802 36.7376 81.7503C36.6255 81.7314 36.5323 81.7552 36.4573 81.8204C33.2465 82.1112 30.0351 82.3915 26.8222 82.6613C26.4333 82.6592 26.0479 82.6241 25.666 82.5562C23.8721 82.0236 22.4825 80.9613 21.4966 79.3678C20.7902 77.8745 20.3116 76.3091 20.0601 74.6729C20.0832 74.6729 20.107 74.6729 20.1301 74.6729C20.1932 74.6231 20.217 74.553 20.2002 74.4626Z" fill="#F0F1EE"/>
  <path fill-rule="evenodd" clip-rule="evenodd" d="M40.9419 75.7941C41.0456 76.1269 41.1044 76.4773 41.117 76.8452C41.1409 78.4576 41.1759 80.0693 41.2221 81.6803C41.2299 82.1273 41.1948 82.5709 41.117 83.0117C40.8795 83.6031 40.623 84.1868 40.3462 84.7635C40.1879 85.2645 40.211 85.755 40.4163 86.235C40.8613 86.6106 41.2817 87.0073 41.6776 87.4263C41.8949 87.9161 41.9761 88.4304 41.9229 88.9679C40.7583 88.8397 39.5901 88.7346 38.4192 88.6526C38.0338 88.5475 37.7885 88.3022 37.6834 87.9168C37.6603 86.9827 37.6365 86.0479 37.6134 85.1139C37.5552 84.7761 37.462 84.4489 37.3331 84.1328C37.092 83.6241 36.8467 83.1336 36.5973 82.6613C36.6625 82.388 36.6856 82.1077 36.6674 81.8204C36.5973 81.8204 36.5272 81.8204 36.4571 81.8204C36.5321 81.7552 36.6253 81.7314 36.7374 81.7503C36.7374 81.6803 36.7374 81.6102 36.7374 81.5401C36.762 81.2311 36.8208 80.927 36.9126 80.6291C37.3534 79.4813 37.7157 78.3139 37.9988 77.1255C38.1901 77.7554 38.4816 78.3391 38.8747 78.8773C39.4079 79.4855 39.8284 79.4155 40.136 78.6671C40.438 77.7141 40.7071 76.7569 40.9419 75.7941Z" fill="#C9C8C6"/>
  <path fill-rule="evenodd" clip-rule="evenodd" d="M44.7259 81.8904C44.6089 81.8904 44.4925 81.8904 44.3755 81.8904C44.3755 81.7503 44.3755 81.6101 44.3755 81.47C44.3755 81.353 44.3755 81.2366 44.3755 81.1196C44.4876 81.1385 44.5808 81.1147 44.6558 81.0495C49.7698 80.5625 54.8852 80.1071 60.0019 79.6831C59.3902 80.1407 58.7126 80.4679 57.9698 80.6641C53.5573 81.1 49.1426 81.5085 44.7259 81.8904Z" fill="#23310D"/>
  <path fill-rule="evenodd" clip-rule="evenodd" d="M44.3753 79.4379C44.3753 79.9053 44.3753 80.3719 44.3753 80.8393C44.3753 80.9094 44.3753 80.9795 44.3753 81.0496C44.4685 81.0496 44.5624 81.0496 44.6556 81.0496C44.5806 81.1147 44.4874 81.1386 44.3753 81.1196C44.3753 81.2367 44.3753 81.353 44.3753 81.47C44.2821 80.7924 44.2821 80.1155 44.3753 79.4379Z" fill="#907F6D"/>
  <path fill-rule="evenodd" clip-rule="evenodd" d="M41.2223 81.6803C42.3323 82.5037 43.4773 83.2745 44.6559 83.9927C44.686 84.0775 44.733 84.1476 44.7961 84.2029C44.6174 85.966 45.0497 87.5546 46.0924 88.968C46.4589 89.8642 46.9144 90.7051 47.4589 91.4906C46.7098 91.5929 45.9628 91.581 45.2165 91.4556C44.0841 91.1129 42.9391 90.8207 41.7829 90.5797C41.9062 90.0513 41.9525 89.5145 41.923 88.968C41.9763 88.4305 41.895 87.9162 41.6778 87.4263C41.2819 87.0073 40.8614 86.6107 40.4165 86.2351C40.2111 85.7551 40.188 85.2646 40.3464 84.7635C40.6232 84.1868 40.8796 83.6031 41.1172 83.0117C41.195 82.5709 41.23 82.1274 41.2223 81.6803Z" fill="#7A573F"/>
  <path fill-rule="evenodd" clip-rule="evenodd" d="M44.3755 81.8904C44.4925 81.8904 44.6089 81.8904 44.7259 81.8904C44.6509 81.9555 44.5577 81.9794 44.4456 81.9605C44.6012 82.7011 44.7182 83.4488 44.796 84.2028C44.7329 84.1475 44.6859 84.0774 44.6558 83.9926C44.5717 83.2905 44.4778 82.5897 44.3755 81.8904Z" fill="#B4A497"/>
  <path fill-rule="evenodd" clip-rule="evenodd" d="M41.7828 90.5797C42.939 90.8208 44.084 91.113 45.2164 91.4556C45.9627 91.5811 46.7096 91.593 47.4587 91.4907C47.8322 91.9006 48.2527 92.2622 48.7201 92.5768C47.9577 93.0876 47.1168 93.3918 46.1974 93.4878C45.1414 93.5277 44.0903 93.4695 43.0441 93.3126C42.6972 92.6504 42.1955 92.1367 41.5375 91.771C41.4906 91.6077 41.4906 91.4437 41.5375 91.2804C41.6398 91.0527 41.7218 90.8194 41.7828 90.5797Z" fill="#323131"/>
</svg>