<svg width="60" height="43" viewBox="0 0 60 43" fill="none" xmlns="http://www.w3.org/2000/svg">
<g id="Group 1321314532">
<path id="Vector" d="M44.6534 2.89147C47.5969 5.43806 47.5969 5.43806 47.7985 7.50483C47.033 7.50483 47.033 7.50483 46.6973 7.24541C46.5831 7.12971 46.4689 7.01401 46.3512 6.8948C44.758 5.42389 42.8743 4.93671 40.7525 4.96527C38.8889 5.12306 37.296 6.06707 35.9328 7.31345C35.4592 7.97658 35.4592 7.97658 34.9759 8.65312C43.0599 8.65312 51.1439 8.65312 59.4729 8.65312C59.4729 10.8004 59.4729 12.9477 59.4729 15.1601C58.7781 15.1601 58.0834 15.1601 57.3677 15.1601C57.3677 20.2758 57.3677 25.3914 57.3677 30.6621C56.3726 30.3304 55.4194 30.0008 54.4491 29.6214C51.1784 28.4699 47.9266 28.2568 44.4852 28.3176C44.0979 28.3215 43.7105 28.325 43.3231 28.3281C42.3906 28.3357 41.4586 28.3507 40.526 28.3655C40.526 25.7761 40.526 23.1867 40.526 20.5188C42.8944 19.6576 42.8944 19.6576 44.1025 19.3227C44.3322 19.2585 44.5618 19.1944 44.7985 19.1283C45.052 19.0587 45.052 19.0587 45.3106 18.9878C44.1822 18.2669 43.3336 18.1951 42.0092 18.2103C41.8666 18.2111 41.724 18.212 41.5771 18.2129C41.2267 18.2151 40.8764 18.2186 40.526 18.2222C40.526 17.2749 40.526 16.3275 40.526 15.3515C39.3892 15.3515 38.2524 15.3515 37.0811 15.3515C37.0811 20.4671 37.0811 25.5828 37.0811 30.8535C30.7655 29.5138 30.7655 29.5138 30.3828 29.3224C30.3828 24.712 30.3828 20.1016 30.3828 15.3515C26.7829 15.3515 23.183 15.3515 19.474 15.3515C19.474 15.541 19.474 15.7304 19.474 15.9256C19.6792 15.9375 19.8845 15.9493 20.096 15.9615C21.9283 16.195 23.5634 17.1377 25.0241 18.2222C25.2254 18.3643 25.4267 18.5064 25.6341 18.6528C26.8793 19.8704 27.5289 21.2188 27.5718 22.947C27.5607 24.0915 27.3218 24.8967 26.7465 25.8775C26.6772 26.0019 26.6079 26.1262 26.5364 26.2543C25.9671 27.1652 25.2957 27.6866 24.2585 27.9827C23.2436 28.1226 22.4382 28.1199 21.5074 27.6717C19.9959 26.3041 19.9959 26.3041 19.9405 25.3034C20.0108 24.2795 20.5557 23.6778 21.2203 22.935C22.0196 22.4833 22.7848 22.4982 23.6844 22.624C24.1262 22.8199 24.1262 22.8199 24.4499 23.0068C24.345 22.4361 24.345 22.436 24.0671 21.8585C23.1152 21.4182 22.1547 21.3955 21.1246 21.3561C20.9655 21.3487 20.8064 21.3413 20.6425 21.3337C20.253 21.3158 19.8635 21.2999 19.474 21.2843C19.4803 21.462 19.4803 21.462 19.4869 21.6433C19.5294 22.882 19.5581 24.1206 19.5791 25.3599C19.5887 25.8216 19.6017 26.2833 19.6183 26.7448C19.7605 30.7964 19.7605 30.7964 19.0664 31.7208C18.5819 32.1598 18.1366 32.4639 17.5602 32.7673C17.4212 32.8741 17.2822 32.9809 17.139 33.0909C16.7946 33.3414 16.7946 33.3414 16.4119 33.3414C16.4119 33.4677 16.4119 33.5941 16.4119 33.7242C16.5619 33.7597 16.7118 33.7952 16.8664 33.8318C19.4735 34.8657 21.2591 37.0247 22.4434 39.4971C22.8537 40.4473 23.1587 41.3071 23.3016 42.3364C23.049 42.3996 22.7964 42.4627 22.5361 42.5278C22.4549 42.3913 22.3738 42.2549 22.2901 42.1144C20.846 39.7561 19.2413 38.4312 16.6032 37.5518C16.1522 37.5358 15.7007 37.5313 15.2494 37.5332C15.1185 37.5334 14.9876 37.5337 14.8528 37.534C14.4355 37.535 14.0182 37.5374 13.6009 37.5399C13.3177 37.5408 13.0345 37.5417 12.7513 37.5425C12.0577 37.5446 11.364 37.5479 10.6704 37.5518C10.5421 36.7346 10.4148 35.9172 10.2876 35.0998C10.2511 34.8672 10.2146 34.6347 10.177 34.3952C10.1424 34.1725 10.1079 33.9499 10.0723 33.7205C10.0242 33.4123 10.0242 33.4123 9.97513 33.0979C9.90486 32.5759 9.90486 32.5759 9.90486 32.0018C10.0904 31.946 10.2759 31.8902 10.467 31.8328C13.5017 30.9327 13.5017 30.9327 16.4119 29.7052C13.3405 28.264 9.91724 28.2601 6.59156 28.3176C4.63174 28.3413 4.63174 28.3413 2.63233 28.3655C2.63233 25.2077 2.63233 22.0499 2.63233 18.7964C4.99755 17.9363 4.99755 17.9363 5.95087 17.69C6.15823 17.6354 6.36558 17.5809 6.57922 17.5247C6.78855 17.4707 6.99788 17.4167 7.21355 17.361C8.67186 16.9833 10.1017 16.5772 11.5208 16.0696C12.0101 15.9256 12.0101 15.9256 12.7756 15.9256C12.7756 15.7362 12.7756 15.5467 12.7756 15.3515C8.7336 15.3515 4.69161 15.3515 0.52713 15.3515C0.52713 13.141 0.52713 10.9306 0.52713 8.65312C11.1374 8.65312 21.7476 8.65312 32.6793 8.65312C30.7847 5.81109 30.7847 5.81109 28.8517 2.91165C29.2971 2.02086 29.7559 1.7855 30.61 1.36863C30.8146 1.26816 30.8146 1.26816 31.0233 1.16566C35.4725 -0.920483 40.8225 -0.123154 44.6534 2.89147Z" fill="#0F733C"/>
<path id="Vector_2" d="M46.0761 15.3514C47.5919 15.3514 49.1076 15.3514 50.6693 15.3514C50.6693 17.2461 50.6693 19.1408 50.6693 21.0929C49.0015 19.981 48.4305 19.3267 47.5675 17.6757C47.1116 16.876 46.5867 16.1174 46.0761 15.3514Z" fill="#FBFCFB"/>
<path id="Vector_3" d="M12.7756 23.5808C12.7756 24.7176 12.7756 25.8544 12.7756 27.0257C11.16 26.5064 9.57744 25.9047 7.99109 25.3033C8.18247 24.9205 8.18247 24.9205 8.56402 24.7541C8.72774 24.6999 8.89146 24.6458 9.06014 24.5901C9.23826 24.5308 9.41638 24.4716 9.5999 24.4106C9.78739 24.3499 9.97489 24.2893 10.1681 24.2267C10.4471 24.1335 10.4471 24.1335 10.7317 24.0383C12.1235 23.5808 12.1235 23.5808 12.7756 23.5808Z" fill="#F1F5F2"/>
<path id="Vector_4" d="M50.6693 24.1551C50.6693 25.1025 50.6693 26.0498 50.6693 27.0259C49.1049 26.5319 47.5945 25.9216 46.0761 25.3034C46.3813 24.6931 46.9088 24.6439 47.5354 24.4183C47.7668 24.3329 47.9982 24.2476 48.2366 24.1596C49.0598 23.9326 49.8786 23.7598 50.6693 24.1551Z" fill="#F4F7F5"/>
</g>
</svg>
