<svg width="176" height="40" viewBox="0 0 176 40" fill="none" xmlns="http://www.w3.org/2000/svg">
<g id="Group 1321314534">
<path id="Vector" d="M61.6701 10.3534C63.494 10.9847 64.2228 11.8568 65.1785 13.5109C65.2943 12.4689 65.4101 11.4269 65.5294 10.3534C85.5589 10.3534 105.589 10.3534 126.225 10.3534C126.225 10.9322 126.225 11.5111 126.225 12.1076C126.582 11.9176 126.582 11.9176 126.946 11.7238C129.207 10.5963 131.059 9.94293 133.593 10.3534C136.022 11.2701 137.51 12.7226 138.855 14.9143C138.971 13.4092 139.087 11.9041 139.206 10.3534C151.016 10.3534 162.825 10.3534 174.992 10.3534C174.992 13.0162 174.992 15.6791 174.992 18.4227C169.898 18.4227 164.804 18.4227 159.555 18.4227C159.671 20.6225 159.787 22.8223 159.906 25.0887C160.586 24.5533 161.266 24.0178 161.967 23.4661C166.398 20.0447 166.398 20.0447 167.975 19.4753C169.582 20.0977 170.385 21.27 171.418 22.589C171.599 22.8083 171.779 23.0277 171.965 23.2537C172.134 23.4676 172.303 23.6815 172.477 23.9019C172.632 24.0959 172.786 24.2898 172.946 24.4897C173.238 25.0887 173.238 25.0887 173.135 25.8223C172.854 26.5824 172.486 27.1808 172.032 27.8516C170.067 30.9525 170.076 34.0829 170.782 37.6313C170.895 38.1293 171.01 38.6268 171.133 39.1224C170.67 39.2382 170.207 39.354 169.729 39.4732C169.326 38.7434 168.924 38.0123 168.523 37.2805C168.409 37.0747 168.295 36.8689 168.177 36.6569C167.214 34.8881 166.875 33.665 166.901 31.667C166.904 31.3541 166.907 31.0411 166.91 30.7186C166.917 30.3632 166.917 30.3632 166.923 30.0005C164.892 31.3934 163.1 32.716 161.507 34.6053C160.612 35.5317 160.217 35.9397 158.922 36.0443C157.802 35.8669 156.782 35.5899 155.696 35.2631C153.612 34.7421 153.612 34.7421 151.486 34.2106C151.486 29.0006 151.486 23.7906 151.486 18.4227C150.096 18.4227 148.707 18.4227 147.276 18.4227C147.276 24.6747 147.276 30.9267 147.276 37.3682C143.065 36.6665 143.065 36.6665 139.206 35.614C139.09 32.0249 138.975 28.4358 138.855 24.7379C137.698 25.7799 136.54 26.8219 135.347 27.8955C134.665 28.4793 133.98 29.0585 133.286 29.6277C132.976 29.8842 132.665 30.1406 132.346 30.4048C131.607 30.9631 130.927 31.3803 130.084 31.7547C129.654 31.0866 129.231 30.4131 128.813 29.7374C128.576 29.3629 128.34 28.9884 128.097 28.6026C127.628 27.5446 127.628 27.5446 127.839 26.7278C128.33 26.1413 128.33 26.1413 129.383 25.7904C129.151 24.98 128.92 24.1695 128.681 23.3345C127.87 23.3345 127.06 23.3345 126.225 23.3345C126.225 25.3027 126.225 27.271 126.225 29.2988C125.429 28.8574 124.633 28.416 123.813 27.9612C121.751 26.8437 119.757 25.9463 117.454 25.4396C117.021 25.3439 117.021 25.3439 116.578 25.2463C114.28 24.834 112.473 24.8884 110.437 26.1413C110.437 26.4886 110.437 26.8359 110.437 27.1938C110.618 26.9622 110.799 26.7307 110.985 26.4921C111.841 25.7904 111.841 25.7904 113.09 25.6369C114.296 25.7904 114.296 25.7904 114.976 26.1851C115.542 27.1832 115.533 27.8222 115.349 28.948C114.6 29.8663 114.025 30.2739 112.849 30.4857C110.941 30.5824 109.813 30.2221 108.332 28.948C107.035 27.7206 106.619 26.6038 106.5 24.8585C106.642 23.3618 107.327 22.3183 108.332 21.2295C109.596 20.2352 110.94 19.6695 112.542 19.4753C110.191 19.3043 108.66 19.799 106.578 20.8786C106.578 20.0682 106.578 19.2577 106.578 18.4227C105.536 18.4227 104.494 18.4227 103.42 18.4227C103.42 24.6747 103.42 30.9267 103.42 37.3682C101.504 37.1287 99.7078 36.8665 97.8288 36.4911C97.5934 36.4454 97.358 36.3997 97.1154 36.3527C95.3942 36.0081 95.3942 36.0081 95.0001 35.614C94.9452 35.0925 94.9122 34.5687 94.8891 34.0448C94.8744 33.7293 94.8597 33.4139 94.8446 33.0889C94.8308 32.7572 94.817 32.4254 94.8028 32.0836C94.7876 31.7506 94.7725 31.4175 94.7568 31.0743C94.7195 30.2486 94.6837 29.4229 94.6493 28.5971C93.8589 28.4291 93.8589 28.4291 92.8951 28.5971C92.1466 29.2444 91.5139 29.8641 90.8558 30.5926C88.814 32.747 86.7871 34.7643 83.6635 35C81.9576 34.8844 80.8949 34.5284 79.7028 33.2636C78.2991 31.5038 76.9738 29.527 77.2168 27.1938C77.2964 26.9622 77.376 26.7307 77.458 26.4921C78.5105 26.8429 78.5105 26.8429 79.2122 27.8955C80.1733 28.19 80.1733 28.19 81.3173 27.8955C82.8514 26.9195 83.9598 26.0039 84.4748 24.2335C84.4748 23.9369 84.4748 23.6402 84.4748 23.3345C83.3351 22.5747 83.0062 22.5453 81.69 22.567C81.3902 22.5693 81.0903 22.5716 80.7814 22.5739C79.8139 22.614 79.8139 22.614 78.5105 22.9837C78.5105 21.4786 78.5105 19.9734 78.5105 18.4227C76.8896 18.4227 75.2687 18.4227 73.5987 18.4227C73.5987 24.6747 73.5987 30.9267 73.5987 37.3682C70.4412 36.9735 70.4412 36.9735 69.3667 36.6761C69.0241 36.5828 69.0241 36.5828 68.6746 36.4877C68.4471 36.4237 68.2196 36.3597 67.9853 36.2937C67.7469 36.2284 67.5086 36.163 67.263 36.0957C66.6847 35.9369 66.1069 35.7757 65.5294 35.614C65.5279 35.2105 65.5265 34.807 65.525 34.3913C65.5173 32.8886 65.4983 31.3862 65.4758 29.8837C65.4677 29.2344 65.4627 28.5852 65.4608 27.9359C65.4575 27.0002 65.4431 26.0653 65.4266 25.1298C65.428 24.8414 65.4293 24.553 65.4308 24.2558C65.3787 22.1865 64.9101 21.2745 63.4243 19.8261C62.3558 19.0949 61.5041 19.0376 60.2229 19.0586C59.9181 19.0609 59.6132 19.0631 59.2992 19.0655C58.4997 19.0754 58.4997 19.0754 57.8108 19.4753C57.6951 19.8226 57.5793 20.1699 57.46 20.5278C58.0678 20.4735 58.0678 20.4735 58.6879 20.4181C60.4733 20.4086 61.718 21.1665 63.0735 22.282C63.7202 23.5755 63.5491 25.0771 63.4243 26.4921C62.992 27.5297 62.6555 28.0257 61.7797 28.7068C59.9927 29.2381 58.6599 29.1971 57.0214 28.3779C55.0998 26.7183 54.1578 24.8187 53.8735 22.2884C53.6986 19.1485 53.6655 15.923 55.3549 13.1601C57.252 11.0606 58.7873 10.0629 61.6701 10.3534Z" fill="#0F733C"/>
<path id="Vector_2" d="M58.5125 2.61275C59.6773 3.46028 60.7056 4.36677 61.6701 5.44141C61.9306 5.72362 62.1911 6.00583 62.4595 6.29659C63.1565 7.3173 63.3108 8.08099 63.4243 9.30068C62.5698 8.92091 61.9452 8.53379 61.2315 7.91923C59.0327 6.2701 56.6729 5.75974 53.9515 6.1431C51.229 6.98578 49.4639 8.24286 47.9872 10.704C49.6081 10.704 51.229 10.704 52.899 10.704C52.899 13.2512 52.899 15.7983 52.899 18.4226C52.0886 18.4226 51.2781 18.4226 50.4431 18.4226C50.4431 24.7904 50.4431 31.1581 50.4431 37.7189C47.7802 37.14 45.1173 36.5611 42.3737 35.9647C42.3737 30.1758 42.3737 24.3869 42.3737 18.4226C40.9844 18.4226 39.5951 18.4226 38.1636 18.4226C38.1636 24.6746 38.1636 30.9266 38.1636 37.368C33.9535 36.6664 33.9535 36.6664 30.0943 35.6138C30.0943 29.9407 30.0943 24.2676 30.0943 18.4226C28.7049 18.4226 27.3156 18.4226 25.8842 18.4226C25.8842 24.6746 25.8842 30.9266 25.8842 37.368C24.9579 36.6734 24.0317 35.9787 23.0774 35.263C21.0198 34.0983 19.0792 33.8218 16.7623 34.2105C16.0273 34.5368 15.3037 34.8896 14.5914 35.263C11.9108 36.6113 9.51691 36.7316 6.58785 36.3155C4.51691 35.6263 3.50626 33.8344 2.47916 32.0026C1.72341 30.4155 0.974377 28.6251 0.974377 26.8428C1.20593 26.8428 1.43749 26.8428 1.67606 26.8428C2.10365 27.4321 2.10365 27.4321 2.55317 28.2023C3.04371 29.0368 3.44358 29.6628 4.13196 30.3512C6.06664 30.5355 7.39432 30.3717 9.19724 29.6495C11.7747 28.6444 13.8728 28.576 16.4772 29.5399C18.0176 30.2188 19.2983 31.0698 20.6215 32.1054C20.4483 31.8856 20.2751 31.6658 20.0966 31.4394C19.8719 31.1526 19.6471 30.8659 19.4155 30.5705C19.1916 30.2856 18.9678 30.0006 18.7371 29.7071C17.694 28.3212 17.7061 27.0781 17.6174 25.3956C17.6023 25.131 17.5871 24.8664 17.5715 24.5938C17.5343 23.9402 17.499 23.2864 17.464 22.6327C17.0189 22.9759 17.0189 22.9759 16.5649 23.3261C15.5379 24.1179 14.5094 24.9077 13.4805 25.6971C12.9858 26.0774 12.4927 26.4599 11.9999 26.8428C11.7552 27.0309 11.5105 27.2191 11.2584 27.4129C10.9416 27.6585 10.9416 27.6585 10.6184 27.909C10.0963 28.2461 10.0963 28.2461 9.39459 28.2461C8.71209 27.528 8.71209 27.528 7.94736 26.5796C7.69319 26.2703 7.43903 25.961 7.17716 25.6422C6.58785 24.7377 6.58785 24.7377 6.58785 23.3344C7.10885 22.987 7.10885 22.987 7.64038 22.6327C7.46671 21.7643 7.46671 21.7643 7.28953 20.8785C6.87029 20.9273 6.45105 20.9762 6.0191 21.0265C5.09923 21.0257 4.63268 20.988 3.88373 20.4406C3.32526 19.8236 2.83812 19.1883 2.35582 18.5103C2.18147 18.2878 2.00713 18.0653 1.8275 17.836C0.602057 16.1998 0.602057 16.1998 0.690603 15.2387C1.17486 14.0861 2.26964 13.5891 3.29871 12.9626C3.51081 12.8271 3.72292 12.6917 3.94146 12.5521C6.78191 10.7746 9.18145 9.95374 12.5522 10.3532C14.6566 10.9751 16.0135 12.2661 17.464 13.8616C17.6376 12.125 17.6376 12.125 17.8148 10.3532C26.7297 10.3532 35.6446 10.3532 44.8296 10.3532C43.093 7.57453 43.093 7.57453 41.3212 4.73973C40.9739 4.16084 40.6265 3.58195 40.2687 2.98552C45.7136 -0.862423 52.8537 -0.9951 58.5125 2.61275Z" fill="#0F733C"/>
<path id="Vector_3" d="M139.206 10.0024C151.131 10.0024 163.056 10.0024 175.343 10.0024C175.343 12.8969 175.343 15.7913 175.343 18.7735C171.922 18.8612 171.922 18.8612 170.851 18.878C169.045 18.9154 169.045 18.9154 167.513 19.7698C167.318 20.0199 167.124 20.27 166.923 20.5277C166.326 20.9307 165.719 21.3174 165.103 21.6899C163.479 22.6966 161.979 23.7872 160.495 24.9886C159.906 25.4395 159.906 25.4395 159.555 25.4395C159.555 23.1239 159.555 20.8084 159.555 18.4227C164.649 18.4227 169.743 18.4227 174.992 18.4227C174.992 15.7598 174.992 13.0969 174.992 10.3533C163.183 10.3533 151.373 10.3533 139.206 10.3533C139.206 10.2375 139.206 10.1217 139.206 10.0024Z" fill="#E6EDE8"/>
<path id="Vector_4" d="M86.9307 18.4226C89.7094 18.4226 92.4881 18.4226 95.3509 18.4226C95.3509 20.6224 95.3509 22.8222 95.3509 25.0886C94.6429 24.5518 93.9348 24.0151 93.2267 23.4783C92.0843 22.6501 91.2665 22.5491 89.869 22.4354C89.5172 22.406 89.1653 22.3766 88.8028 22.3463C88.3971 22.3144 88.3971 22.3144 87.9833 22.2819C87.8119 21.5852 87.6406 20.8886 87.4693 20.1919C87.3131 19.5955 87.1257 19.0075 86.9307 18.4226Z" fill="#EEF3F0"/>
<path id="Vector_5" d="M136.399 18.0718C136.994 18.609 136.994 18.609 137.452 19.1243C137.014 19.5123 136.575 19.8996 136.136 20.2865C135.892 20.5022 135.648 20.7179 135.396 20.9402C133.41 22.6327 133.41 22.6327 132.54 22.6327C132.169 22.0606 131.82 21.474 131.488 20.8785C131.256 20.5312 131.025 20.1839 130.786 19.826C134.123 17.7075 134.123 17.7075 136.399 18.0718Z" fill="#F2F6F4"/>
<path id="Vector_6" d="M15.359 16.6685C15.5905 16.7843 15.8221 16.9001 16.0606 17.0193C16.0606 17.2509 16.0606 17.4825 16.0606 17.721C15.2534 18.3268 15.2534 18.3268 14.1968 18.9928C13.8508 19.2144 13.5048 19.436 13.1484 19.6644C12.2014 20.1769 12.2014 20.1769 11.1488 20.1769C10.4735 19.5377 9.96463 18.8113 9.39464 18.0719C11.4445 16.8792 12.9794 16.3674 15.359 16.6685Z" fill="#F1F5F3"/>
<path id="Vector_7" d="M114.296 18.4226C115.57 18.4226 116.844 18.4226 118.156 18.4226C118.156 19.5804 118.156 20.7382 118.156 21.931C117.51 21.5483 116.867 21.1598 116.226 20.7689C115.868 20.5531 115.51 20.3374 115.141 20.1151C114.723 19.7983 114.723 19.7983 114.296 19.4751C114.296 19.1278 114.296 18.7805 114.296 18.4226Z" fill="#F0F4F1"/>
</g>
</svg>
