<svg width="68" height="69" viewBox="0 0 68 69" fill="none" xmlns="http://www.w3.org/2000/svg">
<g id="Group 1">
<path id="Vector" d="M33.9932 68.2227C52.7708 68.2227 68 53.0041 68 34.2159C68 15.4413 52.7708 0.224243 33.9932 0.224243C15.2178 0.224243 0 15.4413 0 34.2159C0 53.0041 15.2178 68.2227 33.9932 68.2227Z" fill="white"/>
<path id="Vector_2" d="M33.9933 57.3129C46.7419 57.3129 57.088 46.985 57.088 34.2159C57.088 21.4695 46.7419 11.1257 33.9933 11.1257C21.24 11.1257 10.9023 21.4695 10.9023 34.2159C10.9023 46.985 21.24 57.3129 33.9933 57.3129Z" fill="#E11837"/>
<path id="Vector_3" fill-rule="evenodd" clip-rule="evenodd" d="M32.5844 44.9792C32.5474 45.0124 32.5285 45.0457 32.5186 45.0812V45.0872C32.5088 45.119 32.4952 45.1409 32.4793 45.1757H32.471L32.4793 45.1946C32.4597 45.2127 32.4552 45.2422 32.4325 45.2422C32.4325 45.2422 32.4249 45.2422 32.409 45.2422C32.3811 45.2422 32.3524 45.2422 32.3259 45.2422C32.2586 45.2701 32.2193 45.3896 32.2193 45.4084L32.2065 45.4228L32.2193 45.4455C32.2193 45.4636 32.2586 45.5158 32.2435 45.5717C32.2307 45.5717 32.2307 45.5823 32.1944 45.5997C32.0417 45.6692 32.0417 45.834 32.0417 45.843C32.0417 45.8612 32.0289 45.902 32.0115 45.9367H31.9926V45.9398C31.9526 45.9632 31.9019 45.9398 31.8384 45.902C31.6722 45.7841 31.7508 45.3707 31.809 45.1946C31.9359 45.1258 32.05 45.0064 32.1188 44.8945C32.2193 44.6617 32.3425 44.4108 32.5935 44.3776C32.6093 44.3776 32.6471 44.3776 32.6615 44.3866C32.6819 44.3949 32.691 44.432 32.691 44.4652C32.691 44.4947 32.691 44.5212 32.7167 44.5597C32.7219 44.7486 32.6471 44.8945 32.5844 44.9792ZM46.9422 49.0453H46.9323C46.819 48.9697 46.819 48.9047 46.8031 48.7944C46.8031 48.7218 46.8031 48.6236 46.7283 48.511C46.6345 48.35 46.6406 48.1096 46.6444 47.8867C46.6444 47.7484 46.6504 47.607 46.6345 47.4876C46.5915 47.2246 46.568 46.3895 46.568 46.264C46.5915 46.2134 46.6406 46.0751 46.6504 45.6798C46.6655 45.1545 46.5915 44.961 46.4773 44.6927L46.4584 44.6292C46.3284 44.3231 46.3897 44.2332 46.5061 44.1289C46.6852 43.9573 46.537 43.4404 46.4327 43.1562C46.3254 42.8841 46.2687 42.5372 46.3254 42.1034C46.3541 41.7663 46.2302 41.3831 46.1614 41.2425C46.1372 41.2267 46.1372 41.2085 46.1236 41.1934C46.0533 41.0808 46.042 41.049 46.0783 40.7943C46.1372 40.5041 45.9536 40.2902 45.9445 40.2729L45.9385 40.2676H45.9286C45.9286 40.2676 45.7624 40.1829 45.7624 40.0136C45.7624 39.9252 45.7427 39.57 45.55 39.3266L45.5001 39.2737C45.3678 39.1218 45.2734 39.0152 45.2983 38.7613C45.3134 38.4506 45.1955 38.0675 45.1955 38.0675C45.1804 38.0584 45.0625 37.5875 45.0973 37.3464C45.2983 37.0328 45.2537 36.8877 45.1955 36.6685C45.1804 36.5929 45.1502 36.4931 45.126 36.3745C45.0708 35.9875 44.8796 35.6074 44.8108 35.5023C44.8562 35.4517 44.9197 35.3081 44.7564 35.1093C44.5969 34.9385 44.5833 34.7609 44.5833 34.7253C44.6075 34.6951 44.6687 34.5251 44.6325 34.2666C44.6226 34.1683 44.6075 34.0875 44.5387 34.058C44.47 34.0466 44.411 34.1124 44.3264 34.2598C44.2772 34.3301 44.2289 34.4155 44.2069 34.4155C44.2069 34.4155 44.1487 34.3799 44.0649 34.2159C43.987 34.1064 43.9228 34.0466 43.8419 34.0482C43.7384 34.0542 43.6514 34.194 43.5759 34.3558L43.5479 34.383C43.5237 34.4616 43.4874 34.5107 43.4595 34.556C43.3982 34.6324 43.3491 34.649 43.2327 34.6195C43.1292 34.5878 43.1231 34.5523 43.0974 34.4941C43.0876 34.4155 43.0536 34.3437 42.9523 34.2439C42.882 34.1865 42.8223 34.1865 42.7785 34.194C42.6054 34.2439 42.5306 34.5417 42.5072 34.581V34.6037L42.5948 35.0964C42.5714 35.141 42.5072 35.336 42.6568 35.5023C42.6855 35.5446 42.6893 35.5688 42.6855 35.6074C42.6855 35.7018 42.5714 35.8122 42.5072 35.8545H42.2797V35.8772L42.2442 36.0684C42.1875 36.1152 41.9895 36.3042 41.7166 36.5785C41.3735 36.9013 41.5995 37.3827 41.7763 37.7379L41.7982 37.7878C41.9282 38.0954 41.83 38.2564 41.7982 38.2972C41.7582 38.3267 41.5209 38.4839 41.3674 38.6849C41.2238 38.8716 40.8958 38.9903 40.6683 38.923C40.6525 38.923 40.6328 38.9124 40.6124 38.8943V38.8898C40.4318 38.7923 40.3131 38.4219 40.2776 38.2972C40.2572 38.1483 40.0667 37.5119 39.8415 37.1628C39.778 37.0328 39.7047 36.9806 39.6314 36.9897C39.5286 36.9897 39.478 37.1084 39.4258 37.2217L39.3994 37.2625C39.3155 37.4583 39.4621 37.9737 39.5286 38.1317C39.5619 38.1906 39.5619 38.2277 39.5475 38.2534C39.5286 38.2624 39.4742 38.2874 39.3888 38.2564C39.3155 38.239 39.3155 38.1755 39.3011 38.0675C39.292 37.9888 39.286 37.905 39.2369 37.84C39.1673 37.7379 39.1137 37.3207 39.0895 37.0615C39.0895 36.9897 39.0638 36.927 39.0638 36.8793C39.0388 36.732 38.9708 36.4894 38.8915 36.283C38.8461 36.1629 38.8174 36.0502 38.803 35.9716C38.7441 35.7789 38.4917 35.2559 38.3669 35.1093L38.3579 35.0964C38.2951 35.0148 38.2007 34.8962 38.2188 34.8153C38.2188 34.7971 38.2407 34.7798 38.2755 34.7548C38.3428 34.7125 38.407 34.68 38.407 34.6324C38.4221 34.556 38.3934 34.5107 38.2951 34.3671L38.28 34.3611C38.2188 34.2598 38.2158 34.2356 38.2158 34.2265C38.2309 34.2159 38.2951 34.2137 38.3541 34.2137L38.407 34.2107C38.472 34.2107 38.5264 34.194 38.5468 34.1593C38.5846 34.1313 38.5816 34.0875 38.5816 34.0482C38.5703 34.0089 38.5703 33.9869 38.5846 33.9801C38.7033 33.8751 38.7441 33.7133 38.732 33.3846C38.732 33.1896 38.7441 33.1427 38.7721 33.0898C38.803 33.0543 38.8219 33.015 38.8219 32.947C38.8461 32.7905 38.9406 32.7127 39.0351 32.6348L39.0532 32.6129C39.2618 32.7308 39.4742 32.622 39.4742 32.622L39.5875 32.5736L39.4742 32.5366C39.4742 32.5366 39.4545 32.5366 39.4439 32.5245C39.4439 32.5131 39.4621 32.4791 39.5286 32.4119C39.6964 32.2766 39.6216 32.1405 39.5619 32.0362C39.552 32.0204 39.5475 31.9886 39.5286 31.975C39.5188 31.9282 39.5188 31.8798 39.5188 31.8798C39.5286 31.8647 39.5724 31.8647 39.6314 31.9078C39.7402 31.9712 39.8098 31.9584 39.8415 31.9319C39.8816 31.9115 39.9027 31.9078 39.9367 31.9584C40.0667 32.0461 40.199 32.0597 40.456 32.0597H40.6328C40.7605 32.0793 40.858 32.0461 40.9238 31.9712C41.0213 31.842 40.9873 31.6553 40.9714 31.6387C40.9774 31.4573 41.0031 31.2646 41.0175 31.1573C41.115 31.5027 41.2238 31.545 41.5307 31.6387C41.6093 31.6523 41.6924 31.6712 41.7264 31.6274C41.7642 31.5692 41.7468 31.5027 41.6924 31.3931C41.6682 31.3235 41.6342 31.2585 41.6131 31.1837C41.5859 31.1089 41.5995 31.0726 41.5995 31.0726C41.6259 31.0696 41.7023 31.0855 41.7582 31.1089C41.8111 31.1353 41.8897 31.1671 41.9736 31.1837C42.1633 31.2351 42.1875 31.3311 42.2268 31.4437C42.2442 31.5027 42.251 31.545 42.2797 31.5934V31.6032C42.3303 31.6523 42.4036 31.715 42.4784 31.6939C42.5948 31.6712 42.6402 31.4807 42.7188 31.1573L42.7437 31.0726C42.8223 30.7514 42.7815 30.6463 42.7702 30.5413C42.7702 30.5322 42.7581 30.5224 42.7581 30.508C42.8579 30.6244 42.9523 30.6887 43.0302 30.6887C43.0876 30.6887 43.133 30.6577 43.1715 30.5912C43.2758 30.4393 43.1541 30.3289 43.046 30.2261L43.0052 30.1951C43.0052 30.1619 43.0052 30.1067 43.0105 30.0999C43.0302 30.0999 43.0952 30.0999 43.1715 30.1188C43.2327 30.1324 43.331 30.146 43.4292 30.1785C43.5978 30.1951 43.7142 30.1785 43.7996 30.0999C43.956 29.9563 43.9779 29.6895 43.956 29.4454C43.9522 29.3154 43.9779 29.264 44.0014 29.2481C44.0271 29.2255 44.111 29.2481 44.1699 29.2776C44.1896 29.2776 44.2069 29.2776 44.2069 29.2776C44.3264 29.3192 44.3422 29.3192 44.4503 29.2481C44.5546 29.1794 44.5145 29.063 44.5047 28.9768C44.4911 28.9405 44.4798 28.9156 44.4798 28.8801C44.4798 28.8332 44.5047 28.7818 44.5047 28.7213C44.5282 28.6458 44.5644 28.5354 44.5644 28.4024C44.5644 28.2724 44.5969 28.2067 44.6529 28.1061C44.6869 28.0419 44.7103 27.9678 44.7443 27.8552C44.8108 27.6134 44.7602 27.5287 44.6869 27.4531H44.677C44.6325 27.4055 44.5584 27.3012 44.4798 27.1123C44.4503 27.0435 44.4503 27.0042 44.4798 26.9498C44.5047 26.9127 44.5644 26.8886 44.6325 26.8886C44.7209 26.8886 44.7443 26.9309 44.7761 26.9944C44.7995 27.0095 44.8342 27.0775 44.9325 27.0435C44.9877 27.0314 45.0013 27.0435 45.0466 27.0896C45.0663 27.104 45.0867 27.1289 45.1215 27.1569C45.2288 27.2347 45.6875 27.1417 45.8258 27.0435C45.9211 26.9944 45.9249 26.9127 45.9249 26.8644C45.9249 26.8236 45.8908 26.7654 45.8364 26.7472C45.7964 26.7283 45.7624 26.7034 45.782 26.5704C45.782 26.4963 45.782 26.4313 45.7427 26.3731C45.7027 26.3383 45.6505 26.3074 45.55 26.3074C45.55 26.3074 45.4714 26.3074 45.4623 26.3028C45.4502 26.2968 45.4502 26.2764 45.4502 26.2605C45.4502 26.2401 45.4502 26.1978 45.4502 26.163C45.4306 26.0413 45.3285 25.9801 45.2288 25.931C45.1804 25.8954 45.1215 25.8561 45.0867 25.8168C45.0466 25.736 45.0013 25.6876 44.9484 25.6876C44.8849 25.6876 44.8342 25.7216 44.7912 25.7594C44.7564 25.7753 44.5833 25.6936 44.4465 25.5803C44.411 25.55 44.3135 25.414 44.12 25.4329C43.9522 25.4389 43.8638 25.3505 43.8638 25.3505V25.3483L43.8578 25.3362C43.8578 25.3362 43.7142 25.2379 43.6 25.1298C43.4595 24.9817 43.2327 25.0112 43.2327 25.0263C43.2327 25.0263 42.9077 25.0527 42.4921 25.0369C42.0681 25.0112 41.5503 25.151 41.2117 25.2515H41.1951V25.2674C41.1256 25.3346 41.0659 25.3679 41.0175 25.3362C40.948 25.3127 40.9072 25.2077 40.9072 25.1752C40.9072 25.1049 40.8739 24.9681 40.7666 24.9409C40.6918 24.9069 40.6041 24.956 40.5149 25.0936C40.3207 25.3505 40.1189 25.2379 39.9881 25.1654C39.9662 25.151 39.9367 25.1442 39.9322 25.1298C39.8778 25.1049 39.7463 25.0875 39.5875 25.0527C39.4258 25.0112 39.1915 24.956 39.1424 24.9243C39.1295 24.9243 39.122 24.9243 39.1137 24.9069C39.0215 24.8381 38.8461 24.7164 38.6451 24.8139C38.4221 24.9069 38.1772 24.9008 38.0382 24.8381C37.8606 24.7829 37.3073 24.8608 36.9876 25.0527C36.6815 25.2379 36.2228 25.1049 35.9129 25.0263L35.8917 25.0112L35.8819 25.0263C35.6521 25.1442 35.5312 25.0875 35.4383 25.0369C35.4254 25.0263 35.3937 25.0112 35.3846 25.0029C35.2614 24.956 34.7187 25.0369 34.5426 25.151C34.5169 25.1752 34.458 25.1948 34.4134 25.1948H34.393C34.2403 25.2122 34.068 25.1752 34.0136 25.1298C33.9546 25.0694 33.867 25.1049 33.8209 25.1298C33.7226 25.1654 33.6674 25.1752 33.6153 25.1049C33.5193 24.9681 33.4271 24.9938 33.3583 25.0112C33.2797 25.0369 33.2442 25.0406 33.2193 24.9817C33.087 24.798 32.3811 24.7164 32.2435 24.7262C32.0856 24.7497 31.9306 24.6726 31.8142 24.5524C31.6797 24.408 31.2504 24.2675 30.837 24.3204C30.7584 24.2947 30.6942 24.238 30.6639 24.1496C30.5506 23.9032 30.639 23.5208 30.673 23.4505C30.6843 23.4142 30.6942 23.3462 30.6942 23.2464C30.704 23.0975 30.7131 22.8496 30.8325 22.5465C30.9504 22.2215 30.8869 22.1112 30.7773 22.0061C30.738 21.9759 30.704 21.9359 30.6843 21.8988C30.673 21.8693 30.6639 21.8474 30.6488 21.8142C30.5914 21.6993 30.5506 21.6388 30.97 21.1725C31.1718 20.9752 31.2474 20.7855 31.2126 20.6208C31.1824 20.5346 31.1129 20.4076 30.902 20.3139C30.8718 20.3139 30.8506 20.3041 30.8506 20.3041C30.7856 20.2845 30.7584 20.2845 30.7682 20.1643C30.7856 19.9209 30.6314 19.8816 30.506 19.8491C30.4425 19.8491 30.4032 19.8038 30.3782 19.7531C30.3291 19.6919 30.3132 19.611 30.3397 19.5324C30.3782 19.4123 30.3291 19.3397 30.2891 19.2981C30.2634 19.2536 30.2505 19.2407 30.2505 19.1757C30.2505 19.0064 30.1371 18.8991 29.924 18.8711C29.8688 18.8711 29.831 18.8764 29.8046 18.8923C29.8046 18.8432 29.8046 18.7623 29.8046 18.7215C29.8046 18.6346 29.7865 18.5091 29.7169 18.494C29.6534 18.4728 29.5695 18.5424 29.5393 18.59C29.4758 18.5832 29.3919 18.59 29.3519 18.6474C29.333 18.6648 29.3171 18.7056 29.3375 18.7623C29.3761 18.8364 29.333 18.8711 29.2294 18.9452L29.2249 18.9611C29.1214 19.0162 29.1153 19.1409 29.1214 19.2407C29.1508 19.3412 29.203 19.4342 29.2884 19.4644C29.3625 19.4811 29.3761 19.537 29.3761 19.5445C29.3761 19.5445 29.3579 19.5634 29.3269 19.5634C29.1644 19.537 29.141 19.6685 29.1214 19.8015C29.1214 19.8438 29.1153 19.8703 29.1153 19.9096C29.0858 20.0381 29.0564 20.0857 29.0564 20.0857C29.0564 20.0857 29.0163 20.0857 28.9921 20.0381C28.9332 19.9391 28.8704 19.8816 28.7888 19.8703C28.7352 19.8567 28.6815 19.8703 28.6165 19.9096C28.6165 19.93 28.5787 19.93 28.5462 19.93C28.4895 19.9096 28.4449 19.868 28.4087 19.828C28.3762 19.7599 28.3157 19.7138 28.259 19.7138C28.2038 19.7025 28.1494 19.7138 28.0942 19.7531C28.0255 19.8196 27.9559 19.828 27.8191 19.8038C27.7405 19.7909 27.6544 19.7138 27.5652 19.6299C27.5214 19.5876 27.4737 19.5445 27.4186 19.5098C27.3846 19.4674 27.3596 19.4221 27.3188 19.3866C27.2553 19.308 27.176 19.2211 27.0097 19.2097C26.9318 19.1848 26.925 19.1848 26.925 19.1848C26.925 19.1848 26.925 19.1757 26.925 19.1659C26.925 19.1281 26.9114 19.0911 26.8411 19.0911C26.7739 19.0707 26.7489 18.9769 26.7489 18.9452C26.758 18.8991 26.8177 18.6346 26.6484 18.5091C26.5343 18.435 26.5592 18.2075 26.5668 18.1599C26.5963 18.1312 26.631 18.0745 26.6197 17.9846C26.5993 17.9181 26.5592 17.8765 26.4821 17.8448C26.3589 17.779 26.3589 17.7269 26.3529 17.6656C26.3529 17.6422 26.3529 17.615 26.3333 17.5908C26.3159 17.5152 26.2388 17.3686 26.0037 17.3686C25.8843 17.3686 25.8594 17.3452 25.8208 17.2802C25.7861 17.2515 25.7619 17.2031 25.712 17.1577C25.653 17.1026 25.5903 17.095 25.5495 17.095C25.4611 17.1268 25.4165 17.2182 25.3764 17.3074C25.3666 17.3233 25.3568 17.3452 25.3568 17.3512C25.2782 17.4948 25.3961 17.7624 25.4165 17.7979V17.807H25.4369L25.6311 17.8984C25.6311 17.9339 25.653 17.9959 25.6825 18.0466C25.7226 18.0791 25.7755 18.1153 25.842 18.1153C25.9984 18.1312 26.0438 18.1947 26.0529 18.3708C26.068 18.4433 26.0438 18.4433 26.0438 18.4433C26.0438 18.4433 26.0181 18.4433 26.0075 18.4524L26.0037 18.4433C26.0037 18.4433 25.9984 18.4433 25.9984 18.4524C25.9334 18.4524 25.8352 18.4199 25.7377 18.3413C25.6077 18.2431 25.486 18.2075 25.3802 18.1698C25.3424 18.1478 25.2925 18.1312 25.2547 18.1153C25.2147 18.0942 25.186 18.0791 25.1595 18.1153C25.0968 18.1312 25.0771 18.2007 25.0469 18.2635C25.0371 18.3058 25.0121 18.3436 24.9842 18.3708C24.9683 18.4078 24.9434 18.4199 24.9025 18.4078C24.8746 18.4025 24.8353 18.3436 24.8353 18.2461C24.8353 18.1153 24.7952 18.0745 24.7408 18.0322C24.7121 18.0186 24.6917 17.9959 24.6818 17.9544C24.6478 17.8765 24.5745 17.8765 24.5224 17.8697C24.5088 17.8697 24.4891 17.8697 24.4891 17.8697H24.4846C24.4604 17.7624 24.3606 17.6626 24.2427 17.6815C24.1838 17.6928 24.1573 17.6513 24.1097 17.5908H24.0991C24.1203 17.3361 23.9465 17.2862 23.9019 17.2802L23.7636 17.1827C23.7545 17.1268 23.719 17.0043 23.6351 16.9809L23.6268 16.9696H23.6018C23.3902 16.9809 23.2919 16.8668 23.2919 16.8668V16.8509C23.2806 16.8449 22.9314 16.5652 22.7236 16.4435C22.5551 16.3438 22.5664 16.2697 22.5739 16.1314C22.5739 16.1193 22.5739 16.0951 22.5739 16.0951V16.0581L22.5551 16.0505C22.4364 15.9213 22.3631 15.8941 22.3094 15.9054C22.2384 15.9311 22.2308 16.018 22.2195 16.1125C22.2066 16.1654 22.2013 16.2478 22.1711 16.2697C22.0464 16.3218 21.9678 16.5425 21.9391 16.9265C21.9293 17.064 22.0033 17.1464 22.0691 17.1577C22.1159 17.1714 22.2066 17.1343 22.2542 16.9968C22.2799 16.9696 22.2943 16.9446 22.2943 16.9446C22.32 16.9265 22.3631 16.9492 22.3956 16.9696C22.4523 16.9809 22.5059 17.0043 22.5551 16.9809C22.5989 16.9809 22.6541 16.9809 22.6881 17.024C22.7236 17.064 22.7032 17.095 22.7032 17.095C22.6843 17.1268 22.6359 17.1827 22.6601 17.2182C22.6843 17.2515 22.7092 17.2515 22.7289 17.2515C22.7742 17.3074 22.8377 17.4586 22.9012 17.6014C22.8717 17.615 22.8256 17.615 22.8075 17.6226C22.7825 17.6226 22.7825 17.6226 22.7742 17.6226C22.1568 17.7503 21.9293 18.4025 21.8801 18.5212C21.28 18.7018 21.141 18.9724 21.0548 19.119C21.0374 19.1409 21.0284 19.1659 21.0208 19.1757C20.9626 19.246 20.9626 19.4017 20.9626 19.5634C20.9626 19.642 20.9626 19.7237 20.9392 19.7834C20.9331 19.828 20.9271 19.828 20.9036 19.8491C20.8636 19.868 20.8114 19.8884 20.7449 19.9814C20.6119 20.1643 20.6119 20.3555 20.6316 20.8732C20.6316 21.069 20.6762 21.1952 20.7797 21.2609C20.918 21.3562 21.1289 21.2829 21.3518 21.2065C21.4554 21.1665 21.4901 21.1665 21.4901 21.1665C21.506 21.1725 21.509 21.1725 21.509 21.1884C21.509 21.2239 21.509 21.2829 21.5922 21.3169C21.704 21.5602 21.9678 21.8656 22.4863 21.9963C22.7568 22.7982 23.0002 22.895 23.335 23.0506C23.3902 23.0756 23.4424 23.09 23.4824 23.1224C23.5466 23.1519 23.592 23.1746 23.6351 23.2003C23.8875 23.3326 23.9109 23.3326 24.2231 23.1345L24.2828 23.0975C24.4151 23.0144 24.5224 23.0015 24.5919 23.0597C24.6818 23.1345 24.6917 23.2985 24.6818 23.3688C24.6562 23.4996 24.6327 23.8949 24.9071 24.0037C25.0643 24.0627 25.0968 24.1057 25.1701 24.2161C25.186 24.2486 25.229 24.3128 25.2782 24.3597C25.1701 24.5804 25.2646 24.8713 25.3046 24.99C25.3046 24.9938 25.3046 25.0029 25.3046 25.0029C25.229 25.0369 25.127 25.0527 25.0862 25.0029C25.0469 24.9454 25.0076 24.9129 24.9517 24.9069C24.8784 24.8955 24.805 24.9409 24.6917 25.0263C24.5587 25.1654 24.3561 25.0527 24.2427 24.956C24.0991 24.798 23.7636 24.8139 23.5618 24.9681C23.3902 25.1208 23.2806 25.0527 23.0781 24.9243V24.9129C22.8899 24.798 22.5407 24.8381 22.4659 24.9409C22.4364 24.9681 22.4364 25.0263 22.4961 25.0595C22.6148 25.151 22.5218 25.3679 22.5218 25.3679L22.5059 25.3838V25.3996C22.5059 25.3996 22.5059 25.8954 22.4659 26.163C22.3956 26.2136 22.3842 26.2733 22.3842 26.3074C22.3842 26.321 22.3842 26.3308 22.3842 26.3308C22.3094 26.3383 22.0434 26.4426 21.9096 26.5885C21.8491 26.6475 21.8204 26.7283 21.831 26.8168C21.8491 26.9263 21.831 26.9498 21.831 26.9498C21.8114 26.9604 21.7275 26.9127 21.6776 26.8802C21.6322 26.8485 21.5786 26.8168 21.5257 26.7903C21.4055 26.7329 21.3072 26.6822 21.24 26.6308C21.2188 26.6074 21.1999 26.5885 21.1704 26.5787C21.0707 26.5212 20.8825 26.5787 20.8114 26.6399L20.7956 26.6694L20.8054 26.6966C20.918 27.0042 20.7049 27.2974 20.7049 27.2974V27.3012C20.7049 27.3012 20.4147 27.8545 20.2265 27.9822C20.0247 28.1379 19.9763 28.2724 20.0489 28.518L20.0647 28.5354H20.0882C20.2023 28.5566 20.2023 28.5845 20.2915 28.7032C20.3315 28.7538 20.3806 28.8332 20.4456 28.9156C20.8054 29.53 21.8892 30.1188 22.2013 30.1951C22.8468 30.6577 23.2466 30.6577 23.5723 30.6577C23.6759 30.6577 23.7636 30.6577 23.8588 30.6577C23.9465 30.6766 24.0115 30.7113 24.0651 30.7824L24.047 30.799L24.0651 30.8262C24.0651 30.8262 24.0749 30.8262 24.0893 30.8262C24.2034 31.0416 24.1573 31.4309 24.0893 31.61C24.0152 31.6387 23.9608 31.6757 23.9412 31.7249C23.8535 31.9078 24.0115 32.2191 24.1203 32.4202C24.1445 32.4723 24.1626 32.5245 24.1732 32.5577C24.2427 32.7066 23.9608 33.0543 23.7545 33.1896C23.5315 33.1896 23.4038 33.244 23.335 33.312C23.2806 33.3846 23.2919 33.4397 23.2919 33.4397V33.4632C23.3297 33.4836 23.3547 33.5833 23.3297 33.6612C23.3048 33.6854 23.2806 33.7065 23.2466 33.7217C23.1378 33.7511 23.0781 33.7867 23.0781 33.8396C23.0493 33.9046 23.0781 33.959 23.1279 34.0466L23.1468 34.0875C23.202 34.1593 23.174 34.2295 23.1128 34.3233C23.103 34.3762 23.0781 34.4344 23.0781 34.4941C23.1128 34.9989 23.2919 35.0602 23.4688 35.1093C23.5066 35.1093 23.5315 35.141 23.5723 35.1418C23.5618 35.1856 23.5618 35.2166 23.5723 35.2446C23.6268 35.4063 23.8588 35.5688 24.1573 35.6822C24.2979 35.7321 24.3644 35.754 24.3712 35.7865C24.3803 35.7918 24.3712 35.8122 24.3606 35.8417C24.3606 35.8696 24.347 35.887 24.3349 35.9165C24.1573 35.9898 24.1626 36.1629 24.1732 36.3042C24.1732 36.3186 24.1732 36.3382 24.1732 36.3616C23.9805 36.4931 23.9608 36.6058 23.9805 36.7675C23.9177 36.8363 23.8875 36.893 23.9109 36.9474C23.9276 37.0229 24.0115 37.0494 24.047 37.0615C24.0651 37.1212 24.1785 37.3207 24.4891 37.3827H24.5186L24.5337 37.3646C24.5919 37.3049 24.6478 37.289 24.672 37.289C24.7053 37.289 24.7257 37.2928 24.7499 37.3207C24.7695 37.3464 24.805 37.3827 24.8353 37.3827C24.8353 37.3827 24.8587 37.3646 24.8836 37.3464C24.9335 37.2928 24.9335 37.2928 25.1701 37.3404L25.3424 37.3555C25.4716 37.3827 25.5495 37.4303 25.5397 37.4878C25.5397 37.549 25.4512 37.6223 25.3764 37.6223C25.1293 37.6223 24.8874 38.0433 24.8353 38.2163C24.7499 38.3894 24.7499 39.0152 24.9721 39.1414C25.0469 39.1853 25.0469 39.2321 25.056 39.3198C25.0771 39.4105 25.0862 39.5155 25.1996 39.6403C25.3764 39.8489 25.3666 40.0786 25.2547 40.1829C25.1595 40.2638 25.1157 40.3409 25.1051 40.4293C25.1051 40.5041 25.1595 40.588 25.229 40.6651C25.3764 40.7943 25.3424 40.8586 25.229 40.9803C25.0968 41.1284 25.229 41.402 25.3802 41.693C25.5094 41.9371 25.5351 42.2167 25.4369 42.4692C25.3802 42.6324 25.4059 42.6861 25.4369 42.7881C25.4611 42.8456 25.4807 42.9295 25.4807 43.0678C25.5004 43.33 25.6077 43.4865 25.7377 43.6595C25.7755 43.7245 25.8352 43.7948 25.8737 43.8576C25.9153 43.9309 25.9433 43.9702 25.9584 43.9997C25.9984 44.0299 26.0037 44.0586 26.0075 44.0692C26.0075 44.0692 25.9984 44.0934 25.9584 44.1047C25.9584 44.1289 25.9334 44.1417 25.9055 44.1742C25.7755 44.3073 25.8269 44.3866 25.8594 44.4947C25.8594 44.54 25.8941 44.5884 25.8941 44.6602C25.9055 44.7214 25.9153 44.7721 25.9334 44.8431C25.9984 45.0457 26.0529 45.2928 25.9493 45.4772C25.8594 45.4636 25.8269 45.4772 25.8102 45.5067C25.7755 45.5286 25.7755 45.5445 25.7861 45.5717H25.746L25.7619 45.6307C25.8548 45.9632 25.7619 46.3441 25.7619 46.3441L25.746 46.3713L25.7725 46.3842C25.7725 46.3842 25.9841 46.6623 26.1012 46.8278C26.1171 46.8679 26.1413 46.8928 26.1692 46.9185C26.1919 46.985 26.2388 47.044 26.3159 47.044C26.3589 47.0523 26.4202 46.9971 26.5056 46.9064C26.5592 46.8278 26.5963 46.7409 26.5804 46.6623C26.5592 46.5195 26.4202 46.4084 26.3234 46.3245C26.1919 46.2171 26.2312 45.7312 26.2388 45.5717C26.2388 45.4863 26.2645 45.4636 26.2751 45.4455C26.2894 45.4455 26.3234 45.4455 26.3589 45.4455H26.3642C26.3234 45.8982 26.3333 46.1461 26.4202 46.2413C26.4731 46.3094 26.5464 46.3094 26.5993 46.3094C26.6197 46.3094 26.631 46.3207 26.631 46.3207L26.6688 46.3245L26.6892 46.3094C26.891 46.0222 26.8132 45.7312 26.7761 45.6443C26.7761 45.6307 26.7761 45.6307 26.7761 45.6231C26.7761 45.5997 26.8502 45.5286 26.891 45.5158C26.888 45.6473 26.7867 46.3094 26.888 46.4265C26.9318 46.5195 26.9704 46.8172 26.925 46.9064C26.8328 47.0682 26.8502 47.1921 26.9802 47.3191C27.0248 47.369 27.0603 47.3947 27.0898 47.3947C27.1389 47.3947 27.1624 47.3576 27.2069 47.3191C27.2364 47.2941 27.2787 47.245 27.3453 47.1823C27.4533 47.109 27.4889 47.0682 27.4783 46.9971C27.4737 46.9639 27.4186 46.9382 27.3846 46.9185C27.3596 46.9064 27.3354 46.9004 27.3052 46.8928C27.2787 46.8679 27.2954 46.8301 27.3596 46.7114C27.3846 46.6449 27.4186 46.5436 27.4586 46.4265L27.4692 46.4084L27.4533 46.3963C27.3846 46.2882 27.374 46.1914 27.3596 46.0599C27.3596 45.9957 27.3596 45.9367 27.3354 45.8612C27.3188 45.7886 27.3188 45.747 27.3354 45.7236C27.3453 45.6443 27.3188 45.617 27.2069 45.5445C27.0384 45.4455 27.0528 45.3321 27.0528 45.3178C27.0603 45.2928 27.0981 45.0872 27.0641 44.961C27.0528 44.921 27.0641 44.8764 27.0739 44.8129C27.0981 44.7486 27.1223 44.6927 27.1336 44.5884C27.1336 44.4947 27.148 44.4652 27.148 44.4652L27.247 44.5151L27.2236 44.4176C27.2236 44.3949 27.2069 44.3435 27.247 44.3231C27.2787 44.2884 27.3354 44.2884 27.374 44.2884C27.513 44.3231 27.5622 44.4501 27.5523 44.5212C27.5327 44.5884 27.4979 44.5673 27.4979 44.5673C27.4186 44.5597 27.3906 44.5945 27.3906 44.6292C27.3453 44.7449 27.6166 45.159 27.804 45.2701C27.9862 45.3865 28.0073 45.617 27.9559 45.7886C27.9522 45.8256 27.9363 45.8649 27.9363 45.902C27.9113 45.9398 27.9113 45.9957 27.9015 46.0222C27.9015 46.0222 27.8872 46.0123 27.8826 45.9957C27.8191 45.8551 27.7405 45.834 27.6952 45.843C27.6022 45.8612 27.5523 45.9632 27.5327 46.1317C27.5214 46.2413 27.5327 46.3094 27.5879 46.3335C27.6445 46.3713 27.705 46.3441 27.7405 46.3207C27.7579 46.3441 27.7904 46.4265 27.8297 46.5799C27.8872 46.7643 27.9673 46.8679 28.0595 46.8679C28.1539 46.8928 28.259 46.8278 28.3512 46.6623C28.3762 46.6351 28.4087 46.595 28.42 46.5739C28.5228 46.4378 28.6112 46.3441 28.4449 46.162C28.3512 46.0599 28.361 45.973 28.3762 45.8551C28.3852 45.7841 28.3852 45.6979 28.3852 45.617V45.5997C28.4343 45.6231 28.4895 45.6443 28.5099 45.6662C28.5386 45.6798 28.5787 45.6979 28.6165 45.6798C28.6747 45.6662 28.6974 45.5997 28.7215 45.5067L28.7412 45.4455C28.8047 45.2701 28.7563 45.0956 28.587 44.961C28.4993 44.8764 28.4087 44.7214 28.3762 44.6171C28.4706 44.6292 28.5462 44.5945 28.5984 44.5431C28.649 44.4947 28.649 44.3866 28.5984 44.2884C28.587 44.2423 28.6112 44.1977 28.6324 44.1606C28.6505 44.1417 28.6664 44.1289 28.6815 44.1417C28.6974 44.1493 28.7155 44.2052 28.7057 44.3435C28.6505 44.7864 28.8742 45.0306 28.8833 45.0457L28.9521 45.119L28.9619 45.0124C28.9619 45.0124 28.9921 44.7864 29.1251 44.4274C29.2672 44.0851 29.2294 44.0087 29.0858 43.8198L29.0458 43.7759C29.0269 43.7487 29.008 43.714 29.0163 43.6747C29.0412 43.5673 29.1939 43.4404 29.2536 43.4048V43.395C29.265 43.4593 29.2884 43.5212 29.2884 43.5938C29.4123 43.9573 29.6149 43.5273 29.7865 42.9945C29.9406 42.4692 30.0238 41.7799 30.4191 42.3626C30.5506 42.5689 30.6843 42.7579 30.8075 42.9295C30.8007 42.9574 30.7773 42.9725 30.7622 42.9945H30.7584C30.6639 43.3202 30.7289 43.6966 30.8226 43.912C30.837 44.0261 30.8189 44.2332 30.7289 44.3776C30.5755 44.6406 30.8189 44.8945 30.902 44.9792C31.0539 45.1205 31.0048 45.4772 31.0048 45.4772H31.0993C31.0993 45.4772 31.1423 45.0956 30.97 44.9119C30.7682 44.7214 30.7131 44.5597 30.8007 44.4274C30.8718 44.3231 30.902 44.1977 30.9156 44.0692C30.9156 44.0692 30.9466 44.0851 30.9504 44.0934C30.9254 44.5884 30.9889 44.8945 31.1371 45.0185C31.2474 45.1205 31.36 45.119 31.4394 45.0956C31.49 45.2036 31.5875 45.2422 31.6555 45.2422C31.6722 45.2422 31.6903 45.2422 31.6903 45.2422C31.6555 45.4145 31.5762 45.8128 31.7991 45.973C31.8838 46.0342 31.9465 46.0531 32.0115 46.0222C32.0289 46.1257 32.1098 46.1461 32.2307 46.2134C32.2677 46.2134 32.2957 46.2285 32.3259 46.2519C32.5935 46.3713 32.7703 46.2413 33.0326 46.0395C33.2737 45.8612 33.3236 45.5823 33.3236 45.5188C33.3236 45.5067 33.3273 45.4772 33.3621 45.4455C33.3273 45.5067 33.3273 45.5717 33.3273 45.6307V45.6473C33.3621 45.877 33.3621 45.9488 33.4211 45.973C33.4513 45.9957 33.5057 45.973 33.539 45.9632C33.6841 45.8982 33.7226 45.8551 33.6886 45.6798C33.6538 45.5445 33.7226 45.3321 33.8027 45.2701C33.867 45.2127 33.9191 45.119 33.8957 45.0457C33.867 44.9882 33.8209 44.9451 33.6841 44.9451H33.6674L33.6485 44.9504C33.6395 44.961 33.4513 45.1545 33.3719 45.3707C33.3923 45.3079 33.3923 45.2422 33.3273 45.1757C33.2911 45.1409 33.2631 45.1205 33.2193 45.1205C33.1603 45.1205 33.1218 45.159 33.087 45.2036C33.0764 45.221 33.056 45.2422 33.0326 45.2701C33.0016 45.2701 32.9721 45.2943 32.9721 45.2943C32.9721 45.2943 32.9381 45.2822 32.9086 45.2036C32.8784 45.159 32.8451 45.1205 32.8051 45.119C32.7461 45.0956 32.6615 45.119 32.5935 45.1205L32.5972 45.119C32.6169 45.0872 32.6275 45.0683 32.6517 45.0306C32.7167 44.9451 32.8051 44.8129 32.8051 44.5945C32.83 44.5945 32.8451 44.5945 32.8784 44.5884C32.9721 44.5597 32.9819 44.5673 33.0016 44.5945C33.0167 44.6406 33.056 44.701 33.1747 44.7486C33.4006 44.8431 33.5994 44.7214 33.6931 44.6292C33.7408 44.6927 33.7914 44.7214 33.8556 44.7214C33.9101 44.701 33.9682 44.6617 34.0091 44.6292C34.26 44.5945 34.6636 44.3231 34.9304 44.1289C34.9508 44.1259 34.9704 44.1032 34.9855 44.0934C34.9644 44.1742 34.9508 44.2634 34.9349 44.3435C34.8374 44.3435 34.7384 44.3776 34.656 44.432C34.4217 44.6171 34.393 44.9882 34.393 45.0124V45.0457C34.458 45.119 34.5215 45.1205 34.6092 45.119C34.7187 45.0683 34.8616 44.9451 34.9349 44.7297C34.9568 44.9451 35.0052 45.0683 35.0052 45.0797L35.0211 45.119H35.0536L35.3204 45.0797C35.3566 45.0812 35.4443 45.0956 35.5085 45.0494C35.5463 45.0306 35.566 44.9882 35.5819 44.961C35.597 44.8764 35.7776 44.7449 35.9265 44.6292C35.996 44.5884 36.0504 44.5212 36.1147 44.4947C36.312 44.3231 36.5478 43.7759 36.6173 43.3255C36.6619 42.9574 36.7405 42.8675 36.7601 42.8456C36.7753 42.8395 36.7896 42.8312 36.7896 42.8312C36.8387 42.8486 36.9325 42.8675 37.0269 42.8554C37.0405 42.9945 37.0715 43.4237 36.9189 43.6966C36.7171 44.0692 36.6521 44.2332 36.6521 44.3571C36.6521 44.463 36.6619 44.5884 36.7405 44.6171C36.7896 44.6406 36.8501 44.6292 36.9287 44.5673C37.1252 44.4176 37.4426 43.8757 37.4252 43.5212C37.4252 43.5212 37.392 42.6695 37.392 42.603C37.4252 42.4941 37.401 42.3762 37.3761 42.2167C37.3481 42.0905 37.3073 41.9371 37.3073 41.7663C37.3073 41.7126 37.2998 41.5751 37.3073 41.5426C37.3247 41.5426 37.3481 41.5569 37.361 41.5751C37.4131 41.5925 37.5061 41.634 37.6255 41.6559C37.9528 41.693 38.5559 41.634 38.9708 41.5569L38.9806 41.5426L38.989 41.5365C39.0502 41.4617 39.1424 41.4353 39.1976 41.4096C39.2663 41.3824 39.3155 41.365 39.3155 41.3053C39.3155 41.3015 39.3155 41.2901 39.3155 41.2901C39.3155 41.0377 39.4258 40.8586 39.6563 40.7656C40.0115 40.6394 39.9813 40.4255 39.9367 40.2638C40.456 40.7165 41.446 42.1971 41.6259 42.6861C41.5995 43.0678 41.7023 43.2386 41.7982 43.395C41.8066 43.4237 41.836 43.485 41.8564 43.5212C41.7982 43.7034 41.9245 43.9702 42.1126 44.1417C42.195 44.2271 42.195 44.2695 42.22 44.3866C42.2268 44.4773 42.2268 44.5884 42.2797 44.7486C42.1633 45.1258 42.3386 45.3896 42.458 45.5558L42.4724 45.5936C42.2955 46.2693 42.4036 46.3895 42.5948 46.4703C42.5948 46.4703 42.5948 46.4703 42.6054 46.4703C42.6243 46.6547 42.7037 46.75 42.8269 46.9185C42.8579 46.9427 42.8919 46.985 42.9077 47.0266C42.8919 47.078 42.8677 47.1468 42.8443 47.2246C42.7483 47.1687 42.7581 47.0364 42.7581 47.0364V47.0266C42.7581 46.9971 42.7437 46.75 42.5948 46.7114C42.5117 46.6721 42.458 46.5557 42.4384 46.5195L42.4225 46.4575L42.3802 46.4892C42.2442 46.5799 42.0582 46.7923 42.1875 47.0266C42.3386 47.2609 42.3938 47.4536 42.3545 47.5919C42.3386 47.6471 42.3545 47.7227 42.3583 47.7847C42.3817 47.8867 42.3817 47.9245 42.3303 47.9449C42.2268 47.9842 42.1761 48.0265 42.1633 48.0855C42.1633 48.1293 42.1875 48.1882 42.2797 48.2396C42.4036 48.3182 42.5563 48.4006 42.6568 48.2933C42.6855 48.2532 42.7324 48.2495 42.7702 48.2396C42.7702 48.4074 42.7702 48.5367 42.7702 48.5624V48.5729L42.7785 48.5888C42.7815 48.5949 43.2758 49.2161 43.2237 49.6787C43.1541 50.1843 43.5434 50.6786 43.7595 50.8305C43.9779 50.9703 44.111 51.1766 44.12 51.3497C44.1351 51.5749 44.3014 51.9921 44.5145 52.1274C44.6226 52.1909 44.677 52.3375 44.7368 52.5099C44.7912 52.6474 44.8342 52.8031 44.9197 52.9505C45.036 53.1455 45.1471 53.1591 45.1955 53.1591C45.2643 53.1591 45.3134 53.1243 45.3489 53.0608C45.3678 53.0155 45.3678 52.9505 45.3285 52.9036C45.2537 52.8076 45.2446 52.7094 45.2212 52.5492V52.4449L45.1955 52.4124L45.1804 52.3965C45.036 52.3375 44.9642 52.0254 44.9484 51.9249V51.9113L44.9325 51.9045C44.7912 51.7216 44.6529 51.4752 44.6687 51.4019C44.7103 51.2636 44.6529 50.9522 44.5282 50.7851V50.7791C44.3793 50.6529 44.3709 50.5682 44.3521 50.4836C44.3422 50.4148 44.3369 50.3506 44.2538 50.2485C44.0943 50.1049 44.1835 49.7376 44.1835 49.7376V49.724C44.1487 49.5464 44.1487 49.3491 44.1487 49.2917C44.3793 49.2789 44.5047 48.9622 44.5282 48.8813C44.5282 48.8715 44.5282 48.8556 44.5282 48.8435C44.5387 48.7944 44.5644 48.7218 44.5833 48.6969C44.5969 48.6969 44.6075 48.6969 44.6075 48.6969C44.6929 48.7218 44.7655 48.7218 44.8108 48.6795C44.8562 48.6583 44.8955 48.6017 44.9136 48.5147C44.9197 48.4384 44.9197 48.4384 45.0073 48.4384C45.036 48.4384 45.0663 48.4384 45.1101 48.4384C45.1502 48.4384 45.1955 48.4641 45.2446 48.5147C45.3134 48.5949 45.3331 48.6969 45.3285 48.7589C45.3134 48.8322 45.3535 48.9289 45.4366 49.0053C45.5114 49.0566 45.6505 49.0861 45.8614 48.9788C45.9445 48.9365 46.005 48.9289 46.0488 48.9576C46.172 49.0053 46.2302 49.204 46.2959 49.3612C46.3088 49.4149 46.3254 49.4738 46.3496 49.5094C46.4086 49.6409 46.4705 49.7157 46.537 49.7029C46.5771 49.7029 46.6345 49.6915 46.6655 49.5653C46.6852 49.5094 46.7094 49.5094 46.754 49.5094C46.788 49.5094 46.8522 49.5207 46.8711 49.4738C46.9323 49.396 47.0933 49.1844 46.9422 49.0453Z" fill="#FFF200"/>
<path id="Vector_4" fill-rule="evenodd" clip-rule="evenodd" d="M38.107 41.8675C38.0919 41.8252 38.0578 41.7995 38.0329 41.77C37.9755 41.7224 37.8855 41.6982 37.8273 41.7224C37.8273 41.7224 37.7873 41.7224 37.7533 41.7224C37.7011 41.7224 37.6391 41.7224 37.6036 41.77C37.5598 41.8108 37.5499 41.8728 37.5855 41.9552V41.9718L37.587 41.9816C37.587 41.9816 37.723 42.1849 37.6391 42.4827C37.5499 42.782 37.6036 43.0201 37.6036 43.0435C37.6036 43.1282 37.587 44.1031 37.4713 44.3949L37.4661 44.4107C37.4661 44.45 37.4713 44.5029 37.5061 44.5596C37.4555 44.4946 37.392 44.4773 37.358 44.4773C37.3247 44.4773 37.2922 44.4773 37.2499 44.45L37.2114 44.4175L37.1894 44.4652C37.1789 44.4946 37.0851 44.701 37.16 44.831C37.1894 44.8763 37.2499 44.9118 37.3073 44.9209C37.4555 44.9451 37.5205 44.8763 37.5499 44.831C37.587 44.7486 37.5756 44.6443 37.5205 44.5884C37.5205 44.5884 37.5499 44.5944 37.5756 44.6171C37.6036 44.6292 37.6777 44.6405 37.7631 44.5528C37.7873 44.5211 37.8273 44.4946 37.8606 44.45C38.0291 44.3072 38.3148 44.0585 38.3934 43.6187C38.4917 43.0753 38.4221 42.9725 38.3088 42.7881V42.782C38.28 42.754 38.2642 42.7253 38.2407 42.686C38.0979 42.4691 37.9777 42.2628 38.107 42.1033C38.2052 42.2991 38.367 42.5689 38.4917 42.5908C38.5075 42.6006 38.5468 42.5908 38.5703 42.5734C38.67 42.4374 38.5846 42.2726 38.4682 42.0338C38.367 41.8456 38.2052 41.8252 38.107 41.8675Z" fill="#FFF200"/>
<path id="Vector_5" fill-rule="evenodd" clip-rule="evenodd" d="M40.3207 41.7223C40.2293 41.29 39.8415 40.996 39.8234 40.993L39.778 40.9628L39.7463 41.0119C39.4621 41.8455 39.6216 42.1191 39.6458 42.1577C39.6692 42.1811 39.9368 42.6535 40.0116 42.8031C40.0554 42.884 40.0955 42.9188 40.1514 42.9188C40.2391 42.9293 40.332 42.8553 40.4802 42.6693C40.6124 42.4827 40.5346 42.3149 40.4462 42.1033C40.4054 42.008 40.3668 41.8818 40.3207 41.7223Z" fill="#FFF200"/>
<path id="Vector_6" fill-rule="evenodd" clip-rule="evenodd" d="M27.7451 46.6909C27.6801 46.6622 27.6113 46.7075 27.5622 46.7499C27.5214 46.8043 27.498 46.8708 27.5214 46.938C27.5524 47.0363 27.6801 47.0779 27.7685 47.0522C27.8298 47.0265 27.9016 46.9637 27.8683 46.8277C27.8328 46.7264 27.7905 46.7075 27.7451 46.6909Z" fill="#FFF200"/>
<path id="Vector_7" fill-rule="evenodd" clip-rule="evenodd" d="M29.2249 46.3842C29.2294 46.3244 29.2294 46.264 29.141 46.2133C29.1055 46.196 29.0564 46.1461 29.0412 46.0932C29.008 46.0221 28.9762 45.9632 28.9286 45.9397C28.8833 45.9367 28.85 45.9397 28.8198 45.973H28.8047V45.9957C28.8047 45.9957 28.6974 46.2413 28.8546 46.4083C29.008 46.5436 29.008 46.6064 28.9521 46.6721C28.9135 46.7409 28.8999 46.8172 28.9286 46.8679C28.9385 46.8966 28.9921 46.9457 29.1153 46.9457C29.203 46.9457 29.265 46.9185 29.2884 46.8709C29.3269 46.8044 29.3171 46.7175 29.2536 46.595C29.203 46.4892 29.203 46.4378 29.2249 46.3842Z" fill="#FFF200"/>
<path id="Vector_8" fill-rule="evenodd" clip-rule="evenodd" d="M29.7079 46.1733C29.6587 46.1461 29.6149 46.1257 29.5695 46.075C29.4373 45.9632 29.4705 45.8052 29.4955 45.6979C29.5106 45.6306 29.4758 45.5558 29.4373 45.4893C29.3761 45.4319 29.3027 45.4084 29.2536 45.4145C29.1796 45.4198 29.0858 45.3533 29.0269 45.3321L28.9921 45.2943L28.9521 45.3434C28.85 45.5286 28.8742 45.7236 28.9173 45.8128C28.9521 45.9488 29.0314 46.0531 29.0858 46.0599C29.0858 46.075 29.1055 46.075 29.1214 46.0932C29.1743 46.0932 29.2536 46.1257 29.2884 46.2519C29.333 46.4575 29.4305 46.4892 29.5393 46.5361C29.5393 46.5436 29.5643 46.5436 29.5794 46.5557C29.6587 46.595 29.729 46.595 29.7865 46.5557C29.8446 46.5285 29.8756 46.4703 29.89 46.4083C29.8998 46.3245 29.8167 46.264 29.7079 46.1733Z" fill="#FFF200"/>
<path id="Vector_9" fill-rule="evenodd" clip-rule="evenodd" d="M30.2188 45.8256C30.1818 45.8052 30.1372 45.7841 30.1175 45.7667L30.1115 45.7417C30.0472 45.6442 29.9407 45.4772 30.0132 45.2822C30.045 45.2127 30.0684 45.159 30.1017 45.0955C30.1523 44.9882 30.2022 44.8945 30.1697 44.831C30.1523 44.8212 30.1372 44.8 30.082 44.7864C30.0238 44.7721 29.9543 44.7721 29.9051 44.7721C29.9807 44.5944 29.9543 44.2883 29.9407 44.2483L29.8598 44.2634C29.8689 44.4176 29.8598 44.701 29.8046 44.7721C29.6882 44.8945 29.5189 45.2928 29.5696 45.5286C29.5794 45.5445 29.5794 45.5717 29.5847 45.5936C29.6285 45.8128 29.7079 46.1914 30.1372 46.097C30.2891 46.075 30.3541 46.0395 30.3579 45.9957C30.3783 45.9201 30.2891 45.877 30.2188 45.8256Z" fill="#FFF200"/>
<path id="Vector_10" fill-rule="evenodd" clip-rule="evenodd" d="M34.3001 45.4053C34.319 45.3532 34.3288 45.332 34.3454 45.2927C34.3931 45.168 34.458 45.0184 34.3001 44.945C34.2563 44.8944 34.1913 44.8763 34.1421 44.8634C34.0681 44.8309 34.0371 44.8128 34.0235 44.7606C34.0235 44.7485 34.0136 44.7485 34.0136 44.7485L33.9313 44.7863C33.9313 44.7916 34.0371 45.0304 33.8995 45.2421C33.7763 45.4227 33.7227 45.5444 33.7627 45.623C33.7914 45.6585 33.8209 45.6797 33.867 45.6691C34.1066 45.6472 34.2563 45.5716 34.3001 45.4053Z" fill="#FFF200"/>
<path id="Vector_11" fill-rule="evenodd" clip-rule="evenodd" d="M35.0687 45.2037C35.0687 45.1682 35.0347 45.1591 35.0347 45.1591C35.0143 45.1546 34.9856 45.1591 34.9644 45.1758C34.9508 45.2037 34.9153 45.2037 34.8488 45.1946C34.7936 45.1946 34.6999 45.1946 34.5979 45.2423C34.4134 45.3534 34.458 45.7313 34.4724 45.7842L34.557 45.7668C34.557 45.7471 34.5979 45.7366 34.6795 45.7237C34.7483 45.698 34.8427 45.6799 34.9153 45.6073C35.0347 45.5068 35.0997 45.2823 35.0687 45.2037Z" fill="#FFF200"/>
<path id="Vector_12" fill-rule="evenodd" clip-rule="evenodd" d="M35.7247 45.2944C35.7451 45.2823 35.7701 45.2211 35.7451 45.1758C35.7111 45.1206 35.631 45.1191 35.5463 45.1191C35.4284 45.0957 35.3604 45.1592 35.2659 45.2703C35.2372 45.2703 35.2161 45.2944 35.1873 45.3277C35.0347 45.4713 35.0778 45.6308 35.0778 45.6444L35.0997 45.6693H35.1186C35.498 45.7056 35.6718 45.4055 35.7247 45.2944Z" fill="#FFF200"/>
<path id="Vector_13" fill-rule="evenodd" clip-rule="evenodd" d="M30.8869 45.3533C30.8718 45.2128 30.837 44.9452 30.6156 44.8129C30.6639 44.5885 30.639 43.912 30.4712 43.714C30.3072 43.5455 30.4327 43.194 30.4327 43.1918L30.3397 43.1562C30.3397 43.1797 30.2097 43.5674 30.4032 43.776C30.5468 43.934 30.5755 44.5431 30.5347 44.7487C30.2996 44.5945 30.1409 44.3232 30.1409 44.3073L30.0684 44.3572C30.0684 44.3776 30.2505 44.6928 30.506 44.8432C30.4765 44.8764 30.4591 44.921 30.4591 44.921C30.3881 45.0812 30.3578 45.1206 30.4425 45.2037C30.4032 45.2422 30.354 45.2944 30.3782 45.4229C30.3881 45.6232 30.4032 45.6443 30.506 45.7055C30.5347 45.7312 30.5755 45.7418 30.6156 45.7841C30.6942 45.8552 30.7584 45.8257 30.8007 45.7977C30.8869 45.7365 30.9156 45.5287 30.8869 45.4319C30.8869 45.4198 30.8869 45.3941 30.8869 45.3533Z" fill="#FFF200"/>
<path id="Vector_14" fill-rule="evenodd" clip-rule="evenodd" d="M34.0484 45.7887C33.9584 45.7887 33.8995 45.8907 33.867 45.9731C33.8602 46.0396 33.867 46.0971 33.8957 46.1318C33.9547 46.1734 34.1225 46.1961 34.1912 46.1318C34.2268 46.0971 34.2842 46.0222 34.2109 45.8983C34.1497 45.7887 34.0824 45.7842 34.0484 45.7887Z" fill="#FFF200"/>
<path id="Vector_15" fill-rule="evenodd" clip-rule="evenodd" d="M34.4134 45.861C34.393 45.8549 34.3575 45.8549 34.3408 45.8647C34.2841 45.9018 34.2403 46.0121 34.26 46.093C34.2645 46.1459 34.3 46.2132 34.3688 46.2411C34.4912 46.285 34.5358 46.2169 34.5426 46.1912C34.5759 46.093 34.5071 45.9018 34.4134 45.861Z" fill="#FFF200"/>
<path id="Vector_16" fill-rule="evenodd" clip-rule="evenodd" d="M35.7293 45.3706L35.7451 45.4772C35.7451 45.5716 35.7247 45.6472 35.7111 45.7417C35.6854 45.843 35.6801 45.9201 35.6801 45.9956C35.6718 45.973 35.6522 45.9631 35.6446 45.9488C35.591 45.9019 35.5275 45.9019 35.4882 45.9488C35.4443 45.9956 35.4383 46.0531 35.4738 46.1256C35.498 46.1959 35.566 46.2851 35.6446 46.2851C35.6801 46.2881 35.7111 46.2692 35.7247 46.2413C35.7293 46.2284 35.7451 46.2133 35.7451 46.2133C35.7451 46.2692 35.8033 46.3206 35.8578 46.3206C35.9228 46.3244 35.9764 46.2851 35.9764 46.2133C35.9764 46.1619 35.9719 46.1317 35.9424 46.1173C36.0286 46.0599 36.0603 46.0123 36.08 45.9631C36.1147 45.7666 35.8487 45.4772 35.8033 45.4454L35.7293 45.3706Z" fill="#FFF200"/>
<path id="Vector_17" fill-rule="evenodd" clip-rule="evenodd" d="M42.3938 45.9202C42.4384 45.7607 42.492 45.6073 42.3091 45.4637L42.2955 45.4456H42.2796C42.2796 45.4456 42.0333 45.4456 42.0333 45.7842C42.0333 46.06 41.9894 46.5951 41.9781 46.7115C41.9781 46.741 41.9894 46.7682 41.9894 46.7682C42.0151 46.7924 42.0386 46.7954 42.068 46.7826C42.1557 46.7501 42.2796 46.5195 42.3091 46.2414C42.3303 46.097 42.3545 46.0124 42.3938 45.9202Z" fill="#FFF200"/>
<path id="Vector_18" d="M59.8579 37.7379L61.8146 39.969L64.4682 38.6471L62.9589 41.1972L65.0411 43.3202L62.1449 42.6694L60.7739 45.2943L60.4935 42.3392L57.5814 41.8676L60.2962 40.681L59.8579 37.7379Z" fill="#E11837"/>
<path id="Vector_19" d="M55.6609 53.7275L56.1303 50.8018L53.4185 49.5956L56.3517 49.1323L56.6669 46.1733L58.0047 48.8322L60.9069 48.2079L58.8081 50.3143L60.2758 52.8802L57.6441 51.5251L55.6609 53.7275Z" fill="#E11837"/>
<path id="Vector_20" d="M8.12928 37.7379L6.17632 39.969L3.51216 38.6471L5.02752 41.1972L2.95514 43.3202L5.83924 42.6694L7.21629 45.2943L7.49215 42.3392L10.4322 41.8676L7.70982 40.681L8.12928 37.7379Z" fill="#E11837"/>
<path id="Vector_21" d="M12.3156 53.7275L11.8523 50.8018L14.5709 49.5956L11.6407 49.1323L11.3248 46.1733L9.97797 48.8322L7.08405 48.2079L9.17834 50.3143L7.70984 52.8802L10.3392 51.5251L12.3156 53.7275Z" fill="#E11837"/>
<path id="Vector_22" d="M4.30569 25.3481C4.1636 25.7593 3.98977 26.4554 3.93157 27.0041L4.61179 27.1288C4.61179 27.1288 3.38363 28.3169 3.37456 29.867C3.35869 31.034 4.47877 32.5244 4.94736 32.25C5.18845 32.1147 5.43484 31.6779 5.18845 30.6402C5.10607 30.2502 5.2731 29.2775 5.49984 29.2775C5.71524 29.2919 6.21028 29.5466 6.45214 31.1352C6.76352 30.9493 7.17618 30.6243 7.17618 30.6243C7.17618 30.6243 6.70759 28.4764 5.81576 28.4832C4.64051 28.499 4.86346 30.4392 4.51353 30.415C4.27092 30.4074 3.62548 28.5844 5.18392 27.3011C5.44467 27.3487 7.96296 27.9677 7.96296 27.9677C8.0204 27.6843 8.15871 27.0041 8.15871 27.0041L4.88916 26.1848L5.09096 25.5802L4.30569 25.3481Z" fill="#007355"/>
<path id="Vector_23" d="M7.30018 22.5277L8.3409 22.4438C8.44974 25.0112 7.47023 25.2516 6.86711 25.3347C6.03196 25.433 3.60588 22.5466 7.23443 20.1326L6.62904 19.7237C6.7477 19.4343 7.08402 18.7231 7.45965 18.2635L8.10963 18.621C8.10963 18.621 7.84133 18.977 7.66674 19.2982L10.6529 20.9693C10.6529 20.9693 10.3921 21.4424 10.2296 21.8044C10.2296 21.8044 8.10963 20.6859 8.12928 20.6723C5.58378 21.258 6.16498 24.9561 6.72956 24.941C7.18076 24.9243 7.74383 24.5283 7.30018 22.5277Z" fill="#007355"/>
<path id="Vector_24" d="M25.4716 5.79833L26.3937 6.51482C26.3937 6.51482 27.148 4.73266 28.2832 5.49979C28.9029 5.91623 27.6022 7.81024 25.9583 7.65833C24.6327 7.54345 23.2919 6.32738 23.2919 6.32738L22.9745 6.45964C22.9745 6.45964 24.6327 8.84189 27.4004 8.2554C28.3761 8.05512 29.4123 6.27069 28.9921 5.52473C28.5628 4.76214 26.891 4.20436 25.4716 5.79833Z" fill="#007355"/>
<path id="Vector_25" d="M47.119 9.46008C47.119 9.46008 48.6071 10.7396 49.2458 12.5029C49.1846 12.6011 48.9941 12.9594 48.9941 12.9594C48.9941 12.9594 48.9238 11.7343 46.6443 10.2257C46.7093 10.0859 47.119 9.46008 47.119 9.46008Z" fill="#007355"/>
<path id="Vector_26" d="M51.9168 8.8418C51.9168 8.8418 57.6336 12.7644 61.2077 19.1659C62.2273 20.9753 63.0564 23.09 63.6701 25.4329C63.8998 26.3421 63.3776 28.02 62.8508 28.0593C63.3693 28.3881 64.7002 29.6653 63.4426 31.0696C63.9595 31.0696 64.7743 31.0106 64.7743 31.0106C64.7743 31.0106 64.8589 32.1821 64.8725 32.6583H64.0971C64.1288 32.4119 64.0638 31.8927 64.0638 31.8927L60.6409 32.0597C60.6356 31.5692 60.5706 31.1973 60.5706 31.1973L62.2786 31.1089C62.2786 31.1089 63.3322 31.028 63.2393 29.7054C63.1856 28.9768 62.3331 28.4432 62.0459 28.636C61.7738 28.8332 61.8146 29.4492 62.2643 30.0153C62.0852 30.1619 61.4707 30.5753 61.4707 30.5753C61.4707 30.5753 60.4542 29.7984 61.4586 28.3412C60.9069 28.0359 60.2758 27.3012 60.3348 26.0474C60.5706 26.0202 61.3694 26.0474 61.3694 26.0474C61.3694 26.0474 61.0898 27.9195 61.9922 27.8416C62.2348 27.8295 63.274 27.4214 62.7964 25.0596C62.6679 24.4466 61.5025 21.3169 60.9069 20.4643C60.5706 20.648 59.0945 21.369 59.0945 21.369C59.0945 21.369 60.6839 22.8632 61.0051 23.4996C60.9674 23.8291 60.656 24.7338 60.656 24.7535C60.0249 24.3861 59.4618 23.9032 58.143 24.6983C58.0099 24.5524 57.9404 24.34 57.9404 24.34C57.9404 24.34 58.8081 23.6137 59.9297 23.5616C59.8314 23.4361 59.0945 22.5685 58.0099 21.9759C57.9616 21.7885 57.8913 20.8173 57.8913 20.8173L60.4632 19.5907C60.4632 19.5907 58.9811 17.5251 56.7909 18.3262C56.3578 18.4812 55.9973 19.7668 57.1461 20.0993C57.106 20.3139 56.8196 20.8475 56.8196 20.8475C56.8196 20.8475 55.2233 19.995 56.2376 18.2635C56.5687 17.7072 58.0591 17.1903 59.3477 17.7072C59.2389 17.5341 58.1354 15.9205 58.0099 15.7905C57.8323 15.8941 55.1576 17.7193 55.1576 17.7193L54.6263 17.0829L57.4189 15.0468L56.5838 14.062L53.8856 16.213L53.3618 15.6235C53.3618 15.6235 54.4078 14.8277 54.6754 14.5594C54.9558 14.291 54.562 13.2352 52.7708 13.7461C52.7768 13.4037 53.0187 11.2671 50.9456 11.3994C50.6047 11.4168 50.4588 11.4629 50.4142 11.6443C50.35 11.9526 50.7287 12.5248 51.6946 12.4635C51.7006 12.5709 51.721 13.3471 51.721 13.3471C51.721 13.3471 49.5164 13.2654 50.0696 11.3639C50.2117 10.862 52.4042 9.34667 53.1797 12.6079C53.4321 12.6291 54.4577 12.3577 55.0654 14.1149C55.2233 14.0439 55.9867 13.4037 55.9867 13.4037C55.9867 13.4037 53.9204 11.2278 51.4633 9.46003L51.9168 8.8418Z" fill="#007355"/>
<path id="Vector_27" d="M26.3589 62.7621L26.3332 63.4718C26.3332 63.4718 27.1978 63.6705 27.5878 64.2124C27.6505 63.9525 27.8191 63.6312 27.8191 63.6312C27.8191 63.6312 27.5213 62.9246 26.3589 62.7621Z" fill="#007355"/>
<path id="Vector_28" d="M48.3781 60.2174L48.4114 60.8674C48.4114 60.8674 47.6699 60.8394 46.9958 61.3571C46.9451 61.1977 46.8189 60.7011 46.8189 60.7011C46.8189 60.7011 47.3495 60.2552 48.3781 60.2174Z" fill="#007355"/>
<path id="Vector_29" d="M11.3694 16.2697C11.3694 16.2697 10.5607 16.1125 10.3392 16.0951C10.2516 15.455 10.9257 13.9744 11.9967 14.2737L11.3694 16.2697ZM37.0171 3.26632C37.1169 2.62087 35.4285 0.084438 31.9465 1.48038C32.0115 1.73508 32.1189 2.35257 32.1189 2.35257C32.1189 2.35257 36.0505 0.84174 36.2719 3.21417C34.4218 3.02371 28.1495 2.69494 21.24 5.87682C16.4997 7.83583 12.302 11.8891 11.6846 12.6495L12.4396 13.4627C12.4396 13.4627 8.93725 12.6888 9.10051 16.965C9.11562 17.3512 9.80944 17.2605 9.90391 16.9083C10.0475 16.3294 10.9333 15.9213 10.8796 17.1343C11.2016 17.1026 11.708 17.1026 11.708 17.1026L12.8099 13.8859L14.0683 15.1647C14.0683 15.1647 12.9218 15.2993 12.59 16.018C12.1622 16.9492 12.0874 18.2302 11.3936 18.3867C11.2167 18.435 10.5063 18.1698 10.3529 17.8697C10.3241 17.9959 10.3181 18.4199 10.3181 18.4199C10.3181 18.4199 10.9257 19.051 11.6218 19.0064C11.9967 18.9769 12.9218 18.7706 13.3125 16.6688C13.3624 16.4239 13.5332 15.3151 14.7478 15.4746C15.0274 15.1882 15.1536 15.0733 15.1536 15.0733L12.8651 12.5089C12.8651 12.5089 14.3827 10.9981 15.4136 10.2967C15.3789 10.571 15.3887 11.3208 15.9472 11.478C17.8964 12.0373 18.0982 10.2256 18.334 10.274C18.566 10.342 18.7195 12.0055 16.7159 12.3328C15.3789 12.5421 14.2739 11.8521 14.2293 11.9526C14.19 12.0637 14.088 12.3328 14.088 12.3139C15.0251 12.8157 17.1542 13.1377 18.3877 12.5089C19.5433 11.933 19.8463 9.51141 17.6198 9.65653C17.3039 11.1908 16.4528 11.116 16.2412 10.9769C16.016 10.8363 15.9268 9.67315 17.4648 8.81458C17.8004 8.91056 19.3158 9.06247 19.6808 8.84178C19.6649 9.14863 19.349 10.274 20.2265 11.518C20.4457 11.4939 20.7608 11.3208 20.7608 11.3208C20.7608 11.3208 19.8463 10.5151 20.8258 8.27041C20.7049 8.13512 20.3724 7.81013 20.3724 7.81013C20.3724 7.81013 19.9763 8.56592 19.0286 8.55005C18.4912 8.53569 18.0997 8.61051 18.0574 8.42232C18.2138 8.3543 20.4056 7.0687 21.2287 6.69609L22.5218 9.85983C22.7826 9.60362 23.3298 9.52275 23.3298 9.52275L22.0434 6.35221C22.0434 6.35221 26.6893 3.9556 33.7567 3.87246C33.9313 3.86717 34.1066 4.5043 33.7408 4.63127C33.2737 4.51035 32.8943 4.89202 32.8943 4.89202C32.8255 4.5043 31.2127 3.30562 30.1228 5.12103C30.2634 5.26992 30.8227 5.71961 30.8227 5.71961C30.8227 5.71961 31.6798 4.0478 32.6328 5.0787C32.4597 5.25556 32.0599 5.65688 32.0599 5.65688L32.7704 6.26151C32.7704 6.26151 33.5057 5.1762 33.9932 5.34247C34.3689 5.45962 34.3084 5.78234 34.1663 6.81551C34.1066 6.78754 33.7227 6.40285 32.8633 6.53813C32.2035 6.64319 30.964 7.23195 30.964 6.71499C30.964 6.19198 31.0343 6.09071 31.0343 6.09071L30.5173 6.26151C30.5173 6.26151 30.4425 7.58264 31.2716 7.65822C32.2194 7.73606 33.1891 7.13219 33.8345 7.16922C34.22 7.19567 34.5072 7.30828 34.5072 7.30828H34.9508C34.9508 7.30828 35.4096 5.22835 34.5427 4.84138C34.8427 4.595 34.7936 4.3078 34.6999 3.88455C35.1186 3.90118 35.8033 3.90572 36.2719 3.95938L35.9228 7.36724C36.2077 7.23195 36.7171 7.43223 36.7171 7.43223L37.1169 4.03269L37.6036 4.0992L37.6732 3.33585C37.6732 3.33585 37.027 3.27161 37.0171 3.26632Z" fill="#007355"/>
<path id="Vector_30" d="M43.2615 7.80402C43.2615 7.80402 42.6054 6.94544 42.1633 6.77463C42.8677 6.81544 43.7013 6.77463 43.7013 6.77463L43.2615 7.80402ZM40.2065 3.7356C40.2065 3.7356 40.0902 4.18227 40.0116 4.46493C43.0143 5.15044 43.987 5.58502 44.2069 5.65682C44.2069 5.65682 44.0853 5.91605 44.0853 5.90396C42.9206 5.76489 39.778 5.68176 39.778 5.68176C39.778 5.68176 39.8732 6.34534 39.9481 6.62574C43.0461 7.33921 43.2811 8.93695 43.2811 8.93695C43.2811 8.93695 43.5237 9.03671 43.625 9.0881L45.0224 5.97878C45.0224 5.97878 45.7185 6.22895 46.1879 6.44435L44.6687 9.51135C44.6687 9.51135 45.2537 9.76 45.4502 9.88395L46.9165 6.77463C46.9165 6.77463 47.2074 6.92806 47.4107 7.01875L47.8045 6.38237C46.2015 5.45955 42.2797 4.08402 40.2065 3.7356Z" fill="#007355"/>
<path id="Vector_31" d="M48.0464 8.43891C48.0464 7.56294 50.4143 7.6219 50.4143 8.37995C50.4143 9.27708 48.0464 9.36702 48.0464 8.43891ZM49.1075 7.01877C48.555 7.00064 47.6564 7.40272 47.6224 8.33007C47.6073 9.26272 48.3162 9.66782 49.1717 9.7366C49.9887 9.80235 50.6697 9.2476 50.7052 8.37995C50.7287 7.40801 49.6449 7.03616 49.1075 7.01877Z" fill="#007355"/>
<path id="Vector_32" d="M46.9761 59.1367L48.2572 58.0076L48.9677 59.1662L46.9761 59.1367ZM35.3203 62.3322C35.4738 62.2604 36.9687 61.785 36.9687 61.785L37.0851 63.2399C37.0851 63.2399 35.8486 62.4365 35.3203 62.3322ZM29.4267 63.0525C29.0269 62.3194 27.7904 61.6951 27.7904 61.6951L29.6534 61.6588C29.6534 61.6588 29.4758 62.8129 29.4267 63.0525ZM22.7092 59.5811C22.6034 59.2478 21.9738 58.2668 21.6776 58.1723C21.0956 57.9811 20.3806 58.1051 20.0549 58.0733C20.1486 57.5594 19.9959 56.7976 19.9959 56.7976C21.4939 57.6818 23.1521 58.4656 23.1521 58.4656C23.1521 58.4656 22.8075 59.4186 22.7092 59.5811ZM48.5595 56.431L49.2299 55.9798C49.2299 55.9798 48.9238 55.5838 48.7016 55.3041C48.0547 55.6934 43.1231 59.8887 33.9932 59.8887C24.8746 59.8887 18.9114 55.1288 18.4912 54.7539C18.4912 54.7894 17.9787 55.4273 17.9787 55.4273C17.9787 55.4273 18.2455 55.6163 18.3831 55.7304C18.3045 55.9397 18.3581 56.2111 18.6295 56.3826C19.5863 56.9926 19.6347 57.2888 19.6808 57.6561C19.7291 58.0076 19.4185 58.3469 18.832 58.415C18.0997 58.4898 17.9938 58.0529 18.0074 57.4611C18.0279 57.437 17.7905 57.4279 17.5683 57.4279C17.3779 58.3318 17.8601 59.1367 18.4337 59.3416C18.99 59.5343 20.9974 59.0974 21.6972 59.2803C22.4334 59.4557 22.3585 60.5176 22.3585 60.5176L21.766 61.5847C21.766 61.5847 22.2195 61.8085 22.6752 61.9589C22.6752 61.9589 23.9805 59.0317 24.084 58.8556C27.0097 60.0535 29.8205 60.4375 29.8205 60.4375L29.7864 60.7194L25.0151 60.6725C25.0151 60.6725 25.0371 61.3361 25.0151 61.6951C27.9113 61.7949 29.3624 63.8068 29.3624 63.8068C29.3624 63.8068 29.7759 63.8793 30.2633 63.9368C30.2633 63.9368 30.704 60.9521 30.7773 60.5622C34.1912 60.9657 36.8841 60.5909 36.8841 60.5909V60.9068L32.2193 62.3194C32.2193 62.3194 32.5715 62.9641 32.7219 63.1364C35.9031 62.5998 37.2144 63.9821 37.2144 63.9821C37.2144 63.9821 37.6391 63.9738 38.0487 63.9088C38.0487 63.9088 37.9437 61.7435 37.9596 61.5681C39.6011 61.1343 40.0266 61.4343 40.0554 61.6785C40.0954 62.0843 39.7206 62.1372 38.8967 62.2831C38.8967 62.2831 39.1915 62.9807 39.2112 63.0525C40.4461 62.9467 40.5791 61.8576 40.5481 61.6588C40.4559 61.1343 39.9813 60.6498 37.8764 60.8146C37.8764 60.8267 37.8764 60.4873 37.8764 60.4873C38.9708 60.34 41.2684 59.7451 41.2684 59.7451L42.2268 63.0087C42.2268 63.0087 42.7815 62.9248 43.1292 62.7494L42.1482 59.4738C44.9778 58.6424 47.7108 56.9744 47.7108 56.9744L47.8143 57.1543C47.4485 57.4838 44.0301 60.2757 44.0301 60.2757C44.0301 60.2757 44.6075 60.7692 44.8342 60.8637C46.6852 59.3083 49.7907 59.6741 49.7907 59.6741C49.7907 59.6741 49.9048 59.6741 50.2404 59.3945L48.5595 56.431Z" fill="#007355"/>
</g>
</svg>
