<svg width="172" height="93" viewBox="0 0 172 93" fill="none" xmlns="http://www.w3.org/2000/svg">
<g clip-path="url(#clip0_186_24032)">
<path d="M145.541 93C130.999 93 119.211 91.0083 119.211 88.5514C119.211 86.0946 130.999 84.1029 145.541 84.1029C160.084 84.1029 171.872 86.0946 171.872 88.5514C171.872 91.0083 160.084 93 145.541 93Z" fill="#E8E9E7"/>
<path d="M165.785 53.2404C165.979 53.0464 166.538 52.6826 166.743 53.081C167.09 53.1018 167.576 53.2266 167.624 53.6007C167.87 53.6504 168.093 53.7809 168.256 53.9714C168.332 54.0581 168.384 54.2417 168.454 54.3179C168.523 54.3941 168.745 54.4218 168.867 54.4877C169.186 54.654 169.311 54.9588 169.523 55.1529C169.734 55.3469 170.061 55.5617 169.988 55.9601C170.46 55.8908 170.519 56.4659 170.682 56.7293C170.751 56.8332 171.511 57.4222 171.029 57.5573C171.376 57.4256 171.491 58.2502 171.376 58.42C171.661 58.5135 171.758 59.2549 171.452 59.3554C171.799 59.5564 171.713 60.2597 171.428 60.4675C171.817 60.5368 171.695 61.1397 171.633 61.3545C171.57 61.5693 171.765 62.1202 171.47 62.3072C171.671 62.6329 171.289 63.2635 170.925 63.3154C170.925 63.3639 170.894 63.3882 170.89 63.4228C170.658 63.2046 170.661 62.9551 170.543 62.6884C170.425 62.4216 170.196 62.4597 170.144 62.1617C169.939 62.1617 169.797 62.3211 169.561 62.283C169.325 62.2449 169.335 62.0959 169.214 61.9816C169.092 61.8672 168.902 61.791 168.766 61.6871C168.54 61.5075 168.37 61.267 168.277 60.9942C168.156 60.7245 168.012 60.4659 167.846 60.2216C167.808 60.14 167.752 60.0673 167.684 60.0077C167.616 59.9481 167.537 59.903 167.451 59.8751C167.225 59.8093 167.194 59.9063 167.062 59.6395C166.961 59.4316 166.955 59.1787 166.861 58.9778C166.776 58.8563 166.683 58.7405 166.583 58.6313C166.267 58.1497 166.118 57.6266 165.754 57.1589L165.785 53.2404Z" fill="#CDB98E"/>
<path d="M166.573 58.6036C166.257 58.122 166.108 57.5988 165.743 57.1311L165.761 55.6795L166.843 53.9818C167.052 54.0372 167.156 54.1932 167.305 54.3283C167.454 54.4634 167.701 54.4461 167.86 54.602C167.947 54.6886 167.944 54.8029 168.006 54.8895C168.09 54.9794 168.186 55.0575 168.291 55.1217C168.451 55.2508 168.571 55.4225 168.638 55.6171C168.725 55.8665 168.985 56.0259 169.044 56.2927C169.075 56.4001 169.044 56.5214 169.075 56.6392C169.106 56.7569 169.179 56.8262 169.238 56.944C169.353 57.1831 169.207 57.4014 169.259 57.637C169.311 57.8725 169.481 58.1047 169.356 58.3299C169.447 58.4177 169.512 58.5286 169.545 58.6507C169.577 58.7729 169.576 58.9015 169.54 59.0228C169.842 59.0817 169.887 59.6499 169.807 59.8889C169.727 60.128 169.46 60.3359 169.387 60.5334C169.36 60.6408 169.432 60.8486 169.415 60.9734C169.387 61.1674 169.238 61.2713 169.176 61.4341C169.113 61.597 169.193 61.6559 169.224 61.8153C169.23 61.8867 169.23 61.9586 169.224 62.0301C169.211 62.0114 169.194 61.995 169.176 61.9816C169.061 61.8776 168.863 61.791 168.728 61.6871C168.502 61.5075 168.332 61.267 168.239 60.9941C168.118 60.7244 167.974 60.4659 167.808 60.2215C167.769 60.14 167.714 60.0672 167.646 60.0077C167.578 59.9481 167.499 59.903 167.413 59.8751C167.187 59.8093 167.156 59.9063 167.024 59.6395C166.923 59.4316 166.916 59.1787 166.823 58.9778C166.748 58.8475 166.664 58.7225 166.573 58.6036Z" fill="#B9A780"/>
<path d="M166.542 87.2314C166.423 87.3298 166.33 87.4549 166.269 87.5966C166.209 87.7382 166.183 87.8921 166.195 88.0456C166.174 88.2291 166.207 88.4147 166.292 88.5792C166.361 88.69 166.469 88.7455 166.538 88.8494C166.613 88.9836 166.631 89.1416 166.59 89.2894C166.577 89.3957 166.558 89.501 166.531 89.6047H163.37C163.382 89.4067 163.414 89.2105 163.467 89.0192C163.513 88.8263 163.578 88.6383 163.661 88.4579C163.831 88.0837 164.13 87.765 164.272 87.3908C164.39 87.0825 164.428 86.7672 164.529 86.4623C164.645 86.1688 164.734 85.8649 164.792 85.5546C164.841 85.2289 164.817 84.8998 164.848 84.5672C164.848 84.4009 164.872 84.2415 164.886 84.0717C164.886 83.9886 164.917 83.8985 164.931 83.8154C164.934 83.7346 164.946 83.6545 164.966 83.5763L165.896 83.1224C166.205 83.1779 166.486 83.1502 166.684 83.4239C166.74 83.5042 166.776 83.5969 166.788 83.6941C166.801 83.9084 166.781 84.1234 166.729 84.3316C166.642 84.7615 166.642 85.2044 166.729 85.6343C166.799 85.7844 166.88 85.9292 166.972 86.0673C167.036 86.2038 167.068 86.3531 167.066 86.5039C167.076 86.9023 166.798 87.0028 166.542 87.2314Z" fill="#CDC8BC"/>
<path d="M166.156 70.1233C166.094 70.5287 166.444 70.889 166.365 71.2944C166.319 71.5057 166.059 71.575 166 71.7448C165.941 71.9145 166.09 72.261 166.108 72.4585C166.127 72.6632 166.109 72.8697 166.056 73.0682C165.983 73.3108 165.834 73.3905 165.917 73.6122C165.972 73.7716 166.198 73.9032 166.264 74.0834C166.353 74.2907 166.384 74.5181 166.354 74.7416C166.309 75.0223 166.156 75.0881 166.403 75.2648C166.649 75.4415 166.843 75.4311 167.014 75.7083C167.145 75.9092 167.073 76.0755 167.128 76.228C167.184 76.3804 167.354 76.4982 167.433 76.6714C167.548 76.9243 167.479 77.0387 167.458 77.2812C167.465 77.5231 167.503 77.763 167.572 77.9949C167.636 78.2082 167.655 78.4323 167.628 78.6532C167.576 78.8333 167.305 78.9546 167.281 79.107C167.218 79.3461 167.454 79.748 167.44 80.0251C167.413 80.4686 167.204 80.628 167.031 80.9744C166.909 81.217 167.059 81.4006 167.135 81.6985C167.21 82.0809 167.224 82.4725 167.177 82.8592C167.135 82.8592 167.079 82.8592 167.038 82.8592C167.128 83.171 167.26 84.4529 166.576 84.0198C166.489 83.9679 166.486 83.7912 166.41 83.7738C166.333 83.7565 166.16 83.9471 166.063 84.0094C165.844 84.1549 165.393 84.3039 165.445 83.8743C165.185 83.8293 165.001 84.1134 164.751 83.8743C164.62 83.65 164.561 83.3915 164.581 83.1329C163.918 82.9978 164.466 81.9653 164.726 81.7089C163.928 81.5773 164.123 80.8601 164.071 80.2365C163.252 80.1083 163.442 79.0273 163.064 78.5908C162.904 78.4107 162.693 78.331 162.55 78.085C162.392 77.775 162.322 77.4273 162.349 77.0802C162.349 76.8966 162.412 76.564 162.391 76.4116C162.356 76.1552 162.266 76.1864 162.106 75.9681C161.641 75.3341 161.888 74.4749 162.006 73.7923C162.033 73.3346 162.192 72.8944 162.464 72.5243C162.574 72.424 162.652 72.294 162.689 72.1501C162.81 71.8496 162.981 71.5719 163.196 71.329C163.348 71.0429 163.553 70.7879 163.8 70.5772C164.303 70.2307 165.115 70.4282 165.535 70.0194" fill="#B9A780"/>
<path d="M162.099 75.9646C161.634 75.3306 161.881 74.4714 161.999 73.7889C162.026 73.3311 162.185 72.8909 162.457 72.5208C162.567 72.4205 162.645 72.2905 162.682 72.1467C162.806 71.8468 162.979 71.5703 163.196 71.329C163.348 71.0429 163.553 70.7879 163.8 70.5772C164.303 70.2307 165.115 70.4282 165.535 70.0194L166.146 70.1233C166.083 70.5287 166.434 70.889 166.354 71.2944C166.309 71.5057 166.049 71.575 165.99 71.7448C165.931 71.9145 166.052 72.1952 166.087 72.3927L166 72.4273C165.841 72.4689 165.75 72.4273 165.636 72.5451C165.521 72.6629 165.525 72.8569 165.424 72.9782C165.323 73.0994 165.216 73.1375 165.122 73.238C164.942 73.4355 165.011 73.4632 165.074 73.7092C165.15 74.021 165.032 74.3501 165.101 74.5996C165.158 74.7526 165.201 74.9103 165.23 75.0708C165.23 75.1574 165.292 75.2163 165.275 75.3133C165.257 75.4103 165.16 75.4727 165.15 75.5489C165.108 75.8746 165.441 76.1725 165.396 76.5155C165.372 76.6853 165.292 76.7165 165.313 76.9139C165.353 77.0982 165.367 77.2871 165.355 77.4752C165.303 77.7974 164.903 78.0018 164.879 78.2894C164.879 78.4106 165.001 78.5458 165.063 78.6358C165.156 78.807 165.217 78.9937 165.244 79.1867C165.289 79.3429 165.282 79.5097 165.223 79.6614C165.146 79.8207 165.049 79.8415 165.032 80.0321C165.015 80.2226 165.098 80.2815 165.001 80.4721C164.929 80.6056 164.831 80.7235 164.713 80.8185C164.512 80.9692 164.33 81.1437 164.171 81.3382C164.022 81.0403 164.088 80.6072 164.053 80.2122C163.234 80.084 163.425 79.0031 163.047 78.5666C162.887 78.3864 162.675 78.3067 162.533 78.0607C162.375 77.7507 162.305 77.403 162.332 77.056C162.332 76.8724 162.394 76.5398 162.373 76.3873C162.349 76.1517 162.259 76.1829 162.099 75.9646Z" fill="#A79673"/>
<path d="M133.225 86.4832H128.644C128.807 85.2914 129.883 84.3698 130.268 83.2265C130.504 82.5162 130.309 81.6016 130.268 80.8775C130.209 80.1014 130.004 79.3565 130.004 78.5735L132.881 78.0538C132.964 78.4904 133.1 78.868 133.141 79.3149C133.234 79.9034 133.377 80.483 133.568 81.0472C133.771 81.8146 133.906 82.5983 133.971 83.3893C133.99 84.0597 133.872 84.7271 133.624 85.3503C133.475 85.7244 133.35 86.1021 133.225 86.4832Z" fill="#CDC8BC"/>
<path d="M126.988 72.9158C127.089 73.3385 126.988 74.3224 127.547 74.4437C127.537 74.6175 127.568 74.7913 127.638 74.9509C127.708 75.1104 127.815 75.2512 127.949 75.3618C128.13 75.5177 128.14 75.4865 128.165 75.7394C128.161 75.903 128.191 76.0656 128.251 76.2175C128.352 76.4081 128.446 76.4046 128.598 76.5259C128.751 76.6471 128.671 76.5467 128.73 76.6956C128.752 76.7811 128.768 76.8679 128.779 76.9555C128.814 77.2292 128.828 77.8598 129.247 77.7905C129.248 78.1314 129.354 78.4638 129.549 78.7432C129.651 78.8507 129.789 78.916 129.936 78.9263C130.083 78.9366 130.229 78.891 130.344 78.7987C130.323 79.1451 130.882 79.204 131.128 79.1763C131.296 79.1594 131.458 79.1112 131.607 79.0342C131.784 78.9407 131.823 78.8056 131.954 78.6878C132.086 78.57 132.208 78.6289 132.336 78.5492C132.524 78.3816 132.647 78.1535 132.683 77.9048C132.746 77.5096 132.731 77.1058 132.638 76.7164C132.59 76.5197 132.509 76.3324 132.399 76.1621C132.319 76.0547 132.197 76.0131 132.124 75.9126C131.816 75.4969 132.173 74.7555 131.864 74.2531C131.827 74.1767 131.774 74.1093 131.708 74.056C131.642 74.0027 131.565 73.9647 131.482 73.9448C131.382 73.9136 131.156 73.9205 131.076 73.8616C130.889 73.7196 130.91 73.3592 130.702 73.1687C130.505 72.9847 130.249 72.8776 129.98 72.8673C129.633 72.8465 129.733 72.7945 129.511 72.5208C129.289 72.2471 129.088 72.3684 128.772 72.3926C128.557 72.3926 128.213 72.2956 128.078 72.5208" fill="#B9A780"/>
<path d="M128.775 72.3961C129.091 72.3719 129.299 72.2541 129.515 72.5243C129.73 72.7945 129.622 72.85 129.983 72.8708C130.252 72.8811 130.509 72.9881 130.705 73.1722C130.913 73.3697 130.892 73.73 131.08 73.8651C131.16 73.924 131.385 73.9171 131.486 73.9482C131.568 73.9682 131.646 74.0062 131.712 74.0595C131.778 74.1128 131.831 74.1801 131.868 74.2566C132.177 74.759 131.819 75.5004 132.128 75.9161C132.201 76.0166 132.322 76.0582 132.402 76.1656C132.512 76.3358 132.593 76.5232 132.642 76.7199C132.735 77.1092 132.75 77.513 132.687 77.9083C132.65 78.157 132.527 78.385 132.34 78.5527C132.211 78.6324 132.072 78.5977 131.958 78.6913C131.843 78.7848 131.788 78.9338 131.611 79.0377C131.552 79.0658 131.492 79.0901 131.43 79.1105C131.136 78.6389 130.891 78.1386 130.698 77.6172C130.056 77.6588 129.598 77.101 129.369 76.5779C129.05 76.5536 128.845 76.176 128.807 75.8849C128.59 75.8882 128.375 75.8518 128.172 75.7775C128.173 75.7649 128.173 75.7521 128.172 75.7394C128.147 75.4865 128.137 75.5177 127.956 75.3618C127.822 75.2513 127.715 75.1105 127.645 74.9509C127.575 74.7914 127.544 74.6176 127.554 74.4437C126.985 74.3224 127.096 73.3385 126.995 72.9158L128.085 72.5243C128.217 72.2991 128.56 72.41 128.775 72.3961Z" fill="#A79673"/>
<path d="M156.769 88.9465C156.789 88.633 156.887 88.3296 157.055 88.0639C157.223 87.7982 157.455 87.5788 157.73 87.4256C157.73 87.4256 157.973 87.1033 158.455 85.2567L161.027 85.5789L159.5 88.8668C159.449 89.0845 159.451 89.3113 159.507 89.5279C159.562 89.7444 159.669 89.9444 159.819 90.1106C159.901 90.2835 159.935 90.4749 159.919 90.6654C159.903 90.856 159.836 91.0387 159.725 91.195H155.321C155.688 90.3774 156.176 89.6195 156.769 88.9465Z" fill="#F1EBDD"/>
<path d="M115.355 45.8504C115.355 45.8504 112.96 44.2324 110.777 46.131C110.777 46.131 111.926 48.6602 115.095 47.3714C115.095 47.3714 115.83 46.5468 115.355 45.8504Z" fill="#D4C39E"/>
<path d="M115.001 46.9972C115.001 46.9972 113.363 44.2567 110.777 46.1311C110.791 46.1311 112.527 48.2167 115.001 46.9972Z" fill="#463432"/>
<path d="M112.457 51.2898C112.684 51.0227 112.819 50.69 112.842 50.3405C112.83 49.9005 112.951 49.4669 113.189 49.0967C113.38 48.7814 113.623 48.5562 113.835 48.2548C114.047 47.9534 114.054 47.5619 114.234 47.1981C114.414 46.8343 114.751 46.6473 114.907 46.3285C115.063 46.0098 114.907 45.4762 114.866 45.154C114.802 44.9622 114.811 44.7536 114.892 44.5682C114.973 44.3828 115.119 44.2337 115.303 44.1493C115.65 43.9137 115.65 43.5568 115.955 43.2935C116.123 43.1601 116.321 43.0687 116.531 43.0268C116.82 42.9505 116.844 42.9783 117.052 42.7357C117.188 42.5651 117.362 42.4287 117.56 42.3378C117.759 42.2469 117.976 42.204 118.194 42.2126C118.635 42.1814 118.739 41.8869 119.065 41.6375C119.242 41.5206 119.443 41.4445 119.653 41.4145C119.863 41.3846 120.077 41.4015 120.28 41.4642C120.765 41.5578 120.974 42.0255 121.46 42.1052C121.945 42.1849 122.324 42.1502 122.706 42.4135C122.903 42.5486 122.942 42.6491 123.174 42.6942C123.407 42.7392 123.618 42.663 123.82 42.7461C124.184 42.8951 124.281 43.2346 124.663 43.3455C124.824 43.3776 124.977 43.4412 125.114 43.5326C125.295 43.6642 125.333 43.9068 125.489 44.0176C125.645 44.1285 125.86 44.0869 126.027 44.2844C126.139 44.427 126.208 44.5991 126.225 44.7798C126.227 44.9946 126.245 45.2089 126.28 45.4208C126.381 45.6599 126.683 45.6252 126.874 45.8469C127.064 46.0687 126.971 46.1691 127.044 46.384C127.148 46.6923 127.248 46.6161 127.512 46.7304C127.693 46.7977 127.855 46.9098 127.981 47.0561C128.123 47.2432 128.061 47.4476 128.262 47.5792C128.463 47.7109 128.644 47.6208 128.8 47.8425C128.881 47.9718 128.918 48.1235 128.907 48.2756C129.14 48.1509 129.31 47.8287 129.709 47.9465C129.945 48.0192 129.973 48.1059 130.243 48.0989C130.514 48.092 130.709 48.0539 130.938 48.0573C131.133 48.0904 131.33 48.1135 131.528 48.1266C131.774 48.0989 131.941 47.9049 132.222 47.9465C132.662 48.0158 133.051 48.3449 133.454 48.5285C133.856 48.7122 134.335 48.6914 134.741 48.9547C134.887 49.0482 135.008 49.2318 135.165 49.3011C135.391 49.3599 135.628 49.3694 135.859 49.3289C136.154 49.2639 136.455 49.2314 136.758 49.2318C137.007 49.2734 137.191 49.464 137.452 49.5021C137.914 49.5348 138.378 49.5348 138.84 49.5021C139.534 49.5021 140.114 49.7307 140.822 49.6095C141.169 49.5541 141.446 49.6095 141.786 49.6095C142.054 49.5887 142.508 49.457 142.598 49.8278C142.841 49.8901 143.015 49.7238 143.234 49.6857C143.465 49.6668 143.697 49.6668 143.928 49.6857C144.146 49.6857 144.368 49.6337 144.57 49.6303C144.636 49.6287 144.702 49.6345 144.768 49.6476C144.964 49.5866 145.167 49.546 145.371 49.5263C145.718 49.4709 145.67 49.5263 145.948 49.703C146.13 49.8105 146.34 49.8601 146.551 49.8451C147 49.827 147.45 49.8596 147.891 49.9421C148.109 49.9862 148.334 49.9706 148.543 49.897C148.846 49.8815 149.15 49.9142 149.442 49.9941C149.869 50.053 150.355 49.9941 150.782 49.9941C151.265 50.0083 151.749 49.9851 152.229 49.9248C152.445 49.8972 152.664 49.9161 152.871 49.9802C153.146 50.0424 153.434 50.0132 153.69 49.897C154.079 49.7931 154.228 49.897 154.589 50.0079C154.82 50.0515 155.057 50.0409 155.283 49.9767C155.482 49.9419 155.685 49.9419 155.884 49.9767C156.127 50.0027 156.374 49.9875 156.612 49.9317C156.813 49.9245 157.014 49.9443 157.209 49.9906C157.389 50.0487 157.564 50.1205 157.733 50.2054C157.938 50.2608 158.136 50.1049 158.393 50.1465C158.65 50.1881 158.799 50.3301 159.031 50.3648C159.264 50.3994 159.528 50.292 159.781 50.3093C160.034 50.3267 160.149 50.4722 160.371 50.5241C160.593 50.5761 160.885 50.4652 161.121 50.5241C161.228 50.5553 161.325 50.6835 161.443 50.7182C161.587 50.7269 161.73 50.7269 161.874 50.7182C162.096 50.7459 162.193 50.926 162.363 50.9745C162.471 51.0023 162.596 50.926 162.675 50.9434C162.915 50.9884 162.828 51.0611 162.995 51.2032C163.161 51.3452 163.255 51.3556 163.533 51.3591C163.779 51.3655 164.02 51.4398 164.227 51.5739C164.625 51.7155 165.003 51.9089 165.351 52.149C165.428 52.223 165.487 52.3137 165.523 52.414C165.559 52.5144 165.572 52.6217 165.559 52.7276C165.771 52.7295 165.978 52.7972 166.149 52.9214C166.321 53.0455 166.449 53.22 166.517 53.4205C166.548 53.4968 166.517 53.618 166.58 53.6908C166.642 53.7635 166.823 53.7531 166.906 53.8432C167.1 54.0546 166.955 54.3317 167.048 54.5361C167.142 54.7405 167.468 54.7267 167.631 54.9138C167.697 54.9865 167.683 55.0628 167.735 55.139C167.787 55.2152 167.895 55.2602 167.951 55.3503C168.2 55.7557 168.509 56.1922 168.298 56.7361C168.836 56.653 168.645 57.6508 168.676 57.9661C168.884 58.0388 168.895 58.3125 168.884 58.5239C168.884 58.6417 168.759 58.8218 168.836 58.9431C168.912 59.0644 169.051 58.9431 169.137 59.0436C169.321 59.2549 169.137 59.6741 169.054 59.8993C168.994 60.1894 168.919 60.4762 168.829 60.7585C168.669 61.105 168.329 61.1951 168.239 61.5589C168.187 61.7563 168.239 61.9538 168.173 62.1478C168.107 62.3419 167.937 62.5324 167.923 62.7264C168.27 62.6952 168.436 62.8546 168.398 63.2149C168.377 63.4055 168.27 63.5614 168.232 63.7519C168.194 63.9425 168.287 63.9841 168.173 64.1677L168.086 64.1885C167.996 64.5765 168.27 65.0824 168.235 65.5154C168.2 65.7412 168.124 65.9586 168.01 66.1564C167.857 66.5271 168.03 66.4647 168.131 66.8008C168.184 67.0626 168.177 67.3329 168.111 67.5918C168.046 67.8507 167.923 68.0918 167.753 68.2975C167.599 68.4694 167.417 68.6136 167.215 68.7236C166.979 68.8934 167.038 68.9073 167.007 69.2052C166.913 69.7226 166.647 70.1935 166.254 70.5425C166.053 70.7334 165.839 70.9083 165.611 71.0657C165.531 71.12 165.465 71.192 165.417 71.2762C165.37 71.3603 165.342 71.4543 165.337 71.5507C165.212 72.112 164.782 72.1952 164.466 72.6109C164.199 72.9574 164.366 73.432 164.119 73.7889C164.515 73.9309 164.546 74.2115 164.543 74.603C164.554 74.7545 164.515 74.9055 164.431 75.0327C164.359 75.1609 164.248 75.2094 164.227 75.341C164.442 75.4207 164.733 75.6875 164.598 75.9438C164.558 76.0174 164.493 76.074 164.414 76.1032C164.493 76.1984 164.546 76.3119 164.568 76.4331C164.59 76.5543 164.582 76.6792 164.543 76.7961C164.484 77.0837 164.195 77.2881 164.154 77.4891C164.123 77.6484 164.154 77.8355 164.112 78.0157C164.065 78.1704 164.046 78.3324 164.057 78.4938C164.119 78.8402 164.376 79.0862 164.331 79.4569C164.296 79.7341 164.015 79.9351 163.796 80.0944C163.855 80.2436 163.877 80.4048 163.859 80.5642C163.842 80.7235 163.786 80.8762 163.696 81.0091C163.56 81.1754 163.182 81.2481 163.106 81.4456C163.101 81.4696 163.101 81.4944 163.106 81.5184L163.033 81.4733C162.96 81.7748 163.057 82.1455 162.88 82.3949C162.651 82.7171 162.339 82.8904 162.127 83.2403C161.946 83.5585 161.84 83.9141 161.818 84.2797C161.841 84.4927 161.841 84.7075 161.818 84.9206C161.728 85.1666 161.638 85.1216 161.645 85.4126C161.645 85.759 161.586 86.3411 161.065 86.1921C160.999 86.1713 160.874 86.0016 160.84 85.9981C160.732 85.9981 160.701 86.0916 160.597 86.1124C160.498 86.1447 160.394 86.154 160.292 86.1395C160.19 86.1251 160.092 86.0874 160.007 86.0293C159.896 85.9565 159.805 85.7452 159.66 85.7175C159.514 85.6897 159.219 85.9011 159.083 85.9496C158.912 86.0285 158.723 86.0608 158.535 86.0431C158.212 85.9912 158.254 85.9149 158.108 85.6724C157.699 85.0003 157.785 84.5256 158.362 83.999C158.653 83.7288 158.573 83.4863 158.681 83.1017C158.788 82.7171 159.184 82.5924 159.285 82.3014C159.41 81.9549 159.205 81.5842 159.403 81.2343C159.524 81.0195 159.604 81.0091 159.607 80.7492C159.607 80.5656 159.503 80.3612 159.548 80.1568C159.594 79.9524 159.722 79.9385 159.715 79.7341C159.708 79.5297 159.628 79.3357 159.607 79.1451C159.576 78.9652 159.576 78.7811 159.607 78.6012C159.607 78.3968 159.607 78.1854 159.607 77.9776C159.555 77.8938 159.523 77.7989 159.514 77.7004C158.938 77.6519 158.636 76.9832 158.688 76.4254C158.511 76.3324 158.363 76.1941 158.258 76.0248C158.153 75.8555 158.096 75.6613 158.091 75.4623C157.806 75.438 157.591 75.4935 157.397 75.244C157.202 74.9945 157.327 74.7971 156.984 74.6516C156.699 74.5303 156.512 74.5338 156.29 74.2774C156.068 74.021 156.206 73.8062 156.064 73.5845C155.922 73.3627 155.668 73.3662 155.488 73.238C155.269 73.0762 155.097 72.8583 154.992 72.6074C154.808 72.261 154.69 72.3268 154.35 72.2333C154.141 72.1778 153.812 72.0427 153.753 71.8141C153.555 71.7621 153.357 71.873 153.17 71.9007C152.939 71.9163 152.707 71.9163 152.476 71.9007C152.103 71.917 151.729 71.8844 151.365 71.8037C151.091 72.1744 150.99 72.455 150.494 72.4966C150.147 72.5208 150.209 72.4966 149.998 72.753C149.87 72.8987 149.714 73.0167 149.54 73.0994C149.216 73.2275 148.87 73.2877 148.523 73.2761C148.307 73.5498 147.929 73.4632 147.641 73.6226C147.294 73.7923 147.246 74.1457 146.798 74.1734C146.534 74.1734 146.479 74.0349 146.277 73.9967C146.076 73.9586 145.895 74.0972 145.673 74.1838C145.451 74.2646 145.215 74.2965 144.979 74.2774C144.691 74.2774 144.653 74.1492 144.434 74.0764C144.018 73.9309 143.536 74.2012 143.102 74.1215C142.935 74.0903 142.796 73.9864 142.623 73.9586C142.404 73.9537 142.186 73.9901 141.981 74.066C141.467 74.1561 141.189 73.7681 140.749 73.7438C140.221 73.7161 139.878 73.9309 139.392 73.7057C139.01 73.5256 138.639 73.6711 138.229 73.4909C137.971 73.3761 137.724 73.2393 137.49 73.0821C137.07 73.4286 136.73 73.5914 136.265 73.2623C136.303 73.8027 135.817 73.8686 135.408 73.9067C135.487 74.4714 134.811 74.5996 134.401 74.5996C134.627 75.0119 134.186 75.4935 133.801 75.5731C133.717 75.8676 133.846 76.4046 133.846 76.7407C133.846 76.8516 133.846 77.0352 133.87 77.2223C133.929 77.4856 134.044 77.7524 134.099 77.9706C134.2 78.3483 134.259 78.7744 134.325 79.1486C134.477 79.9593 134.63 80.8289 134.821 81.6604C135.012 82.4919 135.168 83.2403 135.411 84.0025C135.489 84.1925 135.523 84.3974 135.512 84.6023C135.5 84.8072 135.443 85.0071 135.345 85.1874C135.217 85.4645 135.05 85.7244 134.946 86.0016L134.856 86.0916C134.622 86.2926 134.448 86.5539 134.353 86.8469C134.289 87.139 134.337 87.4445 134.488 87.7027C134.543 87.8278 134.586 87.9577 134.616 88.0907C133.559 88.1619 132.497 88.1549 131.441 88.0699C131.378 87.3112 131.521 86.251 132.01 85.6447C132.562 84.9726 132.909 84.2589 132.76 83.3581C132.61 82.4573 132.114 81.7713 132.027 80.8947C131.906 80.0641 131.725 79.2432 131.486 78.4384C131.399 78.0919 131.295 77.7628 131.191 77.4198H131.153H131.125C131.099 77.2699 131.092 77.1175 131.104 76.9659C130.518 76.9139 129.824 76.7164 129.872 75.9508C129.178 76.0166 129.32 75.3791 128.918 75.0846C128.855 75.0396 128.64 74.8698 128.484 74.7728C128.463 74.7035 128.446 74.6308 128.425 74.5615C128.078 74.5615 127.859 74.163 127.731 73.8686C127.679 73.7508 127.651 73.3974 127.547 73.3142C127.443 73.2311 127.2 73.3697 127.005 73.3142C126.627 73.1964 126.572 72.6767 126.245 72.5728C126.023 72.5035 125.826 72.6317 125.614 72.455C125.468 72.304 125.381 72.1064 125.367 71.8972C124.732 71.8452 123.917 71.8418 123.917 70.9895C123.604 70.9105 123.299 70.805 123.004 70.6742C122.82 70.5804 122.659 70.4481 122.532 70.2862C122.452 70.1614 122.501 69.8496 122.417 69.763C122.223 69.5517 121.689 69.763 121.421 69.6314C121.036 69.4269 121.328 69.0458 121.13 68.7479C120.887 68.4014 120.516 68.2836 120.606 67.7085C120.651 67.4383 120.783 67.3413 120.606 67.1057C120.488 66.9463 120.325 66.9117 120.228 66.6934C120.071 66.3005 120.058 65.8653 120.189 65.4635C120.248 65.117 120.189 65.2972 120.002 65.0477C119.853 64.8572 119.901 64.6631 119.856 64.4449C119.79 64.1261 119.828 63.5406 119.586 63.3085C119.429 63.1595 119.238 63.1526 119.103 62.962C119.008 62.8097 118.94 62.6421 118.902 62.4666C118.871 62.2934 118.971 61.94 118.878 61.7945C118.784 61.6489 118.583 61.6767 118.51 61.448C118.395 61.1015 118.51 60.7204 118.465 60.3566C118.388 60.3797 118.305 60.3735 118.232 60.3393C118.109 60.2439 118.012 60.1204 117.947 59.9793C117.883 59.8381 117.853 59.6836 117.861 59.5286C117.713 59.471 117.588 59.3683 117.502 59.2351C117.417 59.1019 117.376 58.9451 117.385 58.7872C117.291 58.7902 117.197 58.7718 117.111 58.7334C117.026 58.695 116.949 58.6376 116.889 58.5655C116.639 58.2779 116.761 58.219 116.337 58.2017C115.719 58.1566 115.615 57.7825 115.535 57.2385C115.498 57.0143 115.426 56.7971 115.324 56.5941C115.23 56.3828 115.258 56.1472 115.175 55.9428C115.051 55.747 114.957 55.5347 114.893 55.3122C114.856 55.0623 114.799 54.8156 114.723 54.5742C114.509 54.5584 114.297 54.5189 114.092 54.4564C113.856 54.4499 113.622 54.4091 113.398 54.3352C112.877 54.1238 112.832 53.715 112.787 53.2369C111.878 52.9459 112.061 51.9308 112.457 51.2898Z" fill="#CDB98E"/>
<path d="M112.714 53.2092C112.876 52.9846 113.07 52.7849 113.29 52.6167C113.644 52.3508 114.037 52.1427 114.456 52C114.831 51.8822 114.956 51.9619 115.268 52.1698L117.999 53.8155C118.014 53.9268 118.037 54.0368 118.069 54.1446C118.086 54.3074 118.024 54.3559 117.999 54.4911C117.958 54.7544 118.138 54.9796 117.909 55.2048C117.795 55.3156 117.764 55.2048 117.677 55.4126C117.639 55.4992 117.6 55.6448 117.566 55.7591C117.455 56.0848 117.722 56.1679 117.708 56.452C117.694 56.7361 117.573 56.8297 117.805 57.0652C117.847 57.1068 117.944 57.1207 117.972 57.1726C117.999 57.2246 117.934 57.3043 117.954 57.3459C117.974 57.403 118.013 57.4509 118.066 57.4804C118.118 57.5098 118.18 57.5187 118.239 57.5052C118.366 57.4814 118.485 57.4266 118.586 57.3459C118.676 57.287 118.895 57.2246 118.95 57.1796C119.166 56.989 119.055 56.6114 119.075 56.3481C119.165 56.3398 119.256 56.3493 119.343 56.3758C119.468 56.0293 119.45 55.7903 119.867 55.773C119.887 55.5651 119.867 55.2602 120.151 55.2186C120.436 55.177 120.45 55.5096 120.637 55.5651C120.722 55.4862 120.792 55.3922 120.842 55.2879C120.873 55.1805 120.807 55.0385 120.842 54.9241C120.918 54.6192 121.133 54.7024 121.359 54.7197C121.383 54.4322 121.279 54.1931 121.609 54.1273C121.748 54.0961 121.834 54.1688 121.932 54.0476C121.97 53.9991 121.932 53.7531 121.97 53.7011C122.05 53.3858 122.216 53.3547 122.463 53.2299C122.558 53.1862 122.632 53.1066 122.668 53.0085C122.705 52.9104 122.701 52.8019 122.657 52.7068C122.779 52.7948 122.87 52.9186 122.918 53.0608C122.966 53.203 122.968 53.3566 122.924 53.5002C122.858 53.715 122.692 53.6596 122.577 53.7912C122.463 53.9229 122.535 54.1377 122.518 54.3005C122.51 54.4913 122.443 54.675 122.327 54.8271C122.185 55.0003 122.088 54.9588 122.046 55.1736C121.973 55.5859 121.959 55.8665 121.491 55.9808C121.516 56.2823 121.431 56.5827 121.251 56.8262C121.165 56.9059 120.988 56.9059 120.929 56.9856C120.87 57.0652 120.929 57.3112 120.883 57.4186C120.779 57.7651 120.415 57.8448 120.359 58.1393C120.304 58.4338 120.287 58.7317 119.884 58.8322C119.891 59.078 119.822 59.3199 119.686 59.5251C119.558 59.7087 119.36 60.0552 119.079 60.0413C119.029 60.1805 118.963 60.3131 118.881 60.4363C118.808 60.5818 118.825 60.7828 118.714 60.9109C118.641 60.99 118.553 61.0536 118.454 61.098C118.47 60.8581 118.47 60.6174 118.454 60.3774C118.377 60.4004 118.294 60.3942 118.222 60.3601C118.099 60.2646 118.001 60.1411 117.937 60C117.872 59.8589 117.842 59.7043 117.85 59.5494C117.701 59.489 117.575 59.3823 117.491 59.245C117.408 59.1078 117.37 58.9472 117.385 58.7871C117.291 58.7902 117.197 58.7718 117.111 58.7334C117.026 58.6949 116.949 58.6375 116.889 58.5654C116.639 58.2779 116.761 58.219 116.337 58.2016C115.719 58.1566 115.615 57.7824 115.535 57.2385C115.498 57.0143 115.426 56.7971 115.324 56.5941C115.23 56.3827 115.258 56.1471 115.175 55.9427C115.051 55.747 114.957 55.5346 114.893 55.3122C114.856 55.0622 114.799 54.8155 114.723 54.5742C114.509 54.5584 114.297 54.5189 114.092 54.4564C113.856 54.4499 113.622 54.409 113.398 54.3351C112.877 54.1238 112.832 53.715 112.787 53.2369L112.714 53.2092Z" fill="#B9A780"/>
<path d="M112.842 50.3405C112.83 49.9004 112.951 49.4669 113.189 49.0967C113.38 48.7814 113.623 48.5562 113.835 48.2548C114.047 47.9534 114.054 47.5619 114.234 47.1981C114.414 46.8343 114.751 46.6472 114.907 46.3285C114.998 46.015 114.998 45.6823 114.907 45.3688C115.164 45.4485 115.49 45.497 115.567 45.3272C115.621 45.4333 115.708 45.5195 115.815 45.5736C115.921 45.6277 116.042 45.647 116.16 45.6286C116.41 45.5871 116.538 45.3203 116.74 45.206C116.865 45.1297 116.795 45.1124 116.931 45.1713C117.066 45.2302 117.069 45.3549 117.153 45.4312C117.225 45.4894 117.312 45.5262 117.404 45.5372C117.496 45.5482 117.589 45.5331 117.673 45.4935C117.784 45.9162 118.149 46.0063 118.551 46.0063C118.725 46.0063 118.874 45.9266 119.03 45.9439C119.186 45.9612 119.377 46.0964 119.617 46.0756C119.771 46.0656 119.919 46.0088 120.04 45.9127C120.235 45.743 120.134 45.743 120.387 45.8261C120.703 45.9335 121.192 45.9439 121.29 45.5282C121.526 45.5282 121.918 46.1414 122.178 45.8746C122.161 46.0393 122.161 46.2054 122.178 46.3701C122.261 46.5918 122.473 46.5156 122.588 46.6195C122.806 46.8101 122.671 47.5099 123.001 47.6277C122.785 47.7905 122.508 48.0642 122.688 48.3691C122.56 48.416 122.446 48.4936 122.355 48.5951C122.264 48.6966 122.2 48.8189 122.168 48.9512C121.873 48.8576 121.227 48.972 121.165 49.3392C120.911 49.3635 120.623 49.2803 120.408 49.4466C120.193 49.6129 120.217 49.7931 120.196 50.0287C119.992 50.041 119.795 50.1133 119.632 50.2365C119.468 50.3598 119.345 50.5285 119.277 50.7216C119.26 50.8491 119.234 50.9752 119.2 51.0992C119.138 51.2205 118.961 51.3002 118.853 51.411C118.654 51.6661 118.555 51.9854 118.576 52.3084C118.576 52.589 118.333 52.7726 118.267 53.0671C118.201 53.3616 118.357 53.6215 118.222 53.8155C118.086 54.0095 117.777 53.9852 117.528 54.0303C117.014 54.1273 116.525 54.3248 116.011 54.3767C115.734 54.3742 115.457 54.3857 115.181 54.4114C115.014 54.4624 114.853 54.5334 114.703 54.6227L114.685 54.5638C114.471 54.548 114.259 54.5085 114.054 54.446C113.817 54.4395 113.584 54.3986 113.359 54.3248C112.839 54.1134 112.794 53.7046 112.749 53.2265C111.846 52.9355 112.03 51.9203 112.426 51.2794C112.662 51.0192 112.808 50.69 112.842 50.3405Z" fill="#F1EBDD"/>
<path d="M122.667 47.1774C122.667 47.1774 123.184 44.6274 125.36 47.1774C125.36 47.1774 124.739 49.3497 122.667 48.0401V47.1774Z" fill="#F1EBDD"/>
<path d="M124.913 47.2535C124.913 47.2535 124.396 48.3691 123.285 48.3379C123.067 48.26 122.858 48.1565 122.664 48.0296V47.1773C122.716 46.9475 122.805 46.7276 122.928 46.526C123.379 46.2245 124.073 46.1275 124.913 47.2535Z" fill="#463432"/>
<path d="M121.251 47.3401C121.251 47.3401 120.349 46.3008 119.665 47.3782C119.665 47.3782 120.248 47.8009 121.251 47.3401Z" fill="#463432"/>
<path d="M118.707 48.2271C118.707 48.2271 119.36 47.16 120.144 46.9382L119.995 47.2535C119.518 47.5097 119.084 47.8382 118.707 48.2271Z" fill="#463432"/>
<path d="M116.483 52.2806C116.379 53.7081 113.818 53.6665 112.828 53.6076C112.808 53.4898 112.794 53.3651 112.78 53.2369C116.171 53.4932 116.459 52.4227 116.483 52.2806Z" fill="#463432"/>
<path d="M113.498 51.7679C113.545 51.6124 113.635 51.4734 113.758 51.3672C113.881 51.261 114.032 51.1921 114.192 51.1685C114.192 51.1685 114.442 51.1096 114.619 50.7077C114.619 50.7077 115.057 50.3855 115.057 50.926C115.057 50.926 115.039 51.4769 114.192 51.4942C114.063 51.4767 113.931 51.4927 113.81 51.5406C113.688 51.5885 113.581 51.6668 113.498 51.7679Z" fill="#463432"/>
<path d="M132.006 85.6724C132.558 85.0003 132.905 84.2866 132.756 83.3858C132.607 82.485 132.111 81.799 132.024 80.9225C131.902 80.0918 131.721 79.2709 131.482 78.4661C131.448 78.331 131.41 78.1958 131.368 78.0573C131.493 78.0916 131.626 78.0813 131.745 78.0282C131.863 77.9751 131.959 77.8825 132.017 77.7662C132.083 78.1127 132.19 78.5354 132.569 78.6636C132.947 78.7918 133.2 78.5423 133.461 78.3552C133.478 78.7017 133.627 80.0875 134.238 79.4673C134.283 79.4206 134.321 79.3667 134.349 79.308C134.491 80.0771 134.637 80.8913 134.818 81.6743C134.998 82.4573 135.165 83.2541 135.408 84.0164C135.485 84.2064 135.519 84.4113 135.508 84.6162C135.497 84.8211 135.44 85.0209 135.342 85.2012C135.213 85.4784 135.047 85.7383 134.943 86.0154L134.852 86.1055C134.618 86.3065 134.444 86.5677 134.349 86.8608C134.285 87.1529 134.333 87.4583 134.484 87.7165C134.539 87.8417 134.582 87.9716 134.613 88.1046C133.555 88.1757 132.494 88.1688 131.437 88.0838C131.375 87.325 131.517 86.2649 132.006 85.6724Z" fill="#F1EBDD"/>
<path d="M128.644 86.4762C128.741 85.7833 129.161 85.1562 129.563 84.536C129.737 84.6885 129.879 84.8028 129.855 85.0522C130.257 84.9829 130.577 85.4437 130.615 85.7867C130.629 86.0188 130.613 86.2518 130.566 86.4796H128.644V86.4762Z" fill="#CDB98E"/>
<path d="M131.51 86.8503L131.618 86.8711C131.84 86.9656 132.073 87.033 132.312 87.0721C132.533 87.0803 132.751 87.1309 132.954 87.2211C133.117 87.3126 133.253 87.4474 133.344 87.6106C133.436 87.7737 133.481 87.959 133.475 88.1461C132.78 88.1461 132.086 88.1461 131.448 88.0837C131.413 87.6717 131.434 87.2568 131.51 86.8503Z" fill="#CDB98E"/>
<path d="M163.477 89.0192C163.524 88.8263 163.589 88.6383 163.671 88.4579C163.73 88.337 163.798 88.2211 163.876 88.1115C163.949 88.1752 164.014 88.2473 164.071 88.3263C164.213 88.5341 164.268 88.8529 164.49 88.988C164.713 89.1231 164.98 89.1474 165.164 89.3345C165.232 89.4102 165.28 89.502 165.303 89.6012H163.38C163.392 89.4044 163.425 89.2094 163.477 89.0192Z" fill="#CDB98E"/>
<path d="M155.321 91.1949C155.631 90.5173 156.016 89.8759 156.467 89.2825C156.635 89.3902 156.758 89.5552 156.814 89.7467C157.05 89.5839 157.577 89.9407 157.806 90.0412C157.972 90.1058 158.118 90.2128 158.23 90.3515C158.341 90.4901 158.414 90.6555 158.441 90.8311C158.469 90.9282 158.49 91.0598 158.518 91.1776L155.321 91.1949Z" fill="#CDB98E"/>
<path d="M135.557 71.4121C135.673 71.3043 135.749 71.1599 135.772 71.0029C135.795 70.8458 135.763 70.6858 135.682 70.5495C135.925 70.3173 135.873 70.106 135.807 69.815C135.741 69.5239 135.838 69.032 135.519 68.8864C135.605 68.6751 135.803 67.9614 135.446 67.8921C135.765 67.8679 135.977 68.2905 136.036 68.5331C136.074 68.682 136.036 68.8795 136.074 69.0181C136.112 69.1567 136.317 69.3265 136.39 69.4962C136.463 69.666 136.414 69.8946 136.483 70.0575C136.553 70.2203 136.772 70.3139 136.831 70.501C136.855 70.5737 136.81 70.6673 136.831 70.74C136.851 70.8128 136.952 70.8959 137.004 70.9791C137.094 71.1246 137.129 71.2701 137.202 71.4156C137.445 71.4814 137.667 71.0691 137.92 71.0691C138.045 71.0691 138.076 71.1073 138.219 71.0414C138.361 70.9756 138.437 70.8128 138.531 70.986C138.625 70.9236 138.68 70.8232 138.802 70.7781C138.923 70.7331 138.986 70.7989 139.083 70.7781C139.18 70.7573 139.315 70.7088 139.43 70.695C139.544 70.6811 139.655 70.7573 139.777 70.7781C139.898 70.7989 140.027 70.7435 140.124 70.7781C140.176 70.7843 140.227 70.7959 140.277 70.8128C140.315 70.8301 140.315 70.9583 140.37 70.9721C140.499 70.9999 140.717 70.837 140.881 70.8543C140.975 70.8549 141.066 70.8907 141.135 70.9549C141.205 71.019 141.248 71.1067 141.255 71.2008C141.385 71.1217 141.531 71.0729 141.683 71.0579C141.834 71.0429 141.987 71.0622 142.13 71.1142C142.345 71.1367 142.561 71.1367 142.775 71.1142C142.987 71.1331 143.199 71.1331 143.411 71.1142C143.723 71.0449 143.969 70.6672 144.313 70.9271C144.535 70.837 144.806 70.7504 145.007 70.6465C145.167 70.5702 145.795 69.9258 145.823 70.3277C146.066 70.3277 146.274 69.9813 146.579 70.0124C146.694 70.0124 146.763 70.1337 146.86 70.1372C146.957 70.1406 147.075 69.9917 147.176 69.9293C147.309 69.839 147.471 69.7996 147.631 69.8184C147.867 69.8877 147.731 69.9639 147.978 69.8946C148.141 69.8461 148.554 69.5482 148.637 69.8946C148.79 69.8461 149.199 69.5724 149.241 69.8946C149.501 69.8219 149.453 69.8496 149.675 70.0124C149.838 70.1302 150.022 70.0367 150.168 70.1268C150.265 70.1857 150.251 70.3035 150.355 70.345C150.5 70.3387 150.645 70.3237 150.789 70.3C150.987 70.3 151.403 70.3347 151.448 70.5772C151.417 70.4213 152.354 70.6569 152.389 70.6465C152.503 70.6014 152.555 70.449 152.653 70.3797C152.745 70.3168 152.855 70.2832 152.967 70.2832C153.079 70.2832 153.188 70.3168 153.281 70.3797C153.293 70.2314 153.34 70.0881 153.418 69.9616C153.497 69.8351 153.604 69.729 153.732 69.6521C154.006 69.5031 154.145 69.6036 154.325 69.3057C154.506 69.0077 154.714 68.9592 154.985 68.7825C155.186 68.6474 155.373 68.4846 155.571 68.346C155.522 68.643 155.416 68.9277 155.259 69.1844C155.154 69.3238 155.06 69.4709 154.978 69.6244C154.905 69.7561 154.738 69.8461 154.665 69.9709C154.611 70.1144 154.57 70.2629 154.544 70.4143C154.51 70.4895 154.494 70.5711 154.495 70.6534C154.495 70.74 154.606 70.8301 154.61 70.8959C154.61 71.0622 154.478 71.1904 154.495 71.3775C154.526 71.5302 154.582 71.6766 154.662 71.8106C154.737 71.7903 154.816 71.7899 154.891 71.8095C154.967 71.829 155.036 71.8678 155.091 71.922C155.147 71.9762 155.188 72.0439 155.209 72.1186C155.231 72.1932 155.232 72.2721 155.214 72.3476C155.214 72.4411 155.137 72.5485 155.124 72.6663C155.124 72.7218 155.124 72.7737 155.124 72.8257C155.089 72.7679 155.054 72.7056 155.019 72.6386C154.836 72.2921 154.718 72.358 154.377 72.2644C154.169 72.209 153.839 72.0739 153.78 71.8452C153.583 71.7932 153.385 71.9041 153.197 71.9318C152.966 71.9475 152.734 71.9475 152.503 71.9318C152.13 71.9482 151.757 71.9156 151.393 71.8348C151.119 72.2055 151.018 72.4862 150.522 72.5277C150.175 72.552 150.237 72.5277 150.025 72.7841C149.898 72.9299 149.742 73.0478 149.567 73.1306C149.244 73.2587 148.898 73.3189 148.55 73.3073C148.335 73.581 147.957 73.4944 147.669 73.6537C147.322 73.8235 147.273 74.1769 146.826 74.2046C146.562 74.2046 146.506 74.066 146.305 74.0279C146.104 73.9898 145.923 74.1284 145.701 74.215C145.479 74.2958 145.242 74.3277 145.007 74.3085C144.719 74.3085 144.681 74.1803 144.462 74.1076C144.046 73.9621 143.563 74.2323 143.129 74.1526C142.963 74.1214 142.824 74.0175 142.651 73.9898C142.432 73.9848 142.214 74.0213 142.009 74.0972C141.495 74.1873 141.217 73.7992 140.776 73.775C140.249 73.7473 139.905 73.9621 139.42 73.7369C139.038 73.5567 138.666 73.7022 138.257 73.5221C137.999 73.4072 137.752 73.2705 137.518 73.1133C137.129 73.4355 136.824 73.5914 136.397 73.3558C136.397 73.3142 136.397 73.2761 136.397 73.2345C136.365 72.8534 136.397 72.2783 135.921 72.1432C135.89 71.8417 136.05 71.4433 135.557 71.4121Z" fill="#B9A780"/>
<path d="M121.133 68.7478C120.918 68.4291 120.602 68.3078 120.595 67.8921C120.754 67.958 120.921 67.9989 121.092 68.0134C121.401 68.0411 121.439 68.3009 121.734 68.4152C121.949 68.4984 122.282 68.5781 122.428 68.346C122.48 68.4204 122.553 68.4779 122.637 68.5112C122.722 68.5445 122.814 68.5521 122.903 68.533C123.046 68.5157 123.233 68.3252 123.341 68.3286C123.448 68.3321 123.622 68.5608 123.785 68.5746C123.948 68.5885 124.108 68.5746 124.132 68.3875C124.364 68.8691 124.51 68.8899 125.017 68.8449C125.183 68.8449 125.118 68.734 125.288 68.8934C125.399 68.9938 125.392 69.1393 125.579 69.1775C125.819 69.226 125.975 69.0146 126.173 68.98C126.185 69.063 126.216 69.1421 126.265 69.2106C126.314 69.2792 126.378 69.3353 126.452 69.3745C126.526 69.4136 126.609 69.4347 126.693 69.436C126.777 69.4373 126.861 69.4187 126.936 69.3819C126.937 69.741 126.97 70.0994 127.037 70.4524C127.12 70.7538 126.964 70.9409 126.985 71.2631C126.999 71.371 127.023 71.4776 127.054 71.5819C127.071 71.7153 127.071 71.8504 127.054 71.9838C127.051 72.119 127.065 72.2541 127.096 72.3857C127.096 72.4446 127.071 72.5173 127.096 72.5762C127.12 72.6351 127.245 72.6767 127.283 72.746C127.348 72.9183 127.371 73.1036 127.349 73.2865C127.226 73.326 127.096 73.339 126.967 73.3246C126.589 73.2068 126.533 72.6871 126.207 72.5831C125.985 72.5139 125.787 72.642 125.576 72.4654C125.442 72.3062 125.368 72.1051 125.367 71.8972C124.732 71.8452 123.917 71.8417 123.917 70.9894C123.604 70.9104 123.299 70.8049 123.004 70.6742C122.82 70.5804 122.659 70.448 122.532 70.2861C122.452 70.1614 122.501 69.8496 122.417 69.763C122.223 69.5516 121.689 69.763 121.421 69.6313C121.04 69.4269 121.331 69.0458 121.133 68.7478Z" fill="#B9A780"/>
</g>
<g clip-path="url(#clip1_186_24032)">
<path d="M126.879 81.3105C126.879 85.0645 98.7756 88.0989 64.1144 88.0989C29.4533 88.0989 1.34284 85.0509 1.34284 81.3105C1.34284 77.5702 29.4465 74.5222 64.1144 74.5222C98.7824 74.5222 126.879 77.5498 126.879 81.3105Z" fill="#E8E9E7"/>
<path d="M81.1124 75.4386C81.0309 74.4814 80.9834 73.531 80.902 72.5807C80.7255 70.5442 80.8069 68.3855 80.8001 66.3015C80.8001 64.0545 81.3228 61.8959 81.0038 59.615C80.5761 56.4788 80.1281 53.2747 79.7547 50.1113L75.4577 50.3218C75.4577 51.9442 75.6274 53.6684 75.7496 55.2705C75.8854 57.0218 75.8379 58.7664 75.9804 60.4907C76.1267 62.2009 76.0583 63.9227 75.7768 65.6159C75.4985 67.3469 74.4191 69.01 74.4191 70.7478C74.4191 71.8068 75.098 72.4653 75.3355 73.3953C75.5731 74.3253 75.4034 75.554 75.4645 76.6197C75.546 77.9095 76.8222 77.6583 77.8744 77.7669C78.7297 77.8484 80.3182 78.1878 81.1056 77.7669C81.4043 77.027 81.1735 76.1513 81.1124 75.4386Z" fill="#CAC9C7"/>
<path d="M81.0038 59.615C80.5761 56.4788 80.1281 53.2747 79.7547 50.1113L75.4577 50.3218C75.4577 51.9442 75.6274 53.6684 75.7496 55.2705C75.8854 57.0218 75.8379 58.7664 75.9804 60.4907C76.1096 62.0524 76.0618 63.6237 75.8379 65.1746C76.0368 65.9469 76.4004 66.6671 76.9036 67.2858C78.0509 68.5009 78.3835 66.0367 78.6618 65.0592C78.7861 64.4709 79.0465 63.9199 79.4221 63.4504C79.8973 63.0091 80.5626 62.8734 81.0649 62.3778C81.1412 61.4573 81.1207 60.5313 81.0038 59.615Z" fill="#875D3E"/>
<path d="M28.4486 79.8849C28.0026 79.2189 27.612 78.5174 27.281 77.7873C26.6022 76.2735 25.9234 74.6715 25.0612 73.2527C24.5657 72.4042 24.1312 71.5353 23.7036 70.6664C23.111 69.6565 22.5805 68.6114 22.1151 67.537C21.701 66.3694 21.1987 65.2357 20.7031 64.1428C19.7799 62.0452 18.5648 60.0019 17.8385 57.8297L14.8041 57.0219C14.9233 58.0034 15.151 58.9687 15.4829 59.9001C15.7477 60.9998 15.9309 62.1199 16.1617 63.2264C16.4876 64.7537 16.5215 66.3558 16.7727 67.8764C17.0239 69.397 17.7502 70.9786 17.8453 72.5535C17.9884 73.777 18.0134 75.0114 17.9199 76.2396C17.8181 76.9184 17.6959 77.4547 18.429 77.5972C18.9653 77.7127 19.5288 77.5973 20.0107 77.8959C20.9407 78.5137 21.2258 79.7016 21.3684 80.6656C21.4838 81.3444 21.2666 81.8128 22.0472 82.0232C22.617 82.1528 23.2009 82.2099 23.785 82.1929C25.1052 82.2183 26.4227 82.0653 27.7019 81.7381C28.3196 81.5548 28.5369 81.1543 29.1274 80.8964C28.944 80.5323 28.716 80.1926 28.4486 79.8849Z" fill="#CAC9C7"/>
<path d="M20.9407 72.2752C22.0133 72.9133 22.8618 71.5964 23.8665 71.0669L23.6628 70.6732C23.0702 69.6633 22.5398 68.6182 22.0744 67.5437C21.6603 66.3762 21.158 65.2425 20.6624 64.1496C19.7392 62.052 18.5241 60.0087 17.7977 57.8364L14.8041 57.0219C14.9233 58.0034 15.151 58.9687 15.4829 59.9001C15.7477 60.9998 15.9309 62.1199 16.1617 63.2264C16.4876 64.7537 16.5215 66.3558 16.7727 67.8764C16.8044 68.0891 16.8451 68.2995 16.8949 68.5077C17.6348 69.1865 18.3408 69.9332 19.04 70.4899C19.6347 71.1251 20.2696 71.7214 20.9407 72.2752Z" fill="#734F34"/>
<path d="M136.335 10.4947C136.335 10.4947 134.136 4.97581 128.373 10.2707L130.783 13.0471L136.335 10.4947Z" fill="#906341"/>
<path d="M129.527 14.0926C129.391 14.0111 131.882 4.90121 136.315 10.4948C136.335 10.4948 133.98 16.7129 129.527 14.0926Z" fill="#B2927A"/>
<path d="M127.748 9.5036C127.748 9.5036 132.622 4.88754 128.97 0.950317C128.97 0.950317 135.724 4.10689 129.968 11.0513C129.72 11.1659 129.445 11.2134 129.173 11.1893C128.9 11.1651 128.639 11.0701 128.415 10.9136C128.19 10.7571 128.011 10.5447 127.894 10.2973C127.777 10.05 127.727 9.77633 127.748 9.5036Z" fill="#B1A575"/>
<path d="M131.251 2.83752C131.837 4.59295 131.713 6.50821 130.905 8.17314C130.644 8.72851 130.286 9.23217 129.846 9.65979C129.54 9.97205 128.61 10.5015 128.542 11.0175C128.994 11.2128 129.501 11.2345 129.968 11.0785C133.179 7.1549 132.5 4.45993 131.251 2.83752Z" fill="#968C63"/>
<path d="M139.892 31.9594C139.703 31.2825 139.354 30.661 138.874 30.1469C137.978 29.0947 137.089 28.1104 136.227 27.031C135.149 25.6736 134.292 24.1547 133.688 22.5304C133.406 21.7182 133.239 20.8704 133.192 20.0119C133.138 19.1226 133.505 18.3895 133.505 17.5002C133.556 16.6808 133.444 15.8593 133.173 15.084C132.903 14.3088 132.48 13.5954 131.93 12.986C130.986 11.7461 129.889 10.6307 128.665 9.66651C127.947 9.25368 127.277 8.76187 126.669 8.20023C126.192 7.66499 125.667 7.17421 125.101 6.73395C124.791 6.46396 124.428 6.26361 124.034 6.14649C123.641 6.02936 123.226 5.99821 122.82 6.05512C122.032 6.1185 121.256 6.28511 120.512 6.55067C117.701 7.56892 115.285 10.1824 112.135 10.1824C108.707 10.1824 106.026 8.92658 102.923 7.87439C102.197 7.63001 101.518 7.48746 100.819 7.19556C100.164 6.81678 99.4833 6.48337 98.7824 6.19768C98.4294 6.08906 98.0696 5.98724 97.7099 5.8922C96.3062 5.12661 94.839 4.48385 93.3246 3.97111C91.2864 3.22569 89.1711 2.71109 87.0182 2.43695C84.6898 2.24687 82.3818 2.20614 80.067 2.01607C77.7522 1.826 75.5392 1.21505 73.2787 1.03855C71.0182 0.862056 68.7441 0.631254 66.4904 0.488699C64.3326 0.429303 62.1749 0.604565 60.055 1.0114C57.8353 1.35082 55.7648 1.63593 53.5518 2.01607C52.6354 2.17899 51.7258 2.24687 50.8365 2.41658C49.4788 2.49804 48.1687 2.5795 46.845 2.68811C44.5371 2.94344 42.2123 3.00928 39.8937 2.88498C37.64 2.70169 35.3388 2.80352 33.1054 2.5795C32.0872 2.47089 30.9196 2.37585 29.9081 2.29439C29.7003 2.27745 29.4914 2.27745 29.2836 2.29439C24.3077 2.29439 19.5763 2.20614 14.9195 3.36695C13.7519 3.65884 12.5639 4.04578 11.3556 4.22228C10.2417 4.34238 9.14581 4.593 8.09044 4.96899C6.1965 5.79717 4.87956 7.83366 3.43365 9.28636C2.58759 9.9688 1.78288 10.701 1.02379 11.479C0.46496 12.38 0.168735 13.4192 0.168466 14.4794C-0.0351833 16.9436 0.575766 19.2313 1.09168 21.4646C2.31198 26.3355 4.16031 31.0271 6.59022 35.4214C7.6492 37.39 8.79642 39.1753 9.70606 41.1779C10.5614 43.0447 11.0977 44.7757 11.7833 46.6697C12.5942 48.6666 13.0358 50.7941 13.0866 52.9488C13.0116 54.2035 13.1633 55.4613 13.5347 56.6621C13.8391 57.6039 14.3309 58.4744 14.9806 59.2213C16.4265 60.9319 17.1732 62.8937 18.3747 64.7198C18.3885 64.7363 18.3999 64.7545 18.4087 64.7741C18.6191 65.195 18.8296 65.6023 19.0264 66.0096C19.9768 67.9714 20.7235 69.9672 21.6264 71.9833C22.149 73.1441 22.8958 74.2981 23.3031 75.52C23.5307 76.1244 23.6591 76.7617 23.6832 77.4072C23.5676 77.9767 23.5424 78.5608 23.6085 79.1382C23.6718 79.387 23.8075 79.6114 23.9984 79.783C24.1894 79.9546 24.427 80.0657 24.6811 80.1021C25.2309 80.1836 26.0388 79.9188 26.3239 80.4959C26.5682 80.9575 26.6904 81.5073 26.962 81.9893C27.2335 82.4713 27.186 83.1297 27.7019 83.3469C28.2623 83.5037 28.8471 83.5544 29.4261 83.4963C30.105 83.4963 30.6752 83.666 31.3133 83.7203C31.9514 83.7746 32.5759 83.7203 33.2004 83.7203C33.825 83.7203 34.4563 83.5234 35.074 83.5574C34.883 83.0109 34.6278 82.4891 34.3137 82.0029C33.9725 81.5462 33.5933 81.1193 33.1801 80.7267C32.6863 80.276 32.1418 79.8842 31.5577 79.5591C31.0346 79.1328 30.6106 78.5977 30.3154 77.991C29.2972 76.1445 28.4622 74.2234 27.41 72.3974C26.2581 70.398 25.3899 68.2482 24.8304 66.0096C24.5671 64.8894 24.3609 63.7565 24.2127 62.6154C24.1281 61.3777 24.1827 60.1345 24.3756 58.909C24.4639 57.7346 24.7693 56.472 24.9798 55.2908C25.0816 54.7138 25.3192 54.1775 25.4142 53.6141C25.4655 53.1335 25.4655 52.6488 25.4142 52.1682C25.5772 48.3396 23.6221 42.5559 27.763 41.0421C28.2314 40.8724 28.7066 40.7163 29.1818 40.5669C30.648 40.8724 31.9785 42.97 32.7864 43.9611C33.905 45.4661 35.2122 46.8213 36.6761 47.9934C40.1788 50.5254 44.7949 50.8445 49.0512 50.8445C51.2691 50.8792 53.4776 50.549 55.5883 49.8669C56.8781 49.4325 58.3036 49.1067 59.7224 48.6654C60.5709 48.5568 61.4331 48.4142 62.268 48.3328C64.5829 48.1332 66.9122 48.1719 69.2193 48.4482C71.4187 48.6722 73.1293 49.704 75.098 50.5322C76.2112 51.0006 76.6525 51.1567 76.8697 52.3718C77.0666 53.4783 77.3856 54.5102 77.5485 55.5691C77.6714 56.6325 77.7191 57.7032 77.6911 58.7732C77.7811 59.8843 78.0781 60.9687 78.5668 61.9705C79.3135 63.912 79.2456 65.8942 79.2456 68.08C79.2456 69.1322 79.3542 70.2455 79.2456 71.2841C79.137 72.3227 78.2817 73.178 78.2545 74.2031C78.2545 75.5607 79.1981 75.4046 79.7683 76.321C80.2096 77.0406 80.0466 78.2353 80.0874 79.145C80.0127 79.3961 79.9584 79.6609 79.8769 79.9392C79.7547 80.3194 79.4221 80.8217 79.7615 81.0864C80.1009 81.3512 80.3182 81.4055 80.5829 81.6634C80.8746 81.9253 81.1062 82.2472 81.2617 82.607C81.2617 82.6613 81.3093 82.7021 81.3296 82.7496C83.3661 82.6953 85.0972 83.3402 87.3441 81.8807C86.3403 81.2574 85.5587 80.3333 85.1107 79.24C84.9242 78.7687 84.697 78.3144 84.4319 77.8824C84.3837 77.8116 84.3315 77.7436 84.2758 77.6787C84.1672 77.4411 84.0042 77.2307 83.8549 76.9999C83.3273 76.021 83.0918 74.9113 83.1761 73.8026C83.1147 72.7275 82.9717 71.6587 82.7484 70.6053C82.6262 69.4477 82.6262 68.2804 82.7484 67.1229C82.9238 66.0415 83.3015 65.0028 83.8617 64.0613C84.2954 63.054 84.4861 61.9587 84.4183 60.864C84.4183 59.7711 84.0653 58.5899 84.3097 57.5242C84.5246 56.9047 84.8021 56.3088 85.1379 55.7456C85.4366 55.1347 85.6742 54.5373 85.9728 53.9332C88.1451 53.7227 90.4056 53.9807 92.4896 53.4919C94.7155 53.0773 96.8336 52.2134 98.7145 50.9531C100.92 49.3292 102.745 47.2444 104.064 44.8436C105.116 42.9089 106.351 41.0082 107.261 39.0056C107.436 38.6432 107.633 38.2918 107.852 37.9534C109.535 35.6454 111.069 33.6768 113.839 32.4413C114.596 32.1076 115.413 31.9285 116.241 31.9146C117.068 31.9006 117.89 32.052 118.659 32.3599C120.274 33.0387 121.374 34.3964 123.268 34.4575C124.921 34.4317 126.554 34.819 128.02 35.5843C128.729 35.967 129.464 36.3004 130.219 36.5822C130.993 36.8402 131.828 36.7926 132.609 36.9963C134 37.3493 135.453 38.6255 136.899 37.4715C137.892 36.526 138.692 35.3963 139.254 34.1452C139.567 33.446 140.069 32.8622 139.892 31.9594Z" fill="#A9744D"/>
<path d="M118.625 32.3735C120.24 33.0523 121.34 34.41 123.234 34.4711C123.717 34.479 124.2 34.513 124.68 34.5729L124.442 34.4372C123.892 34.1792 123.376 33.928 122.854 33.6565C121.659 33.032 120.41 32.4618 119.276 31.7218C118.352 30.9977 117.315 30.4291 116.208 30.0383C115.035 29.6857 113.771 29.79 112.671 30.3302C111.198 31.1313 110.173 32.8419 108.917 33.9688C107.994 34.8234 107.211 35.8175 106.596 36.9149C106.222 37.553 106.019 38.2726 105.611 38.8971C105.123 39.5279 104.67 40.1851 104.254 40.8657C103.62 42.0349 103.106 43.2653 102.72 44.5382C102.414 45.6922 101.749 46.7444 101.403 47.9323C101.328 48.1903 101.247 48.4618 101.172 48.7334C102.278 47.5625 103.233 46.2581 104.016 44.8504C105.068 42.9158 106.304 41.015 107.213 39.0125C107.389 38.65 107.586 38.2986 107.804 37.9603C109.488 35.6523 111.022 33.6837 113.791 32.4482C114.551 32.1137 115.37 31.9348 116.2 31.922C117.031 31.9091 117.855 32.0627 118.625 32.3735Z" fill="#875D3E"/>
<path d="M112.183 10.1825H112.135C111.355 10.1785 110.576 10.1104 109.807 9.97888C109.739 10.1418 109.678 10.3047 109.617 10.4676C109.207 11.6208 108.885 12.803 108.653 14.0044C108.184 16.516 108.653 19.0141 108.809 21.5326C108.876 22.9931 109.059 24.446 109.359 25.8771C109.657 27.2009 110.275 28.4906 110.716 29.8008C111.158 31.1109 111.68 32.2514 112.074 33.4393C112.62 33.0696 113.197 32.7471 113.798 32.4754L114.185 32.326C113.934 31.8373 113.696 31.3349 113.506 30.8258C113 29.6753 112.567 28.4941 112.21 27.2891C111.877 25.9722 111.714 24.5738 111.402 23.2772C111.17 21.9541 111.041 20.6151 111.015 19.2721C110.913 17.9959 110.777 16.7536 110.777 15.4231C110.863 14.1273 111.154 12.8533 111.639 11.6488C111.791 11.1495 111.972 10.6599 112.183 10.1825Z" fill="#4D7FAE"/>
<path d="M113.493 30.8054C113.404 30.5678 113.303 30.3302 113.208 30.0927C113.016 30.1578 112.83 30.2372 112.651 30.3302C112.149 30.6208 111.692 30.9821 111.293 31.4028C111.565 32.0816 111.85 32.7605 112.088 33.4393C112.344 33.2608 112.609 33.0954 112.882 32.9437C113.167 32.7808 113.472 32.6247 113.791 32.4821L114.178 32.3328C113.941 31.8169 113.703 31.3145 113.493 30.8054Z" fill="#3A5F83"/>
<path d="M133.715 29.9365C132.398 29.9365 131.305 30.1538 130.592 31.3756C130.267 31.9255 130.321 32.6111 129.724 32.9437C129.282 33.1881 128.671 33.161 128.312 33.6226C127.952 34.0842 128.176 34.8716 127.843 35.4147C127.843 35.4147 127.796 35.4622 127.775 35.4894L127.952 35.5708C128.661 35.9535 129.396 36.2869 130.151 36.5687C130.925 36.8267 131.76 36.7792 132.541 36.9828C133.932 37.3358 135.385 38.612 136.831 37.458C137.825 36.5126 138.625 35.3828 139.186 34.1317C139.567 33.4529 140.069 32.8351 139.865 31.9323C139.8 31.6335 139.688 31.347 139.533 31.0838C138.677 30.9616 137.822 30.8937 137.069 30.7715C135.935 30.6154 134.91 29.9365 133.715 29.9365Z" fill="#B58866"/>
<path d="M137.612 36.6976C137.204 36.6976 136.797 36.6433 136.39 36.6026C135.612 36.4291 134.854 36.1743 134.129 35.8423C133.301 35.5708 132.5 35.3535 131.679 35.0277C130.903 34.7778 130.155 34.4503 129.445 34.0502C130.026 34.5999 130.679 35.068 131.387 35.4418C131.736 35.6648 132.122 35.8234 132.527 35.9102C133.314 36.0728 134.086 36.2999 134.835 36.589C135.419 36.8198 136.111 37.3154 136.777 37.5529L136.831 37.519C137.119 37.2736 137.381 36.9982 137.612 36.6976Z" fill="#422315"/>
<path d="M7.40481 58.9022C7.42884 57.7319 7.2755 56.5646 6.95 55.4402C7.44473 55.9821 7.79902 56.6371 7.98182 57.3477C8.00469 56.184 7.8746 55.0223 7.59489 53.8925C7.31656 52.8742 6.53591 52.046 6.32547 51.021C6.83495 51.1978 7.26382 51.552 7.53379 52.0189C7.85963 51.4351 7.43875 50.1928 7.15365 49.5819C6.72672 48.9185 6.3413 48.2293 5.99963 47.5182C5.52168 45.7336 5.32472 43.8853 5.41583 42.0401C5.4996 40.0955 5.4224 38.1474 5.18503 36.2157C4.84318 34.2918 4.64802 32.3447 4.60124 30.3913C4.60124 28.3548 4.70985 26.4405 4.02423 24.4515L1.34284 20.236C1.34284 22.5711 1.73656 24.8927 1.95379 27.2211C2.17102 29.5495 2.25248 31.9322 2.63262 34.2335C2.95846 36.27 3.56941 38.3065 3.56262 40.3837C3.56262 42.3387 3.63729 44.1784 3.79343 46.0859C3.97671 48.36 3.96992 50.2336 2.88379 52.2701C2.09635 53.7431 1.24781 56.4177 2.40182 57.9383C1.8316 56.248 2.44255 55.1211 3.20963 53.7092C3.08744 54.5374 3.48795 55.318 3.3454 56.1394C3.20284 56.9608 2.7616 57.8025 2.61905 58.6782C2.33394 60.416 2.80912 61.8212 3.20963 63.4301C3.22389 62.3935 3.31008 61.3592 3.46759 60.3346C4.14642 61.1831 4.04459 63.0499 4.14642 64.1632C4.25503 65.5209 4.04459 66.7631 4.14642 68.1276C4.25118 68.7376 4.44803 69.3281 4.73021 69.879C4.93912 70.5176 5.0557 71.1828 5.07642 71.8544C5.16849 73.1732 5.36369 74.4828 5.66021 75.7712C5.66021 73.0559 6.02 70.3406 6.23722 67.6252C6.45445 64.9099 5.00175 61.9095 6.00642 59.167C6.06823 60.8505 6.33959 62.5197 6.81423 64.136C7.03726 65.0911 7.15562 66.0676 7.16722 67.0482C7.16722 67.4827 7.23511 67.9986 7.28262 68.5009C7.27537 67.7044 7.323 66.9082 7.42518 66.1182C7.6366 64.8874 7.67544 63.633 7.54058 62.3914C7.36669 61.2369 7.32115 60.0667 7.40481 58.9022Z" fill="#875D3E"/>
<path d="M37.2191 43.6896C36.2828 42.7311 35.2802 41.8396 34.2187 41.0218C32.0939 39.5963 29.5551 38.5509 26.9959 39.4469C25.9804 39.7141 25.0261 40.1751 24.1855 40.8046C23.2514 41.5923 22.4613 42.5364 21.8504 43.5946C21.3081 44.5081 20.9981 45.5407 20.9475 46.6018C20.9475 47.4504 21.0154 48.265 21.0697 49.0999C21.0834 50.4597 21.5358 51.7787 22.3595 52.8607C22.9381 53.4806 23.6292 53.9851 24.396 54.3473C24.3111 54.8779 24.3111 55.4187 24.396 55.9493C24.396 56.5603 24.5928 57.402 25.2717 57.6396C25.4105 57.6995 25.5654 57.7114 25.7118 57.6733C25.8581 57.6351 25.9875 57.5492 26.0795 57.4292C26.2153 57.178 26.127 56.7028 26.1745 56.4177C26.2563 55.9169 26.3039 55.4112 26.3171 54.9039C26.7686 54.9467 27.2232 54.9467 27.6747 54.9039C28.2914 54.8577 28.904 54.7669 29.5076 54.6324C29.5415 54.8496 29.5687 55.0736 29.6094 55.3112C29.7045 55.705 29.8063 56.0851 29.9285 56.4585C30.0507 56.8318 30.0439 57.2934 30.2 57.6668C30.3561 58.0401 30.7974 58.3456 31.0418 57.9383C31.2861 57.531 31.13 57.0694 31.13 56.7232C31.13 56.377 31.13 55.8679 31.0825 55.4674C31.0787 55.0561 31.0469 54.6456 30.9874 54.2387C31.5295 54.0545 32.0562 53.8275 32.5623 53.5598C33.1968 53.1454 33.7841 52.6628 34.3137 52.1207C34.964 51.5441 35.5635 50.9127 36.1058 50.2336C36.6195 49.5806 37.0738 48.8832 37.4635 48.1496C37.8369 47.4707 38.475 46.7919 38.4614 46.0044L37.2191 43.6896Z" fill="#D09187"/>
<path d="M24.6471 49.2764C24.6612 49.3606 24.6962 49.44 24.749 49.5072L24.6471 49.2764Z" fill="#BB837A"/>
<path d="M37.2191 43.6896C36.2828 42.7311 35.2802 41.8396 34.2187 41.0218C32.0939 39.5963 29.5551 38.5509 26.9959 39.4469C25.9804 39.7141 25.0261 40.1751 24.1855 40.8046C23.3636 41.5097 22.654 42.3361 22.0812 43.2552L24.6472 49.2561C24.6658 48.5921 24.8109 47.9377 25.0748 47.3282C25.2581 46.7783 25.455 46.242 25.679 45.7125C25.9231 44.9328 26.3962 44.2445 27.0366 43.7371C27.4146 43.5064 27.8095 43.3045 28.2178 43.133C28.5309 42.9233 28.8683 42.7524 29.2225 42.6239C30.1321 42.4677 30.7091 43.4452 31.1775 44.0494C31.7515 44.8691 32.4015 45.6328 33.119 46.3303C33.7978 46.9548 34.4766 47.5725 35.203 48.1631C35.7002 48.5641 36.2424 48.9058 36.8186 49.1814C37.0358 48.8329 37.2463 48.4799 37.4499 48.1224C37.8233 47.4436 38.4614 46.7647 38.4478 45.9773L37.2191 43.6896Z" fill="#BB837A"/>
<path d="M136.492 34.0027C136.622 33.8955 136.724 33.7574 136.788 33.601C136.852 33.4446 136.876 33.2747 136.858 33.1066C136.804 32.6314 136.532 32.7061 136.125 32.6382C135.718 32.5703 135.704 32.2852 135.378 32.0748C135.216 31.9609 135.03 31.8873 134.834 31.8601C134.638 31.833 134.438 31.853 134.251 31.9186C133.892 32.1495 134.136 32.5975 133.926 32.903C133.715 33.2084 133.335 33.2559 133.152 33.5411C132.595 34.376 133.573 34.7494 134.231 34.6679C134.137 34.6316 134.053 34.5736 133.986 34.4986C133.919 34.4236 133.87 34.3337 133.844 34.2364C133.819 34.1391 133.816 34.037 133.837 33.9386C133.859 33.8402 133.903 33.7481 133.966 33.67C134.067 33.5163 134.211 33.3961 134.38 33.3247C134.55 33.2534 134.736 33.2341 134.917 33.2695C135.326 33.223 135.741 33.2766 136.125 33.4257C136.471 33.6293 136.315 34.1045 136.091 34.4235C136.437 34.2742 136.919 33.7447 136.858 33.317" fill="#422315"/>
<path d="M102.916 7.85414L102.692 7.78625C102.935 9.49784 103.687 11.0968 104.851 12.3752C105.833 13.4662 107.058 14.3094 108.428 14.8356C109.798 15.3618 111.273 15.5562 112.732 15.4028L107.655 9.46297C106.08 9.01494 104.559 8.41078 102.916 7.85414Z" fill="#875D3E"/>
<path d="M110.777 15.3959C110.788 14.7364 110.886 14.0812 111.069 13.4476L109.311 11.4111C109.029 12.26 108.802 13.1261 108.632 14.0043C108.578 14.3097 108.537 14.6016 108.503 14.9003C109.24 15.1519 110.003 15.3182 110.777 15.3959Z" fill="#3A5F83"/>
<path d="M95.3679 49.0932C95.5308 48.4483 96.0467 47.946 95.9517 47.2671C95.8566 46.5883 95.5579 46.663 95.0556 46.4525C94.5533 46.2421 94.1596 46.0045 94.112 45.5225C94.0384 44.9462 94.1427 44.3612 94.4107 43.8458C94.7977 43.2349 95.7277 43.3095 96.2232 42.7461C96.5219 42.4067 96.8681 41.4835 96.2232 41.3341C95.7548 41.2255 95.2661 41.6668 94.8655 41.2798C94.465 40.8929 94.4175 40.601 93.8677 40.6485C93.3178 40.696 93.1277 41.0762 92.7883 41.4088C92.6561 41.5714 92.4725 41.6841 92.2677 41.7285C92.0629 41.773 91.8491 41.7464 91.6615 41.6532C90.6296 41.3884 90.1001 42.1148 90.1816 43.0855C90.2155 43.52 90.2834 43.9408 90.2834 44.3957C90.2328 44.7814 90.1625 45.1643 90.073 45.5429C90.0765 45.9208 90.0044 46.2957 89.861 46.6454C89.7176 46.9951 89.5058 47.3127 89.238 47.5794C88.5185 48.2582 87.5138 47.7491 86.8961 48.5773C86.4955 49.1068 86.0815 50.3558 85.3619 50.3965C84.6423 50.4373 83.2032 49.7177 82.6466 50.5119C82.5576 50.7258 82.5296 50.9601 82.5655 51.1889C82.6015 51.4178 82.7 51.6322 82.8502 51.8085C82.986 52.0122 83.2439 52.1615 83.3525 52.3855C83.4612 52.6095 83.3525 52.7181 83.2982 52.9489C83.1557 53.4852 83.5223 53.7771 84.045 53.8925C84.5677 54.0079 84.9885 53.75 85.4569 53.75C85.6654 53.7368 85.8718 53.7968 86.0407 53.9197C88.179 53.7296 90.4056 53.9672 92.4489 53.4852C94.6748 53.0706 96.7928 52.2067 98.6738 50.9464C98.925 50.7699 99.1625 50.5798 99.4069 50.3898C99.1572 50.2728 98.8878 50.2038 98.6127 50.1861C97.6827 50.1114 94.9402 50.7631 95.3679 49.0932Z" fill="#E4E2E0"/>
<g style="mix-blend-mode:multiply" opacity="0.4">
<path d="M85.9389 53.9264C86.5091 53.8721 87.0861 53.8517 87.6699 53.8381C91.3085 47.6132 90.1816 43.8457 90.1816 43.8457C89.5524 47.4848 88.1013 50.9325 85.9389 53.9264Z" fill="#191717"/>
</g>
<g style="mix-blend-mode:multiply" opacity="0.4">
<path d="M74.9893 46.0519C74.9893 46.0519 73.9779 47.5725 74.5345 50.2878L75.098 50.5322C75.558 50.6765 75.9865 50.9069 76.3606 51.2111C75.6602 49.5661 75.4254 47.7602 75.6817 45.9908C75.6817 45.9908 75.0029 42.3727 76.7271 40.2819C76.7679 40.2886 74.6228 42.0129 74.9893 46.0519Z" fill="#191717"/>
</g>
<path d="M74.9893 46.052C74.729 44.2095 75.1885 42.3376 76.2723 40.825C76.3896 40.5178 76.4201 40.1844 76.3606 39.861C76.2588 39.2433 76.1162 38.5034 75.4442 38.2522C74.9011 38.0553 74.1883 37.9399 73.8014 38.483C73.5779 38.8738 73.411 39.2943 73.3058 39.7321C73.2926 39.7606 73.2766 39.7879 73.2583 39.8135C73.1249 40.028 72.9727 40.2302 72.8035 40.4177C72.3408 40.5568 71.8474 40.5568 71.3847 40.4177C71.2935 40.3935 71.1976 40.3935 71.1064 40.4177C71.1064 40.1937 71.1675 39.9289 71.1675 39.637C71.1675 37.9739 69.7352 38.1707 68.8527 39.1483C68.1069 40.1287 67.3045 41.0648 66.4496 41.9518C64.8883 43.3095 62.9672 44.7418 60.89 45.2985C59.8821 45.5409 58.8295 45.5269 57.8285 45.2578C57.1496 45.1084 55.9074 44.7418 55.3439 45.2578C54.7805 45.7737 55.5612 47.0295 54.6651 47.4572C53.9388 47.8102 52.7644 47.2332 52.1263 46.8802C51.1352 46.3371 49.8454 45.2781 48.6235 45.57C47.8021 45.7669 47.0215 46.7105 46.1865 47.0635C45.08 47.5386 41.6383 48.6723 41.5636 46.4864C41.5636 45.8076 42.0931 45.4139 42.2764 44.7894C42.3909 44.152 42.2881 43.4946 41.9845 42.9226C41.1903 41.6532 39.4321 42.4813 38.2102 42.298C37.1988 42.1419 36.615 41.6599 36.6421 40.6213C36.6421 39.7049 37.3209 38.965 37.2463 38.13C37.1716 37.2951 36.2755 36.2632 35.3795 36.4329C34.4834 36.6026 33.8114 37.2883 32.9425 36.7724C32.1958 36.3311 32.2636 35.3604 32.4741 34.6476C32.732 33.8126 33.6145 33.2899 33.8318 32.4482C34.0897 31.3688 33.438 30.6018 32.3587 30.7918C31.2793 30.9819 31.001 31.973 30.4444 32.7401C29.8877 33.5072 29.2972 33.7923 28.5029 33.1542C27.8988 32.6586 26.9823 32.5364 26.4664 31.9526C25.9505 31.3689 26.0455 30.3574 25.0069 30.1402C23.9683 29.9229 22.8754 30.5475 22.0947 31.1109C20.6149 32.1835 20.805 34.8513 23.0383 34.6476C23.7918 34.5797 24.8508 34.2675 25.3667 35.0617C25.4665 35.2245 25.5282 35.4076 25.5473 35.5976C25.5665 35.7875 25.5426 35.9793 25.4773 36.1587C25.4121 36.3381 25.3072 36.5005 25.1705 36.6338C25.0339 36.7671 24.8689 36.8678 24.6879 36.9285C24.2806 37.0507 23.7986 36.847 23.4253 37.0303C23.0825 37.2593 22.8416 37.612 22.7532 38.0146C22.6206 38.7602 22.339 39.4713 21.925 40.1054C21.3073 40.7843 20.3094 40.3362 19.6985 39.8203C18.9246 39.1754 18.3408 38.4626 17.2818 38.931C16.8872 39.1285 16.5441 39.4154 16.2801 39.769C16.0161 40.1226 15.8384 40.5331 15.7612 40.9675C15.5983 41.884 16.0463 42.7393 16.1618 43.581C16.2427 44.0369 16.1981 44.5062 16.0328 44.9387C15.7545 45.3392 15.32 45.2238 14.8991 45.2713C14.2203 45.3528 13.0052 45.699 13.3514 46.629C13.6229 47.3825 14.8312 47.7219 15.4218 48.1156C16.3716 48.6835 17.1376 49.5131 17.628 50.5051C17.9267 51.3062 17.628 52.0529 17.4176 52.8132C17.2549 53.6401 17.2183 54.4869 17.309 55.3248C17.4312 56.8658 18.0421 58.8072 16.7591 60.0088C16.4983 60.2346 16.2839 60.5089 16.1278 60.8166C16.5758 61.5497 16.9831 62.2964 17.3972 63.0432C17.4787 63.1925 17.5669 63.3418 17.6552 63.4912C17.7434 63.6405 17.7842 63.722 17.852 63.8374C18.0285 64.1293 18.205 64.4212 18.3951 64.7063C18.4088 64.7228 18.4202 64.7411 18.429 64.7606C18.6395 65.1815 18.8499 65.5888 19.0468 65.9961C19.9972 67.9579 20.7439 69.9537 21.6467 71.9698C22.1694 73.1306 22.9161 74.2846 23.3234 75.5065C23.5511 76.111 23.6795 76.7482 23.7036 77.3937C23.5879 77.9632 23.5627 78.5473 23.6289 79.1247C23.6884 79.3732 23.8201 79.5985 24.0073 79.7724C24.1945 79.9464 24.4289 80.0611 24.6811 80.1022C25.2309 80.1837 26.0388 79.9189 26.3239 80.4959C26.5682 80.9575 26.6904 81.5074 26.962 81.9894C27.2335 82.4713 27.186 83.1298 27.7019 83.347C28.2623 83.5038 28.8471 83.5544 29.4261 83.4964C30.105 83.4964 30.6752 83.6661 31.3133 83.7204C31.9514 83.7747 32.5759 83.7204 33.2004 83.7204C33.825 83.7204 34.4563 83.5235 35.074 83.5575C34.883 83.011 34.6278 82.4892 34.3137 82.0029C33.9725 81.5463 33.5933 81.1194 33.1801 80.7267C32.6863 80.2761 32.1418 79.8843 31.5577 79.5591C31.0346 79.1329 30.6106 78.5978 30.3154 77.991C29.2972 76.1446 28.4622 74.2235 27.41 72.3975C26.2581 70.3981 25.3899 68.2482 24.8304 66.0097C24.5671 64.8895 24.3609 63.7566 24.2127 62.6155C24.1281 61.3778 24.1827 60.1346 24.3756 58.9091C24.4639 57.7347 24.7693 56.4721 24.9798 55.2909C25.0816 54.7139 25.3192 54.1776 25.4142 53.6142C25.4655 53.1336 25.4655 52.6489 25.4142 52.1683C25.5772 48.3397 23.6221 42.556 27.763 41.0422C28.2314 40.8725 28.7066 40.7164 29.1817 40.567C30.648 40.8725 31.9785 42.9701 32.7863 43.9612C33.905 45.4662 35.2122 46.8214 36.6761 47.9934C40.1788 50.5255 44.7949 50.8445 49.0512 50.8445C51.2691 50.8793 53.4776 50.5491 55.5883 49.867C56.8781 49.4326 58.3036 49.1067 59.7224 48.6655C60.5709 48.5569 61.4331 48.4143 62.268 48.3329C64.583 48.1333 66.9122 48.172 69.2193 48.4483C69.4655 48.4702 69.7103 48.5064 69.9524 48.5569L70.1628 48.5976L70.6652 48.7198L70.8824 48.7809C71.0793 48.8352 71.2761 48.9031 71.473 48.971H71.5409L72.2197 49.2221L72.4166 49.3036L72.8918 49.5072L73.0886 49.5955L73.686 49.867L74.5549 50.254C73.9779 47.5726 74.9893 46.052 74.9893 46.052Z" fill="#E4E2E0"/>
<g style="mix-blend-mode:multiply" opacity="0.3">
<path d="M25.1359 45.2645C25.2445 43.6285 25.7197 42.2098 27.0706 41.4019C27.3655 39.6464 28.0625 37.9829 29.1071 36.5415C24.4774 39.4401 25.1359 45.2645 25.1359 45.2645Z" fill="#191717"/>
</g>
<path d="M10.6632 33.5411C10.2423 33.1813 10.4392 32.5636 10.4324 32.068C10.4604 31.4225 10.3565 30.7781 10.1269 30.1741C9.80788 29.4613 8.56562 28.7282 9.4481 27.9611C9.9097 27.5674 10.4188 27.5606 10.8601 27.065C11.3013 26.5695 11.5389 25.9721 12.2177 26.0604C12.8966 26.1486 12.7336 27.0854 12.788 27.6217C12.9105 28.2318 13.233 28.7836 13.7044 29.1898C14.1185 29.665 14.6412 30.2963 14.4647 30.9819C14.2882 31.6675 13.4871 31.5996 12.9034 31.6607C12.4893 31.6607 12.3942 31.6607 12.2245 32.068C12.0548 32.4753 12.177 32.7944 12.0684 33.1406C12.016 33.2716 11.9343 33.3889 11.8296 33.4834C11.7249 33.578 11.5998 33.6472 11.4641 33.6859C11.3285 33.7246 11.1857 33.7316 11.0469 33.7065C10.908 33.6814 10.7768 33.6248 10.6632 33.5411Z" fill="#E4E2E0"/>
<path d="M78.818 32.8758C79.4729 32.5061 80.0355 31.9927 80.4635 31.3742C80.8915 30.7558 81.1737 30.0483 81.2889 29.3051C81.574 27.8389 80.5354 26.2775 81.4518 24.8588C81.6826 24.5126 82.0899 24.2886 82.3547 23.9695C82.7361 23.4782 83.0196 22.9182 83.1896 22.3199C83.5883 21.1149 83.5523 19.8083 83.0878 18.6271C82.151 16.4073 79.0148 15.5113 76.8493 15.0089C73.91 14.3301 71.1404 12.9385 68.1263 12.7009C65.2956 12.4769 63.1709 13.9703 61.7317 16.2376C61.0529 17.2762 60.8017 18.3148 61.6299 19.2788C62.4581 20.2427 63.4424 20.5957 64.2502 21.3832C65.9066 23.0056 64.3792 25.4969 65.3771 27.3705C66.4904 29.4545 69.0156 27.0175 70.638 27.5537C72.7424 28.2326 72.4301 30.8461 73.4416 32.4006C74.4531 33.9551 77.3517 33.5886 78.818 32.8758Z" fill="#E4E2E0"/>
<path d="M130.165 16.4209C130.097 16.1697 129.927 15.9118 129.846 15.6538C129.798 15.4094 129.732 15.1689 129.649 14.9342C129.426 14.5069 129.266 14.0496 129.174 13.5766C129.017 13.0994 128.984 12.5901 129.079 12.0967C129.126 11.6213 129.077 11.1412 128.936 10.6848C128.902 10.3996 128.889 10.1145 128.882 9.82943L128.665 9.66651C127.947 9.25368 127.277 8.76187 126.669 8.20023C126.192 7.66499 125.667 7.17421 125.101 6.73396C124.791 6.46396 124.428 6.26361 124.034 6.14649C123.641 6.02937 123.226 5.99821 122.82 6.05512C122.032 6.1185 121.256 6.28511 120.512 6.55067L120.159 6.69323C120.314 7.08858 120.433 7.49767 120.512 7.91512C120.548 8.27027 120.665 8.61249 120.853 8.9159C121.041 9.21931 121.296 9.47598 121.598 9.66651C122.073 9.90104 122.527 10.1758 122.956 10.4879C123.33 10.8897 123.795 11.1949 124.313 11.3772C125.507 11.9058 126.515 12.7808 127.205 13.8888C127.569 14.4464 127.977 14.9731 128.427 15.4637C128.834 15.8778 128.95 16.4956 129.384 16.8757C129.819 17.2559 130.335 17.1133 130.165 16.4209Z" fill="#E4E2E0"/>
<path d="M87.0182 2.43706C85.4841 2.31487 83.9567 2.24699 82.4361 2.16553C82.474 2.25864 82.5218 2.3474 82.5787 2.43027C83.0742 3.17699 85.294 3.87618 84.9139 4.84691C84.6763 5.45786 84.4455 5.36283 84.5744 6.0756C84.641 6.2632 84.6682 6.46253 84.6542 6.66111C84.6401 6.85969 84.5853 7.05323 84.493 7.22961C84.0789 7.90845 82.9317 7.77947 83.0199 8.67553C83.2032 10.5016 86.2104 10.3862 87.0047 9.24575C88.0433 7.7591 87.0726 5.68867 88.1044 4.26991C88.3473 3.94239 88.6763 3.68862 89.0547 3.53677C89.4077 3.401 89.8354 3.53677 90.2088 3.43494C90.3955 3.37889 90.5672 3.28143 90.7111 3.14983C89.5057 2.79517 88.2691 2.5565 87.0182 2.43706Z" fill="#E4E2E0"/>
<path d="M53.5043 2.03653C52.5879 2.19945 51.6782 2.26733 50.789 2.43704C49.4313 2.5185 48.1212 2.59996 46.7974 2.70858C44.4896 2.9639 42.1648 3.02974 39.8462 2.90544C37.9998 2.71536 36.1058 2.76967 34.2051 2.65427C33.4619 3.22751 32.7692 3.86342 32.1347 4.555C31.5237 5.28135 30.2204 7.31106 30.1864 8.26821C30.1389 9.55799 31.7409 10.9835 32.0804 12.2597C32.4945 13.8007 33.1122 14.4252 34.3341 15.4503C35.556 16.4753 37.3685 17.1677 38.5836 18.3285C39.7987 19.4893 41.3804 21.4376 42.3579 18.7494C42.8738 17.317 42.8738 15.6946 43.7699 14.303C44.5777 13.0608 45.9489 12.3005 47.1233 11.3569C47.9313 10.7039 48.6362 9.93264 49.2141 9.06923C50.0355 7.91522 51.4339 7.33821 52.4182 6.1842C53.3142 5.13201 53.5586 3.51639 53.674 2.19945C53.674 2.12478 53.674 2.0569 53.674 1.98901L53.5043 2.03653Z" fill="#E4E2E0"/>
<path d="M26.0116 2.78317C26.5004 2.59988 26.9959 2.44375 27.505 2.30798C23.1537 2.30798 18.9857 2.3555 14.872 3.38054C13.7044 3.67244 12.5164 4.05937 11.3081 4.23587L10.7515 4.32411C10.7371 4.66655 10.694 5.00717 10.6225 5.34236C10.3841 6.03876 9.95912 6.65633 9.39379 7.12769C8.85751 7.71828 9.02043 8.30207 8.61992 8.9266C8.21941 9.55112 7.73065 10.1281 7.83248 10.8613C9.14941 10.9699 10.2152 9.78193 11.342 9.21171C12.5911 8.58039 13.4804 8.03054 14.9263 8.25455C16.2161 8.45141 17.8928 8.99448 19.1486 8.25455C20.4044 7.51463 21.1715 6.17054 22.0812 5.22696C23.2143 4.15723 24.5509 3.32618 26.0116 2.78317Z" fill="#E4E2E0"/>
<path d="M71.9278 1.23552C71.994 1.14288 72.053 1.04529 72.1043 0.943621C70.2104 0.78749 68.3368 0.604205 66.4428 0.488804C64.6566 0.418199 62.8679 0.538812 61.1072 0.848585C61.2226 1.52742 61.9625 1.60209 62.5735 2.09764C63.422 2.77647 63.3474 3.25165 63.4085 4.29705C63.456 4.97588 63.6528 6.21815 64.4539 6.39464C65.3635 6.59829 66.2867 5.55289 66.6601 4.91479C66.9862 4.21018 67.538 3.63448 68.2282 3.2788C68.907 2.9326 69.708 2.90545 70.4276 2.49136C71.0061 2.1766 71.5162 1.74967 71.9278 1.23552Z" fill="#E4E2E0"/>
<path d="M113.988 12.4973C113.988 12.4973 111.001 4.39886 104.247 7.46718C104.247 7.46718 103.697 14.303 112.732 15.4027C112.732 15.4027 114.002 15.1108 113.988 12.4973Z" fill="#A9744D"/>
<path d="M113.852 13.8482C109.101 6.59823 105.313 9.04203 105.313 9.04203C105.894 10.653 106.884 12.0857 108.184 13.2005C109.484 14.3152 111.051 15.074 112.732 15.4027C112.732 15.4027 113.493 15.2126 113.852 13.8482Z" fill="#C6A288"/>
<path d="M119.168 17.4392C119.236 18.118 120.009 18.8987 120.281 19.5504C120.52 20.1977 120.948 20.7582 121.51 21.1592C122.942 21.838 124.361 19.9848 125.101 19.048C125.135 19.8151 124.252 20.8537 123.743 21.3764C123.418 21.6802 123.024 21.9006 122.594 22.0188C122.165 22.137 121.714 22.1495 121.279 22.0553C120.471 21.8991 119.996 20.7994 119.711 20.1274C119.579 19.7482 119.497 19.3534 119.466 18.953C119.432 18.7697 119.392 18.5525 119.344 18.3692C119.318 18.0694 119.259 17.7735 119.168 17.4867" fill="#875D3E"/>
<path d="M120.62 17.4392C120.92 17.245 121.258 17.1177 121.611 17.0658C121.964 17.0139 122.324 17.0388 122.667 17.1386C123.01 17.2385 123.327 17.411 123.597 17.6444C123.867 17.8779 124.083 18.1668 124.232 18.4914C124.232 18.4914 121.191 19.6862 120.62 17.4392Z" fill="#2B170E"/>
<path d="M24.8304 66.0165C24.5671 64.8963 24.3609 63.7634 24.2127 62.6223C24.1845 62.431 24.1664 62.2384 24.1584 62.0453C23.1228 62.286 22.1199 62.6507 21.1715 63.1314C20.2075 63.5942 19.297 64.161 18.4562 64.8217C18.6531 65.2154 18.8499 65.6024 19.0332 65.9825C19.9021 67.7746 20.6081 69.5871 21.4023 71.4132L21.959 71.4811C23.518 71.5206 25.0703 71.2649 26.5343 70.7276C25.8077 69.2192 25.2368 67.6406 24.8304 66.0165Z" fill="#A9744D"/>
<path d="M26.9959 77.801C28.0216 78.117 29.1285 78.037 30.0982 77.5769C29.2021 75.9138 28.4282 74.1828 27.4915 72.5536C26.8925 72.8549 26.3102 73.188 25.7469 73.5515C24.3009 74.6715 25.4142 77.1493 26.9959 77.801Z" fill="#A9744D"/>
<path d="M83.0539 72.7232C82.9656 71.9969 82.8095 71.3656 82.7077 70.5985C82.5855 69.4409 82.5855 68.2737 82.7077 67.1161C82.8831 66.0347 83.2607 64.996 83.8209 64.0546C84.2547 63.0472 84.4454 61.9519 84.3776 60.8573C84.3776 59.9816 84.1536 59.0516 84.1943 58.1419C83.9345 58.1216 83.6735 58.1216 83.4136 58.1419C82.1917 58.237 80.9631 58.8819 79.8023 59.2756C79.2592 59.4657 78.5261 59.6965 77.8676 59.9951C78.0552 60.6641 78.2818 61.3214 78.5464 61.9638C79.2931 63.9052 79.2252 65.8874 79.2252 68.0732C79.2252 68.7521 79.266 69.4309 79.2728 70.1097C79.7942 70.554 80.3504 70.9558 80.9359 71.3113C81.5401 71.705 82.2664 72.2209 83.0539 72.7232Z" fill="#E4E2E0"/>
<path d="M119.541 16.7671C119.541 16.7671 123.071 10.2232 125.528 17.9211C125.528 17.9211 123.852 7.84727 119.541 16.7671Z" fill="#875D3E"/>
<path d="M81.2617 82.6139C81.2617 82.6682 81.3093 82.709 81.3296 82.7565C83.3661 82.7022 85.0971 83.347 87.3441 81.8876C86.8077 81.5961 86.3437 81.1878 85.9864 80.6928C85.4161 80.7812 84.8376 80.8039 84.2622 80.7607C82.762 80.6385 81.4518 79.9325 79.9244 79.7628C79.9054 79.823 79.8896 79.8842 79.8769 79.9461C79.7547 80.3262 79.4221 80.8286 79.7615 81.0933C80.1009 81.3581 80.3182 81.4124 80.5829 81.6703C80.8746 81.9322 81.1062 82.2541 81.2617 82.6139Z" fill="#7E827A"/>
<path d="M34.3137 82.0096C34.1496 81.7628 33.9584 81.5351 33.7435 81.3308C33.0647 81.453 32.4537 81.7313 31.7953 81.7992C31.1644 81.8055 30.5344 81.7487 29.9149 81.6295C28.9191 81.6191 27.9269 81.7517 26.9688 82.0232C27.2199 82.4848 27.1928 83.1501 27.7019 83.3809C28.2623 83.5377 28.8471 83.5883 29.4261 83.5302C30.105 83.5302 30.6752 83.6999 31.3133 83.7542C31.9514 83.8085 32.5759 83.7542 33.2004 83.7542C33.825 83.7542 34.4563 83.5574 35.074 83.5913C34.885 83.0355 34.6297 82.5044 34.3137 82.0096Z" fill="#7E827A"/>
<path d="M94.4243 10.5083C94.4243 10.5083 99.6853 15.939 99.4137 28.9182C99.4137 28.9182 102.075 16.292 94.4243 10.5083Z" fill="#875D3E"/>
<path d="M95.3679 20.6433C95.3679 20.6433 99.6649 31.8508 95.3679 38.4491C95.3679 38.4491 102.075 33.3171 95.3679 20.6433Z" fill="#875D3E"/>
<path d="M102.692 30.1333C102.692 30.1333 103.331 38.768 97.5673 43.3773C97.5673 43.3773 104.994 40.051 102.692 30.1333Z" fill="#875D3E"/>
<path d="M119.541 9.39504C119.541 9.39504 114.226 4.32416 118.245 0C118.245 0 110.832 3.46204 117.145 11.0853C117.415 11.2024 117.711 11.248 118.004 11.2178C118.297 11.1875 118.577 11.0825 118.817 10.9128C119.058 10.7431 119.251 10.5143 119.378 10.2485C119.504 9.98275 119.561 9.68884 119.541 9.39504Z" fill="#DDCE92"/>
<path d="M117.063 11.7099C117.366 11.8294 117.69 11.8843 118.015 11.871C118.34 11.8577 118.658 11.7765 118.95 11.6326C119.241 11.4888 119.5 11.2854 119.708 11.0356C119.916 10.7858 120.07 10.4952 120.159 10.1825C120.159 10.1825 119.758 13.6649 117.063 11.7099Z" fill="#875D3E"/>
<path d="M117.131 11.0853C117.497 11.203 117.885 11.2332 118.265 11.1736L117.871 10.7934C117.461 10.386 117.127 9.90766 116.887 9.38146C116.649 8.85876 116.283 8.41073 116.059 7.87445C115.811 7.30426 115.614 6.71374 115.468 6.10949C115.354 5.46437 115.309 4.80909 115.332 4.15445C115.378 3.54009 115.537 2.93946 115.801 2.3827C115.923 2.04547 116.09 1.72591 116.296 1.43234L116.344 1.35767C114.681 3.02759 113.085 6.19774 117.131 11.0853Z" fill="#B1A575"/>
</g>
<defs>
<clipPath id="clip0_186_24032">
<rect width="61.0949" height="51.5912" fill="white" transform="matrix(-1 0 0 1 171.872 41.4088)"/>
</clipPath>
<clipPath id="clip1_186_24032">
<rect width="139.805" height="88.1124" fill="white" transform="translate(0.127739)"/>
</clipPath>
</defs>
</svg>
