<svg width="96" height="32" viewBox="0 0 96 32" fill="none" xmlns="http://www.w3.org/2000/svg">
<g id="Group 1321314531">
<path id="Vector" d="M46.9894 0.230713C62.9967 0.230713 79.0039 0.230713 95.4962 0.230713C95.4962 3.23207 95.4962 6.23342 95.4962 9.32572C94.1622 9.43688 92.8283 9.54805 91.4539 9.66258C90.9163 11.2755 90.687 12.721 91.383 14.3132C91.7331 15.0007 92.0959 15.6797 92.4645 16.3575C93.6249 18.5363 94.425 20.292 93.8119 22.7998C92.6635 26.0344 90.7785 28.7408 87.6854 30.3369C87.2587 30.5226 86.8308 30.7055 86.4012 30.8843C86.1371 31.0302 85.8731 31.1761 85.6011 31.3264C83.715 31.8204 81.6896 31.499 80.001 30.5474C80.5409 30.2729 81.0814 29.9994 81.6221 29.7263C81.923 29.5739 82.2239 29.4215 82.5339 29.2645C83.3695 28.8632 83.3695 28.8632 84.38 28.5263C84.774 27.7098 84.774 27.7098 85.0537 26.842C85.1649 26.6197 85.2761 26.3974 85.3906 26.1683C85.8835 23.1326 84.9748 20.5951 83.8715 17.8169C83.0839 15.7858 82.4895 13.9511 83.4011 11.8416C83.8397 11.2275 84.2783 10.6135 84.7169 9.99943C82.9383 9.88827 81.1597 9.77711 79.3273 9.66258C79.3273 16.8881 79.3273 24.1135 79.3273 31.558C78.0258 31.3411 76.7687 31.1137 75.4877 30.8198C75.1918 30.7522 74.8959 30.6847 74.5911 30.6151C74.2226 30.5302 73.8541 30.4454 73.4744 30.3579C72.2934 30.087 71.1123 29.816 69.8954 29.5369C69.8954 26.869 69.8954 24.2011 69.8954 21.4524C67.748 20.9064 67.748 20.9064 66.8006 21.5156C66.4983 21.8178 66.4983 21.8178 66.19 22.1261C65.9638 22.3445 65.7376 22.5629 65.5045 22.788C65.0874 23.22 64.6706 23.6524 64.2544 24.0854C61.8268 26.5915 59.3275 28.4057 55.7476 28.6737C54.1417 28.6179 53.1585 27.9609 52.0422 26.842C50.254 24.7408 49.4284 22.392 48.6737 19.7681C49.1183 19.4347 49.563 19.1012 50.0211 18.7576C50.4049 19.2839 50.7887 19.8102 51.1725 20.3366C51.6958 20.8427 51.6958 20.8427 52.4988 20.9327C53.7178 20.722 54.2295 20.176 55.116 19.326C55.5446 18.9215 55.5446 18.9215 55.9818 18.5089C56.238 18.2575 56.4942 18.0061 56.7582 17.747C56.9596 17.5655 57.1611 17.384 57.3687 17.197C57.8681 16.7293 57.8681 16.7293 57.7266 15.8733C57.4844 14.9423 57.4844 14.9423 56.4213 14.3785C55.3881 14.2839 55.3881 14.2839 54.2528 14.3153C53.8711 14.3175 53.4895 14.3197 53.0962 14.3219C51.9817 14.3483 51.9817 14.3483 50.6948 14.7154C50.6948 13.0479 50.6948 11.3805 50.6948 9.66258C49.472 9.66258 48.2493 9.66258 46.9894 9.66258C46.9894 6.55006 46.9894 3.43755 46.9894 0.230713Z" fill="#10743C"/>
<path id="Vector_2" d="M0.503845 0.230713C9.50791 0.230713 18.512 0.230713 27.7889 0.230713C27.7889 3.34323 27.7889 6.45574 27.7889 9.66258C26.7884 9.66258 25.788 9.66258 24.7572 9.66258C24.7572 16.6657 24.7572 23.6689 24.7572 30.8843C23.7356 29.8627 22.7442 28.8657 21.7887 27.7894C21.5851 27.5623 21.3814 27.3352 21.1716 27.1013C20.715 26.5052 20.715 26.5052 20.715 25.8315C20.5226 25.7442 20.3303 25.6569 20.1321 25.567C19.3015 25.1224 18.6408 24.5994 17.9149 23.9999C14.9838 21.7269 12.6449 21.4091 8.92515 21.7893C7.73742 22.1858 6.81226 22.6465 6.23033 23.8104C6.21686 24.4839 6.21569 25.1579 6.23033 25.8315C6.43181 25.5119 6.63329 25.1923 6.84088 24.863C7.57774 23.8104 7.57774 23.8104 8.5883 23.1367C10.9283 22.9102 10.9283 22.9102 12.2726 23.7683C13.0863 24.6066 13.278 24.9271 13.4095 26.0841C13.2773 27.459 12.8214 28.1379 11.9568 29.2C9.83733 29.9065 7.5218 29.7605 5.47242 28.8763C3.70622 27.8276 2.78869 26.0438 2.18811 24.1472C1.79129 21.5614 2.40162 19.5535 3.87237 17.4102C5.1343 15.9898 6.38345 15.171 8.25145 14.7154C8.25145 14.493 8.25145 14.2707 8.25145 14.0417C7.68314 14.0232 7.11464 14.0103 6.54613 13.9995C6.22958 13.9917 5.91304 13.9839 5.58689 13.9759C4.3053 14.0197 4.3053 14.0197 2.18811 14.7154C2.18811 13.0479 2.18811 11.3805 2.18811 9.66258C1.6323 9.66258 1.07649 9.66258 0.503845 9.66258C0.503845 6.55006 0.503845 3.43755 0.503845 0.230713Z" fill="#10733C"/>
<path id="Vector_3" d="M43.9578 1.24112C44.9368 2.0977 45.5399 2.70525 45.7789 4.00831C45.8417 5.58 45.7055 6.76562 44.6315 7.97816C42.8634 9.14864 41.347 9.61147 39.2629 9.91506C39.0005 9.95718 38.738 9.9993 38.4675 10.0427C37.828 10.1447 37.1876 10.241 36.5471 10.3361C38.0978 11.5685 39.6557 12.7541 41.3051 13.852C43.2241 15.1792 45.1239 16.8649 45.9789 19.0943C46.4081 23.1017 45.5952 25.793 43.1473 28.9091C42.3434 29.8488 41.4847 30.705 40.5893 31.5578C40.2558 31.4467 39.9223 31.3355 39.5787 31.221C39.2419 30.2104 39.2419 30.2104 39.5774 29.5314C39.7377 29.2831 39.8979 29.0347 40.063 28.7788C40.8726 27.3772 41.2308 26.4658 40.9261 24.8208C39.9732 23.0716 38.6941 21.9528 37.0313 20.8838C33.3483 18.3634 29.8865 15.5441 28.7995 11.0098C28.3852 8.17094 28.9906 6.2931 30.5798 3.97936C33.6406 0.0148188 39.5542 -1.16087 43.9578 1.24112Z" fill="#12743D"/>
<path id="Vector_4" d="M60.1267 9.66248C63.3504 9.66248 66.5741 9.66248 69.8954 9.66248C69.8954 12.108 69.8954 14.5536 69.8954 17.0732C69.6731 17.0732 69.4508 17.0732 69.2217 17.0732C68.9855 16.7606 68.7493 16.4479 68.5059 16.1258C67.4843 14.8659 66.4223 14.3597 64.8426 14.0416C63.7135 13.9691 62.6035 13.9791 61.4741 14.0416C61.4333 13.8383 61.3925 13.6351 61.3504 13.4257C61.294 13.1565 61.2375 12.8873 61.1794 12.6099C61.1247 12.3442 61.0699 12.0784 61.0136 11.8046C60.7967 10.89 60.7967 10.89 60.1267 9.66248Z" fill="#F5F8F6"/>
<path id="Vector_5" d="M9.59885 9.66248C11.4886 9.66248 13.3783 9.66248 15.3253 9.66248C15.3253 11.5522 15.3253 13.442 15.3253 15.389C13.8837 15.178 12.8953 15.0309 11.62 14.3784C10.6389 13.0487 9.59885 11.3628 9.59885 9.66248Z" fill="#F9FBFA"/>
<path id="Vector_6" d="M38.5681 3.2623C39.5365 3.936 39.5365 3.936 40.2524 4.6097C40.2313 5.53605 40.2313 5.53605 39.9155 6.63082C38.1956 7.96461 37.0029 8.12841 34.8627 7.97823C34.7027 6.34639 34.6188 5.29812 35.5785 3.91495C36.7268 3.14111 37.2122 3.00807 38.5681 3.2623Z" fill="#F5F8F6"/>
</g>
</svg>
