<svg width="29" height="29" viewBox="0 0 29 29" fill="none" xmlns="http://www.w3.org/2000/svg">
<g id="Frame" clip-path="url(#clip0_2_4085)">
<g id="Group">
<path id="Vector" d="M23.06 0.209961H5.56C5.09587 0.209961 4.65075 0.394335 4.32256 0.722524C3.99438 1.05071 3.81 1.49583 3.81 1.95996V26.46C3.81 26.9241 3.99438 27.3692 4.32256 27.6974C4.65075 28.0256 5.09587 28.21 5.56 28.21H18.3933C18.548 28.2099 18.6964 28.1484 18.8058 28.039L24.6391 22.2057C24.7485 22.0963 24.81 21.948 24.81 21.7933V1.95996C24.81 1.49583 24.6256 1.05071 24.2974 0.722524C23.9692 0.394335 23.5241 0.209961 23.06 0.209961ZM4.97667 26.46V1.95996C4.97667 1.80525 5.03813 1.65688 5.14752 1.54748C5.25692 1.43809 5.40529 1.37663 5.56 1.37663H23.06C23.2147 1.37663 23.3631 1.43809 23.4725 1.54748C23.5819 1.65688 23.6433 1.80525 23.6433 1.95996V21.21H19.56C19.0959 21.21 18.6508 21.3943 18.3226 21.7225C17.9944 22.0507 17.81 22.4958 17.81 22.96V27.0433H5.56C5.40529 27.0433 5.25692 26.9818 5.14752 26.8724C5.03813 26.763 4.97667 26.6147 4.97667 26.46ZM22.8185 22.3766L18.9767 26.2185V22.96C18.9767 22.8053 19.0381 22.6569 19.1475 22.5475C19.2569 22.4381 19.4053 22.3766 19.56 22.3766H22.8185Z" fill="#C8044C"/>
<path id="Vector_2" d="M13.8976 8.78913C14.007 8.89854 14.1553 8.96002 14.31 8.96005H14.3578C14.4423 8.953 14.5242 8.92764 14.5978 8.88573C14.6714 8.84382 14.7351 8.78637 14.7843 8.71738L17.7009 4.63405C17.749 4.57199 17.784 4.50087 17.8039 4.42495C17.8238 4.34903 17.8282 4.26988 17.8168 4.19222C17.8054 4.11457 17.7785 4.04001 17.7376 3.97302C17.6967 3.90602 17.6427 3.84797 17.5788 3.80234C17.515 3.7567 17.4426 3.72442 17.3659 3.70743C17.2893 3.69044 17.2101 3.68909 17.1329 3.70346C17.0557 3.71783 16.9823 3.74762 16.9169 3.79105C16.8515 3.83448 16.7956 3.89066 16.7524 3.95622L14.2353 7.47897L12.9724 6.21605C12.8624 6.10979 12.715 6.05099 12.5621 6.05232C12.4092 6.05365 12.2628 6.115 12.1547 6.22316C12.0465 6.33131 11.9852 6.47762 11.9839 6.63057C11.9825 6.78351 12.0413 6.93087 12.1476 7.04088L13.8976 8.78913ZM10.2267 13.0434H20.7267C20.8814 13.0434 21.0298 12.9819 21.1391 12.8725C21.2485 12.7631 21.31 12.6148 21.31 12.4601C21.31 12.3053 21.2485 12.157 21.1391 12.0476C21.0298 11.9382 20.8814 11.8767 20.7267 11.8767H10.2267C10.072 11.8767 9.92358 11.9382 9.81419 12.0476C9.70479 12.157 9.64333 12.3053 9.64333 12.4601C9.64333 12.6148 9.70479 12.7631 9.81419 12.8725C9.92358 12.9819 10.072 13.0434 10.2267 13.0434ZM7.89333 16.5434H20.7267C20.8814 16.5434 21.0298 16.4819 21.1391 16.3725C21.2485 16.2631 21.31 16.1148 21.31 15.9601C21.31 15.8053 21.2485 15.657 21.1391 15.5476C21.0298 15.4382 20.8814 15.3767 20.7267 15.3767H7.89333C7.73863 15.3767 7.59025 15.4382 7.48086 15.5476C7.37146 15.657 7.31 15.8053 7.31 15.9601C7.31 16.1148 7.37146 16.2631 7.48086 16.3725C7.59025 16.4819 7.73863 16.5434 7.89333 16.5434ZM16.06 18.8767H7.89333C7.73863 18.8767 7.59025 18.9382 7.48086 19.0476C7.37146 19.157 7.31 19.3053 7.31 19.4601C7.31 19.6148 7.37146 19.7631 7.48086 19.8725C7.59025 19.9819 7.73863 20.0434 7.89333 20.0434H16.06C16.2147 20.0434 16.3631 19.9819 16.4725 19.8725C16.5819 19.7631 16.6433 19.6148 16.6433 19.4601C16.6433 19.3053 16.5819 19.157 16.4725 19.0476C16.3631 18.9382 16.2147 18.8767 16.06 18.8767Z" fill="#C8044C"/>
</g>
</g>
<defs>
<clipPath id="clip0_2_4085">
<rect width="28" height="28" fill="white" transform="translate(0.310001 0.209961)"/>
</clipPath>
</defs>
</svg>
