<svg width="29" height="29" viewBox="0 0 29 29" fill="none" xmlns="http://www.w3.org/2000/svg">
<g id="Frame" clip-path="url(#clip0_2_4061)">
<g id="Group">
<path id="Vector" d="M6.60942 1.0335H19.3475V0.209961H5.78583V22.9766H6.60942V1.0335Z" fill="#4CC27C"/>
<path id="Vector_2" d="M20.6625 0.209961V1.0335H25.9489V24.7298C25.9489 26.1946 24.7572 27.3863 23.2924 27.3863C21.0565 27.3863 20.6479 24.7817 20.6317 24.6716L20.5812 24.3181H2.71747V24.7299C2.71747 26.6488 4.27863 28.2099 6.19756 28.2099H14.0875V27.3864H6.19761C4.87281 27.3864 3.7714 26.4116 3.57289 25.1416H19.8894C19.9696 25.4641 20.1269 25.965 20.4145 26.4683C20.6205 26.8288 20.8611 27.1354 21.1327 27.3864H15.4025V28.2099H23.2925C25.2114 28.2099 26.7725 26.6487 26.7725 24.7299V0.209961H20.6625ZM15.4026 4.59343H16.2792V5.41697H15.4026V4.59343Z" fill="#4CC27C"/>
<path id="Vector_3" d="M17.1557 4.59347H18.0324V5.41701H17.1557V4.59347ZM18.9094 4.59347H19.786V5.41701H18.9094V4.59347ZM15.4026 6.34658H22.8541V7.17012H15.4026V6.34658ZM15.4026 10.2914H16.2793V11.115H15.4026V10.2914ZM17.1557 10.2914H18.0324V11.115H17.1557V10.2914ZM18.9094 10.2914H19.786V11.115H18.9094V10.2914ZM15.4026 12.045H22.8541V12.8686H15.4026V12.045ZM11.4576 8.04682C12.6514 8.04682 13.6227 7.07557 13.6227 5.88169C13.6227 4.6878 12.6515 3.71655 11.4576 3.71655C10.2637 3.71655 9.29245 4.6878 9.29245 5.88169C9.29245 7.07557 10.2638 8.04682 11.4576 8.04682ZM11.4576 4.5402C12.1973 4.5402 12.7992 5.14198 12.7992 5.88174C12.7992 6.6215 12.1974 7.22333 11.4576 7.22333C10.7178 7.22333 10.116 6.62155 10.116 5.88174C10.116 5.14198 10.7178 4.5402 11.4576 4.5402ZM11.4576 13.7451C12.6514 13.7451 13.6227 12.7738 13.6227 11.58C13.6227 10.3861 12.6515 9.41483 11.4576 9.41483C10.2637 9.41483 9.29245 10.3861 9.29245 11.58C9.2925 12.7738 10.2638 13.7451 11.4576 13.7451ZM11.4576 10.2385C12.1973 10.2385 12.7992 10.8403 12.7992 11.5801C12.7992 12.3199 12.1974 12.9217 11.4576 12.9217C10.7178 12.9217 10.116 12.3199 10.116 11.5801C10.116 10.8403 10.7178 10.2385 11.4576 10.2385ZM11.4576 19.4434C12.6514 19.4434 13.6227 18.4722 13.6227 17.2783C13.6227 16.0844 12.6515 15.1132 11.4576 15.1132C10.2637 15.1132 9.29245 16.0844 9.29245 17.2783C9.2925 18.4722 10.2638 19.4434 11.4576 19.4434ZM11.4576 15.9367C12.1973 15.9367 12.7992 16.5385 12.7992 17.2783C12.7992 18.0182 12.1974 18.6199 11.4576 18.6199C10.7178 18.6199 10.116 18.0182 10.116 17.2783C10.116 16.5385 10.7178 15.9367 11.4576 15.9367ZM15.4026 15.9898H16.2793V16.8134H15.4026V15.9898ZM17.1557 15.9898H18.0324V16.8134H17.1557V15.9898ZM18.9094 15.9898H19.786V16.8134H18.9094V15.9898ZM15.4026 17.7435H22.8541V18.567H15.4026V17.7435ZM8.38928 21.6883H24.1691V22.5118H8.38928V21.6883Z" fill="#4CC27C"/>
</g>
</g>
<defs>
<clipPath id="clip0_2_4061">
<rect width="28" height="28" fill="white" transform="translate(0.744995 0.209961)"/>
</clipPath>
</defs>
</svg>
