<svg width="29" height="29" viewBox="0 0 29 29" fill="none" xmlns="http://www.w3.org/2000/svg">
<g id="Frame" clip-path="url(#clip0_2_4073)">
<g id="Group">
<path id="Vector" d="M14.9545 6.45961H14.1858V5.69067H14.9545V6.45961ZM13.6732 6.45961H12.9044V5.69067H13.6732L13.6732 6.45961Z" fill="#F94F19"/>
<path id="Vector_2" d="M13.9294 17.9848L14.2477 17.5149C14.4763 17.1774 19.8476 9.21302 19.8476 6.0749C19.8476 2.81176 17.1928 0.156982 13.9294 0.156982C10.6662 0.156982 8.01144 2.81176 8.01144 6.07523C8.01144 9.21319 13.3827 17.1774 13.6112 17.5151L13.9294 17.9848ZM13.9294 0.925759C16.7689 0.925759 19.0788 3.23562 19.0788 6.07523C19.0788 8.56524 15.0979 14.8216 13.9294 16.6036C12.7612 14.8216 8.78022 8.56606 8.78022 6.07523C8.78022 3.23566 11.0901 0.925759 13.9294 0.925759Z" fill="#F94F19"/>
<path id="Vector_3" d="M16.7122 6.07531C16.7122 4.54075 15.4639 3.29248 13.9293 3.29248C12.3951 3.29248 11.1468 4.54075 11.1468 6.07531C11.1468 7.6095 12.3951 8.8578 13.9293 8.8578C15.4639 8.8578 16.7122 7.6095 16.7122 6.07531ZM11.9156 6.07531C11.9156 4.96469 12.8189 4.06126 13.9293 4.06126C15.0398 4.06126 15.9434 4.96469 15.9434 6.07531C15.9434 7.1856 15.0398 8.08903 13.9293 8.08903C12.8189 8.08903 11.9156 7.1856 11.9156 6.07531ZM25.0212 16.5819L24.4323 14.3451H16.6229V15.1139H16.9721L18.1799 19.701H9.67896L10.8869 15.1139H11.2359V14.3451H3.42659C-1.77129 34.0858 2.686 17.1581 0.808981 24.2861H27.05C24.9698 16.3864 25.0264 16.582 25.0212 16.582V16.5819ZM23.8397 15.1139L24.2263 16.5819H19.9476L19.5611 15.1139H23.8397ZM4.01907 15.1139H8.29797L7.91141 16.5819H3.63267L4.01907 15.1139ZM1.80628 23.5174L2.95793 19.1446H7.23654L6.08518 23.5174H1.80628ZM8.67411 23.5174L9.0041 22.2638H18.8546L19.1847 23.5174H8.67411ZM19.9798 23.5174L19.4472 21.495H8.41145L7.87904 23.5174H6.88026L8.23401 18.3758H3.16036L3.43024 17.3507H8.50405L9.09305 15.1139H10.0918L8.6815 20.4699H19.1774L17.767 15.1139H18.7659L19.3549 17.3507H24.4285L24.6986 18.3757H19.625L20.9787 23.5173L19.9798 23.5174ZM21.7738 23.5174L20.6223 19.1446H24.9011L26.0524 23.5174H21.7738Z" fill="#F94F19"/>
</g>
</g>
<defs>
<clipPath id="clip0_2_4073">
<rect width="28" height="28" fill="white" transform="translate(0.799988 0.209961)"/>
</clipPath>
</defs>
</svg>
