<svg width="29" height="29" viewBox="0 0 29 29" fill="none" xmlns="http://www.w3.org/2000/svg">
<g id="Frame">
<g id="Group">
<path id="Vector" fill-rule="evenodd" clip-rule="evenodd" d="M20.8939 19.1704C22.5214 19.4211 24.5558 19.2837 25.7585 18.7675C26.5491 18.428 26.9975 17.9065 26.9975 17.3036C26.9975 16.3608 26.6694 15.4893 26.1133 14.7871C26.0395 14.7015 25.9355 14.6477 25.823 14.637C25.7105 14.6263 25.5982 14.6595 25.5096 14.7296C25.421 14.7998 25.363 14.9015 25.3476 15.0135C25.3323 15.1255 25.3608 15.2391 25.4273 15.3305C25.8758 15.8905 26.1208 16.5861 26.1225 17.3036C26.1225 17.4738 26.0048 17.6055 25.8421 17.7262C25.5905 17.9126 25.2322 18.0548 24.8152 18.1646C23.4975 18.5115 21.6193 18.5102 20.3103 18.158C19.9574 17.6543 19.5395 17.1995 19.0674 16.8053C19.3251 15.2032 20.8038 13.9834 22.5752 13.9834C23.3155 13.9834 24.0037 14.196 24.5742 14.5613C24.6718 14.6208 24.7889 14.6396 24.9002 14.6139C25.0116 14.5881 25.1085 14.5198 25.1701 14.4235C25.2317 14.3272 25.2532 14.2106 25.23 14.0987C25.2068 13.9868 25.1407 13.8884 25.0458 13.8246C24.7732 13.6496 24.4788 13.503 24.1669 13.3888C24.4301 13.161 24.6413 12.8792 24.7859 12.5625C24.9305 12.2458 25.0053 11.9017 25.0051 11.5535C25.0049 11.1519 24.9051 10.7565 24.7148 10.4028C24.5244 10.0491 24.2494 9.74806 23.9143 9.52661C23.5792 9.30516 23.1944 9.1702 22.7944 9.13378C22.3943 9.09736 21.9915 9.16062 21.6219 9.31791C21.1025 8.57753 20.3678 8.01497 19.5176 7.70659C19.7809 7.47884 19.9921 7.19701 20.1367 6.88031C20.2814 6.56361 20.3561 6.21945 20.3558 5.87128C20.3556 5.22691 20.0995 4.609 19.6439 4.15336C19.1882 3.69772 18.5703 3.44164 17.9259 3.44141C17.2816 3.44164 16.6636 3.69772 16.208 4.15336C15.7524 4.609 15.4963 5.22691 15.4961 5.87128C15.4958 6.21945 15.5705 6.56361 15.7151 6.88031C15.8598 7.19701 16.071 7.47884 16.3343 7.70659C15.8744 7.87453 15.4451 8.11693 15.0638 8.42409C14.5662 8.32434 14.0538 8.32434 13.5562 8.42409C13.1749 8.11693 12.7456 7.87453 12.2857 7.70659C12.549 7.47884 12.7602 7.19701 12.9049 6.88031C13.0495 6.56361 13.1242 6.21945 13.1239 5.87128C13.1237 5.22691 12.8676 4.609 12.412 4.15336C11.9563 3.69772 11.3384 3.44164 10.6941 3.44141C10.0497 3.44164 9.43178 3.69772 8.97614 4.15336C8.5205 4.609 8.26442 5.22691 8.26418 5.87128C8.26389 6.21945 8.3386 6.56361 8.48325 6.88031C8.6279 7.19701 8.83909 7.47884 9.10244 7.70659C8.23531 8.02466 7.50075 8.59384 6.99806 9.31791C6.62846 9.16062 6.22565 9.09736 5.82563 9.13378C5.42561 9.1702 5.04084 9.30516 4.70572 9.52661C4.3706 9.74806 4.09558 10.0491 3.90522 10.4028C3.71486 10.7565 3.61511 11.1519 3.61487 11.5535C3.61457 11.9017 3.68929 12.2459 3.83394 12.5626C3.97859 12.8793 4.18978 13.1611 4.45312 13.3888C2.795 13.9965 1.6225 15.5252 1.6225 17.3036C1.6225 17.9065 2.07093 18.428 2.8615 18.7675C4.06418 19.2837 6.09856 19.4211 7.72606 19.1704C7.32651 20.0269 7.11968 20.9606 7.12012 21.9057C7.12012 22.5763 7.48719 23.1604 8.15306 23.6263C8.20001 23.6613 8.25351 23.6866 8.31039 23.7005C8.36727 23.7145 8.42637 23.7168 8.48419 23.7075C8.54201 23.6982 8.59737 23.6774 8.64698 23.6463C8.6966 23.6151 8.73946 23.5744 8.77304 23.5264C8.80661 23.4784 8.83021 23.4242 8.84243 23.3669C8.85465 23.3096 8.85525 23.2505 8.84419 23.193C8.83313 23.1355 8.81063 23.0808 8.77804 23.0321C8.74544 22.9834 8.70341 22.9418 8.65444 22.9097C8.25587 22.6306 7.99512 22.3068 7.99512 21.9057C7.99512 18.6257 10.8314 15.9758 14.31 15.9758C17.7886 15.9758 20.6249 18.6257 20.6249 21.9057C20.6249 22.2592 20.4197 22.5532 20.099 22.8095C19.6991 23.1293 19.1282 23.3831 18.4553 23.5826C16.3116 24.217 13.1659 24.273 10.8376 23.7554C10.7811 23.7418 10.7224 23.7395 10.665 23.7488C10.6076 23.758 10.5527 23.7787 10.5034 23.8094C10.454 23.8402 10.4113 23.8804 10.3777 23.9279C10.3441 23.9753 10.3204 24.029 10.3077 24.0857C10.2951 24.1425 10.2939 24.2011 10.3043 24.2583C10.3146 24.3155 10.3362 24.3701 10.3678 24.4189C10.3995 24.4676 10.4405 24.5096 10.4886 24.5423C10.5366 24.575 10.5907 24.5978 10.6477 24.6094C13.5312 25.2508 17.5947 25.046 19.7739 24.0218C20.8646 23.5095 21.4999 22.7754 21.4999 21.9057C21.4999 20.9335 21.2837 20.0082 20.8939 19.1704ZM9.55262 16.8053C9.29493 15.2032 7.81618 13.9834 6.04475 13.9834C4.09394 13.9834 2.4975 15.4639 2.4975 17.3036C2.4975 17.4738 2.61518 17.6055 2.77794 17.7262C3.0295 17.9126 3.38781 18.0548 3.80475 18.1646C5.1225 18.5115 7.00068 18.5102 8.30968 18.158C8.66269 17.6544 9.08061 17.1996 9.55262 16.8053ZM10.7829 13.6137C9.71231 13.6216 8.63475 13.4825 7.82581 13.206C7.76597 13.2701 7.70289 13.3312 7.63681 13.3888C8.95325 13.8718 9.96387 14.935 10.3244 16.2427C10.9256 15.863 11.5787 15.5727 12.2634 15.3808C12.0275 15.2308 11.8088 15.0551 11.6115 14.8571C11.2556 14.5017 10.9739 14.079 10.7829 13.6137ZM20.9832 13.3888C20.917 13.3313 20.8539 13.2702 20.7942 13.206C19.9852 13.4825 18.9072 13.6216 17.8371 13.6142C17.6452 14.0807 17.3623 14.5044 17.005 14.8606C16.8085 15.0571 16.5911 15.2316 16.3566 15.3808C17.0413 15.5726 17.6945 15.8629 18.2956 16.2427C18.6561 14.935 19.6667 13.8714 20.9832 13.3888ZM20.8922 9.80091C20.2565 8.89572 19.1636 8.30116 17.9259 8.30116C17.2799 8.29906 16.6446 8.4657 16.0827 8.78459C16.4157 8.95959 16.7285 9.18709 17.0085 9.46753C17.0881 9.5501 17.1322 9.66065 17.1311 9.77536C17.13 9.89007 17.0839 9.99977 17.0027 10.0808C16.9216 10.1619 16.8118 10.2078 16.6971 10.2087C16.5824 10.2097 16.4719 10.1655 16.3894 10.0857C15.8385 9.53462 15.0913 9.22478 14.3121 9.22429C13.5328 9.22379 12.7852 9.53269 12.2336 10.0831C11.6825 10.634 11.3725 11.3811 11.372 12.1604C11.3714 12.9396 11.6802 13.6872 12.2306 14.2389C12.7815 14.79 13.5287 15.0998 14.3079 15.1003C15.0872 15.1008 15.8347 14.7919 16.3864 14.2415C16.802 13.8261 17.0838 13.2956 17.1952 12.7186C17.3066 12.1416 17.2427 11.5444 17.0116 11.004C16.9692 10.898 16.97 10.7796 17.0137 10.6741C17.0574 10.5687 17.1407 10.4845 17.2456 10.4395C17.3506 10.3946 17.469 10.3924 17.5755 10.4336C17.682 10.4747 17.7682 10.5559 17.8157 10.6597C18.0951 11.3147 18.1865 12.0347 18.0795 12.7387C18.8823 12.7282 19.6759 12.6311 20.3129 12.4425C20.1369 11.9944 20.098 11.504 20.2011 11.0337C20.3042 10.5634 20.5448 10.1343 20.8922 9.80091ZM22.5752 9.99822C22.9876 9.99857 23.3829 10.1626 23.6745 10.4542C23.966 10.7458 24.1299 11.1412 24.1301 11.5535C24.1299 11.9658 23.966 12.3612 23.6745 12.6527C23.3829 12.9443 22.9876 13.1082 22.5752 13.1084C22.1629 13.1082 21.7675 12.9443 21.4759 12.6528C21.1843 12.3612 21.0203 11.9659 21.0199 11.5535C21.0202 11.1411 21.1841 10.7456 21.4757 10.454C21.7674 10.1624 22.1628 9.99845 22.5752 9.99822ZM6.04475 9.99822C6.45717 9.99845 6.85264 10.1624 7.14426 10.454C7.43589 10.7456 7.59983 11.1411 7.60006 11.5535C7.59971 11.9659 7.43572 12.3612 7.14411 12.6528C6.85249 12.9443 6.4571 13.1082 6.04475 13.1084C5.63244 13.1082 5.23709 12.9443 4.94554 12.6527C4.654 12.3612 4.4901 11.9658 4.48987 11.5535C4.4901 11.1412 4.65398 10.7458 4.94551 10.4542C5.23705 10.1626 5.6324 9.99857 6.04475 9.99822ZM12.5372 8.78459C11.9754 8.4657 11.3401 8.29906 10.6941 8.30116C9.45637 8.30116 8.3635 8.89572 7.72781 9.80091C7.96426 10.0274 8.15237 10.2995 8.2808 10.6007C8.40923 10.902 8.47531 11.2261 8.47506 11.5535C8.47506 11.8672 8.41556 12.1669 8.30706 12.4425C8.94406 12.6311 9.73769 12.7282 10.5405 12.7387C10.4496 12.1468 10.4995 11.5419 10.6862 10.9729C10.8729 10.4039 11.1911 9.887 11.615 9.46403C11.8865 9.19241 12.1974 8.96335 12.5372 8.78459ZM17.9259 4.31641C18.3319 4.32604 18.718 4.49408 19.0018 4.78463C19.2855 5.07518 19.4444 5.46517 19.4444 5.87128C19.4444 6.27739 19.2855 6.66739 19.0018 6.95793C18.718 7.24848 18.3319 7.41652 17.9259 7.42616C17.5199 7.41652 17.1338 7.24848 16.8501 6.95793C16.5664 6.66739 16.4075 6.27739 16.4075 5.87128C16.4075 5.46517 16.5664 5.07518 16.8501 4.78463C17.1338 4.49408 17.5199 4.32604 17.9259 4.31641ZM10.6941 4.31641C11.1001 4.32604 11.4862 4.49408 11.7699 4.78463C12.0536 5.07518 12.2125 5.46517 12.2125 5.87128C12.2125 6.27739 12.0536 6.66739 11.7699 6.95793C11.4862 7.24848 11.1001 7.41652 10.6941 7.42616C10.2881 7.41652 9.90195 7.24848 9.61821 6.95793C9.33448 6.66739 9.17564 6.27739 9.17564 5.87128C9.17564 5.46517 9.33448 5.07518 9.61821 4.78463C9.90195 4.49408 10.2881 4.32604 10.6941 4.31641Z" fill="#4B408C"/>
<path id="Vector_2" d="M9.53644 24.2725C9.77806 24.2725 9.97394 24.0766 9.97394 23.835C9.97394 23.5933 9.77806 23.3975 9.53644 23.3975C9.29481 23.3975 9.09894 23.5933 9.09894 23.835C9.09894 24.0766 9.29481 24.2725 9.53644 24.2725Z" fill="#4B408C"/>
</g>
</g>
</svg>
